<svg width="44" height="44" viewBox="0 0 44 44" fill="none" xmlns="http://www.w3.org/2000/svg">
<path d="M13.1051 1.32064L12.95 1.38426V1.45014L10.8127 3.58377L10.7769 3.61953L10.7578 3.66642L10.651 3.92892L10.6325 3.97425V4.02319V17.7369V17.9958L10.8912 17.9868C11.8594 17.9529 12.8276 18.054 13.768 18.2871L14.0781 18.364V18.0444V4.64069H39.3594V29.9219H25.2225H24.6413L25.041 30.3439C25.6566 30.9938 25.9998 31.8549 26 32.7501C26 32.7501 26 32.7501 26 32.7501V33.1157V33.3657H26.25H39.975H40.0243L40.0699 33.347L40.3305 33.2401L40.3769 33.2211L40.4123 33.1857L42.623 30.9769L42.6587 30.9412L42.6778 30.8943L42.7847 30.6318L42.8031 30.5865V30.5376V4.02319V3.97393L42.7844 3.92834L42.6776 3.66772L42.6585 3.62133L42.6231 3.58587L40.4144 1.37524L40.3786 1.33947L40.3318 1.3204L40.0693 1.21352L40.0239 1.19507H39.975H13.4606H13.4114L13.3658 1.21376L13.1051 1.32064ZM31.2471 19.4515L31.3206 19.3782V19.2744V17.9319V17.8284L31.2474 17.7552L23.498 10.0058L23.3191 9.82685L23.1423 10.008L21.618 11.5698L21.4475 11.7445L21.618 11.9191L28.2067 18.6685L24.1889 22.6845L24.0122 22.8611L24.1886 23.0379L24.9743 23.8254L24.9747 23.8258C25.2165 24.067 25.4216 24.3424 25.5837 24.643L25.7428 24.9382L25.9802 24.7015L31.2471 19.4515ZM4.33726 26.3088L2.16428 24.1358L1.9875 23.959L1.81072 24.1358L-0.176777 26.1233L-0.353553 26.3001L-0.176777 26.4768L2.87145 29.5251L2.63572 29.7608L2.5625 29.834V29.9376V32.5001H0H-0.25V32.7501V35.5626V35.8126H0H2.57542C2.71675 36.6721 2.95527 37.5128 3.28632 38.3183L-0.178149 41.8372L-0.352181 42.0139L-0.176777 42.1893L1.81072 44.1768L1.9875 44.3536L2.16428 44.1768L5.06192 41.2792C5.79135 42.1477 6.69112 42.8589 7.7067 43.3683C8.80627 43.9197 10.0143 44.2208 11.2441 44.25L11.2441 44.2503L11.2557 44.25C12.4858 44.2222 13.6943 43.9216 14.7942 43.37C15.81 42.8606 16.7096 42.1488 17.4383 41.2794L20.3357 44.1768L20.5125 44.3536L20.6893 44.1768L22.6768 42.1893L22.8522 42.0139L22.6782 41.8372L19.2133 38.3179C19.5535 37.4828 19.7944 36.6105 19.9309 35.7188H22.5H22.75V35.4688V32.7501V32.5001H22.5H19.9375V29.9376V29.834L19.8643 29.7608L19.6286 29.5251L22.6768 26.4768L22.8536 26.3001L22.6768 26.1233L20.6893 24.1358L20.5125 23.959L20.3357 24.1358L18.1627 26.3088C17.7249 24.9104 16.8718 23.6741 15.7122 22.7673C14.4382 21.771 12.8673 21.2298 11.25 21.2298C9.63265 21.2298 8.06183 21.771 6.78778 22.7673C5.62816 23.6741 4.77512 24.9104 4.33726 26.3088ZM14.8982 39.2089L14.825 39.2822V39.2827C13.8543 40.2204 12.5947 40.8036 11.25 40.9364C9.87145 40.7999 8.58244 40.19 7.60252 39.21C6.61977 38.2273 6.00918 36.9337 5.875 35.5506V31.5938H16.625V35.5506C16.4908 36.9332 15.8805 38.2264 14.8982 39.2089ZM12.0243 24.6388C12.7941 24.7919 13.5013 25.1699 14.0563 25.725C14.4249 26.0935 14.7172 26.531 14.9167 27.0125C15.0842 27.4169 15.1834 27.8456 15.2109 28.2813H7.28913C7.33311 27.5843 7.56043 26.9096 7.95009 26.3264C8.38619 25.6737 9.00602 25.165 9.73122 24.8646C10.4564 24.5642 11.2544 24.4857 12.0243 24.6388Z" fill="#FF7300" stroke="#FF7300" stroke-width="0.5"/>
</svg>
