<svg width="668" height="400" viewBox="0 0 668 400" fill="none" xmlns="http://www.w3.org/2000/svg">
<g clip-path="url(#clip0_70_572)">
<rect width="668" height="400" rx="16" fill="#343333"/>
<rect x="-54.5" y="42.5" width="692" height="399" rx="23.5" fill="#1F1F1F"/>
<rect x="-54.5" y="42.5" width="692" height="399" rx="23.5" stroke="#C4C4C4"/>
<g clip-path="url(#clip1_70_572)">
<path d="M6.36505 145.866V119.557H17.8094C19.4658 119.557 20.9092 119.845 22.1386 120.422C23.3691 120.998 24.3221 121.812 24.9997 122.865C25.6773 123.917 26.0161 125.157 26.0161 126.585V127.036C26.0161 128.615 25.6397 129.893 24.8867 130.87C24.1338 131.847 23.2056 132.561 22.101 133.012V133.689C23.1056 133.739 23.8832 134.089 24.435 134.741C24.9879 135.367 25.2632 136.207 25.2632 137.259V145.866H20.294V137.973C20.294 137.372 20.1316 136.883 19.8046 136.508C19.5034 136.132 18.9893 135.944 18.2611 135.944H11.3343V145.866H6.36505ZM11.3343 131.434H17.2823C18.4623 131.434 19.3787 131.12 20.0304 130.494C20.7081 129.842 21.0469 128.991 21.0469 127.938V127.563C21.0469 126.51 20.721 125.67 20.0681 125.044C19.4164 124.393 18.487 124.067 17.2823 124.067H11.3343V131.434ZM30.1513 145.866V119.557H47.0918V124.067H35.1205V130.344H46.0377V134.854H35.1205V141.356H47.3177V145.866H30.1513ZM61.236 146.392C57.9232 146.392 55.288 145.49 53.3304 143.686C51.3729 141.857 50.3941 139.251 50.3941 135.869V129.555C50.3941 126.172 51.3729 123.579 53.3304 121.775C55.288 119.946 57.9232 119.031 61.236 119.031C64.5489 119.031 67.184 119.946 69.1416 121.775C71.0992 123.579 72.078 126.172 72.078 129.555V135.869C72.078 139.251 71.0992 141.857 69.1416 143.686C67.184 145.49 64.5489 146.392 61.236 146.392ZM61.236 141.957C63.0936 141.957 64.5359 141.418 65.5653 140.341C66.5947 139.264 67.1088 137.823 67.1088 136.019V129.404C67.1088 127.6 66.5947 126.159 65.5653 125.082C64.5359 124.005 63.0936 123.466 61.236 123.466C59.4043 123.466 57.9608 124.005 56.9068 125.082C55.8774 126.159 55.3633 127.6 55.3633 129.404V136.019C55.3633 137.823 55.8774 139.264 56.9068 140.341C57.9608 141.418 59.4043 141.957 61.236 141.957ZM62.9677 152.631C61.7384 152.631 60.7337 152.242 59.9561 151.466C59.2032 150.714 58.8267 149.699 58.8267 148.422V145.866H63.6453V147.67C63.6453 148.422 63.9971 148.797 64.6994 148.797H66.9205V152.631H62.9677ZM86.601 146.392C84.4422 146.392 82.5859 146.003 81.0294 145.227C79.4989 144.425 78.3189 143.297 77.4907 141.844C76.6872 140.366 76.2861 138.625 76.2861 136.62V119.557H81.2553V136.771C81.2553 138.374 81.7071 139.64 82.6105 140.567C83.5387 141.493 84.8693 141.957 86.601 141.957C88.3327 141.957 89.6503 141.493 90.5538 140.567C91.482 139.64 91.9467 138.374 91.9467 136.771V119.557H96.9159V136.62C96.9159 138.625 96.5018 140.366 95.6736 141.844C94.8701 143.297 93.6913 144.425 92.1349 145.227C90.6044 146.003 88.7597 146.392 86.601 146.392ZM101.73 145.866V119.557H118.67V124.067H106.699V130.344H117.616V134.854H106.699V141.356H118.896V145.866H101.73ZM131.723 146.392C129.69 146.392 127.895 146.029 126.34 145.302C124.783 144.575 123.566 143.536 122.688 142.183C121.809 140.83 121.37 139.201 121.37 137.297V136.244H126.264V137.297C126.264 138.875 126.754 140.065 127.732 140.867C128.711 141.644 130.041 142.032 131.723 142.032C133.429 142.032 134.697 141.694 135.525 141.018C136.378 140.341 136.805 139.477 136.805 138.424C136.805 137.697 136.591 137.109 136.165 136.658C135.763 136.207 135.16 135.844 134.358 135.568C133.579 135.267 132.626 134.991 131.497 134.741L130.631 134.553C128.824 134.153 127.268 133.651 125.963 133.05C124.683 132.424 123.691 131.609 122.989 130.607C122.311 129.605 121.973 128.301 121.973 126.698C121.973 125.095 122.349 123.729 123.102 122.601C123.88 121.449 124.958 120.572 126.34 119.971C127.744 119.345 129.389 119.031 131.271 119.031C133.153 119.031 134.822 119.356 136.278 120.008C137.758 120.634 138.913 121.587 139.741 122.865C140.594 124.118 141.021 125.696 141.021 127.6V128.728H136.127V127.6C136.127 126.598 135.926 125.796 135.525 125.195C135.149 124.569 134.596 124.118 133.869 123.842C133.141 123.541 132.275 123.391 131.271 123.391C129.765 123.391 128.648 123.679 127.921 124.255C127.217 124.806 126.867 125.571 126.867 126.548C126.867 127.2 127.029 127.75 127.356 128.201C127.707 128.652 128.222 129.028 128.899 129.329C129.577 129.63 130.443 129.893 131.497 130.118L132.363 130.306C134.245 130.707 135.876 131.221 137.257 131.847C138.661 132.473 139.753 133.3 140.532 134.328C141.31 135.355 141.699 136.671 141.699 138.274C141.699 139.877 141.285 141.294 140.457 142.521C139.653 143.724 138.499 144.676 136.993 145.377C135.512 146.054 133.756 146.392 131.723 146.392ZM150.658 145.866V124.067H142.978V119.557H163.306V124.067H155.627V145.866H150.658ZM180.068 145.866V124.067H172.389V119.557H192.717V124.067H185.037V145.866H180.068ZM196.102 145.866V119.557H213.042V124.067H201.071V130.344H211.988V134.854H201.071V141.356H213.268V145.866H196.102ZM226.094 146.392C224.061 146.392 222.267 146.029 220.71 145.302C219.155 144.575 217.937 143.536 217.059 142.183C216.181 140.83 215.741 139.201 215.741 137.297V136.244H220.635V137.297C220.635 138.875 221.124 140.065 222.103 140.867C223.082 141.644 224.413 142.032 226.094 142.032C227.801 142.032 229.068 141.694 229.896 141.018C230.75 140.341 231.176 139.477 231.176 138.424C231.176 137.697 230.963 137.109 230.536 136.658C230.135 136.207 229.532 135.844 228.729 135.568C227.951 135.267 226.997 134.991 225.868 134.741L225.002 134.553C223.195 134.153 221.64 133.651 220.334 133.05C219.054 132.424 218.063 131.609 217.36 130.607C216.682 129.605 216.343 128.301 216.343 126.698C216.343 125.095 216.72 123.729 217.473 122.601C218.252 121.449 219.33 120.572 220.71 119.971C222.116 119.345 223.76 119.031 225.642 119.031C227.524 119.031 229.194 119.356 230.649 120.008C232.13 120.634 233.284 121.587 234.112 122.865C234.966 124.118 235.392 125.696 235.392 127.6V128.728H230.498V127.6C230.498 126.598 230.298 125.796 229.896 125.195C229.519 124.569 228.968 124.118 228.239 123.842C227.512 123.541 226.647 123.391 225.642 123.391C224.136 123.391 223.02 123.679 222.291 124.255C221.589 124.806 221.237 125.571 221.237 126.548C221.237 127.2 221.401 127.75 221.727 128.201C222.078 128.652 222.593 129.028 223.27 129.329C223.948 129.63 224.814 129.893 225.868 130.118L226.734 130.306C228.616 130.707 230.248 131.221 231.628 131.847C233.033 132.473 234.125 133.3 234.903 134.328C235.682 135.355 236.07 136.671 236.07 138.274C236.07 139.877 235.656 141.294 234.827 142.521C234.025 143.724 232.87 144.676 231.364 145.377C229.884 146.054 228.127 146.392 226.094 146.392ZM245.029 145.866V124.067H237.35V119.557H257.678V124.067H249.999V145.866H245.029ZM261.062 145.866V119.557H270.511L275.744 142.483H276.421V119.557H281.315V145.866H271.866L266.633 122.94H265.956V145.866H261.062ZM286.282 145.866V119.557H303.223V124.067H291.251V130.344H302.169V134.854H291.251V141.356H303.449V145.866H286.282ZM313.226 145.866V124.067H305.546V119.557H325.875V124.067H318.195V145.866H313.226ZM342.637 145.866V124.067H334.957V119.557H355.285V124.067H347.606V145.866H342.637ZM367.843 146.392C364.53 146.392 361.895 145.49 359.937 143.686C357.98 141.857 357.001 139.251 357.001 135.869V129.555C357.001 126.172 357.98 123.579 359.937 121.775C361.895 119.946 364.53 119.031 367.843 119.031C371.156 119.031 373.791 119.946 375.748 121.775C377.706 123.579 378.685 126.172 378.685 129.555V135.869C378.685 139.251 377.706 141.857 375.748 143.686C373.791 145.49 371.156 146.392 367.843 146.392ZM367.843 141.957C369.7 141.957 371.143 141.418 372.172 140.341C373.201 139.264 373.715 137.823 373.715 136.019V129.404C373.715 127.6 373.201 126.159 372.172 125.082C371.143 124.005 369.7 123.466 367.843 123.466C366.011 123.466 364.568 124.005 363.513 125.082C362.484 126.159 361.97 127.6 361.97 129.404V136.019C361.97 137.823 362.484 139.264 363.513 140.341C364.568 141.418 366.011 141.957 367.843 141.957ZM383.043 145.866V119.557H388.013V130.006H388.69L397.236 119.557H403.598L392.605 132.524L403.974 145.866H397.424L388.69 135.192H388.013V145.866H383.043ZM406.608 145.866V119.557H423.549V124.067H411.578V130.344H422.495V134.854H411.578V141.356H423.775V145.866H406.608ZM427.453 145.866V119.557H436.903L442.135 142.483H442.813V119.557H447.707V145.866H438.258L433.025 122.94H432.347V145.866H427.453ZM461.82 146.392C459.788 146.392 457.994 146.029 456.437 145.302C454.882 144.575 453.664 143.536 452.785 142.183C451.908 140.83 451.468 139.201 451.468 137.297V136.244H456.362V137.297C456.362 138.875 456.851 140.065 457.83 140.867C458.809 141.644 460.139 142.032 461.82 142.032C463.527 142.032 464.794 141.694 465.623 141.018C466.477 140.341 466.903 139.477 466.903 138.424C466.903 137.697 466.69 137.109 466.263 136.658C465.862 136.207 465.259 135.844 464.456 135.568C463.678 135.267 462.724 134.991 461.595 134.741L460.729 134.553C458.922 134.153 457.367 133.651 456.061 133.05C454.781 132.424 453.79 131.609 453.087 130.607C452.409 129.605 452.07 128.301 452.07 126.698C452.07 125.095 452.447 123.729 453.2 122.601C453.978 121.449 455.057 120.572 456.437 119.971C457.843 119.345 459.486 119.031 461.369 119.031C463.251 119.031 464.92 119.356 466.376 120.008C467.857 120.634 469.011 121.587 469.839 122.865C470.693 124.118 471.119 125.696 471.119 127.6V128.728H466.225V127.6C466.225 126.598 466.025 125.796 465.623 125.195C465.246 124.569 464.694 124.118 463.966 123.842C463.239 123.541 462.373 123.391 461.369 123.391C459.863 123.391 458.746 123.679 458.018 124.255C457.316 124.806 456.964 125.571 456.964 126.548C456.964 127.2 457.128 127.75 457.454 128.201C457.805 128.652 458.319 129.028 458.997 129.329C459.675 129.63 460.541 129.893 461.595 130.118L462.46 130.306C464.343 130.707 465.974 131.221 467.354 131.847C468.76 132.473 469.852 133.3 470.63 134.328C471.408 135.355 471.797 136.671 471.797 138.274C471.797 139.877 471.383 141.294 470.554 142.521C469.752 143.724 468.597 144.676 467.091 145.377C465.611 146.054 463.853 146.392 461.82 146.392Z" fill="#BFBFBF"/>
<path d="M340.595 194.886H-139.437C-147.859 194.886 -154.686 201.703 -154.686 210.111V244.532C-154.686 252.94 -147.859 259.756 -139.437 259.756H340.595C349.017 259.756 355.845 252.94 355.845 244.532V210.111C355.845 201.703 349.017 194.886 340.595 194.886Z" fill="#1A1A1A"/>
<path d="M340.595 194.886H-139.437C-147.859 194.886 -154.686 201.703 -154.686 210.111V244.532C-154.686 252.94 -147.859 259.756 -139.437 259.756H340.595C349.017 259.756 355.845 252.94 355.845 244.532V210.111C355.845 201.703 349.017 194.886 340.595 194.886Z" stroke="#D4D4D4" stroke-linecap="round" stroke-linejoin="round"/>
<path d="M-132.435 235.265V220.437H-130.653V235.265H-132.435ZM-127.192 235.265V224.907H-125.558V226.665H-125.261C-125.035 226.171 -124.653 225.726 -124.115 225.33C-123.563 224.921 -122.757 224.716 -121.696 224.716C-120.919 224.716 -120.225 224.879 -119.617 225.203C-118.995 225.528 -118.5 226.008 -118.132 226.644C-117.764 227.279 -117.58 228.063 -117.58 228.995V235.265H-119.256V229.122C-119.256 228.091 -119.518 227.343 -120.041 226.877C-120.551 226.411 -121.244 226.178 -122.121 226.178C-123.125 226.178 -123.945 226.502 -124.582 227.152C-125.204 227.802 -125.515 228.769 -125.515 230.054V235.265H-127.192ZM-110 235.561C-111.287 235.561 -112.376 235.265 -113.267 234.672C-114.144 234.079 -114.675 233.14 -114.859 231.854L-113.267 231.494C-113.154 232.172 -112.942 232.708 -112.631 233.104C-112.32 233.486 -111.938 233.761 -111.485 233.93C-111.018 234.085 -110.523 234.163 -110 234.163C-109.222 234.163 -108.607 234.008 -108.154 233.697C-107.701 233.386 -107.475 232.971 -107.475 232.448C-107.475 231.911 -107.694 231.537 -108.133 231.325C-108.557 231.099 -109.144 230.916 -109.894 230.774L-110.764 230.626C-111.429 230.513 -112.037 230.336 -112.588 230.096C-113.14 229.857 -113.579 229.531 -113.904 229.122C-114.229 228.713 -114.392 228.197 -114.392 227.576C-114.392 226.644 -114.031 225.917 -113.31 225.394C-112.588 224.871 -111.634 224.61 -110.445 224.61C-109.272 224.61 -108.324 224.879 -107.602 225.415C-106.867 225.938 -106.393 226.679 -106.181 227.639L-107.751 228.042C-107.878 227.294 -108.182 226.771 -108.663 226.474C-109.144 226.163 -109.738 226.008 -110.445 226.008C-111.153 226.008 -111.711 226.142 -112.122 226.411C-112.532 226.665 -112.737 227.046 -112.737 227.555C-112.737 228.048 -112.546 228.416 -112.164 228.656C-111.768 228.882 -111.245 229.052 -110.594 229.164L-109.724 229.313C-108.989 229.44 -108.331 229.616 -107.751 229.842C-107.157 230.054 -106.69 230.365 -106.351 230.774C-105.997 231.183 -105.82 231.721 -105.82 232.384C-105.82 233.401 -106.202 234.185 -106.966 234.735C-107.716 235.286 -108.727 235.561 -110 235.561ZM-98.2385 235.561C-99.2853 235.561 -100.205 235.343 -100.997 234.905C-101.789 234.453 -102.404 233.824 -102.843 233.02C-103.281 232.215 -103.5 231.283 -103.5 230.223V229.969C-103.5 228.896 -103.281 227.957 -102.843 227.152C-102.404 226.347 -101.796 225.726 -101.018 225.288C-100.24 224.837 -99.3489 224.61 -98.3446 224.61C-97.3686 224.61 -96.5059 224.822 -95.7561 225.246C-95.0065 225.655 -94.4194 226.248 -93.9951 227.025C-93.5708 227.802 -93.3586 228.713 -93.3586 229.757V230.52H-101.824C-101.782 231.636 -101.421 232.511 -100.742 233.147C-100.063 233.767 -99.2145 234.079 -98.196 234.079C-97.3049 234.079 -96.619 233.873 -96.138 233.464C-95.6572 233.055 -95.2893 232.568 -95.0347 232.003L-93.592 232.702C-93.8042 233.14 -94.1012 233.577 -94.4831 234.015C-94.8509 234.453 -95.3389 234.82 -95.9471 235.117C-96.5411 235.413 -97.3049 235.561 -98.2385 235.561ZM-101.803 229.143H-95.056C-95.1126 228.183 -95.445 227.434 -96.0531 226.898C-96.6472 226.362 -97.411 226.093 -98.3446 226.093C-99.2923 226.093 -100.07 226.362 -100.678 226.898C-101.287 227.434 -101.662 228.183 -101.803 229.143ZM-90.435 235.265V224.907H-88.8014V226.178H-88.5043C-88.3204 225.726 -88.0375 225.394 -87.6556 225.182C-87.2737 224.97 -86.7716 224.864 -86.1492 224.864H-84.9187V226.39H-86.2553C-87.0049 226.39 -87.6132 226.601 -88.08 227.025C-88.5326 227.434 -88.7589 228.077 -88.7589 228.953V235.265H-90.435ZM-78.6186 235.265C-79.2127 235.265 -79.6715 235.102 -79.9977 234.778C-80.308 234.453 -80.4644 234.008 -80.4644 233.443V226.368H-83.5833V224.907H-80.4644V221.221H-78.7883V224.907H-75.3936V226.368H-78.7883V233.189C-78.7883 233.613 -78.5828 233.824 -78.173 233.824H-75.8604V235.265H-78.6186ZM-65.9309 235.265L-68.3496 220.437H-66.5674L-64.4669 234.121H-64.1699L-61.4329 220.437H-58.2504L-55.5346 234.121H-55.2376L-53.1371 220.437H-51.3549L-53.7736 235.265H-56.9562L-59.6931 221.496H-59.9902L-62.7271 235.265H-65.9309ZM-45.8345 235.561C-46.5559 235.561 -47.2136 235.434 -47.8077 235.18C-48.4018 234.926 -48.8685 234.559 -49.208 234.079C-49.5475 233.598 -49.7172 233.013 -49.7172 232.32C-49.7172 231.615 -49.5475 231.035 -49.208 230.584C-48.8685 230.118 -48.4018 229.772 -47.8077 229.546C-47.2136 229.306 -46.548 229.186 -45.8133 229.186H-42.3125V228.423C-42.3125 227.688 -42.5313 227.11 -42.9703 226.686C-43.3946 226.262 -44.0311 226.051 -44.8798 226.051C-45.7139 226.051 -46.3649 226.256 -46.8317 226.665C-47.2985 227.061 -47.6167 227.597 -47.7865 228.275L-49.3565 227.766C-49.1868 227.188 -48.9176 226.665 -48.5503 226.199C-48.1816 225.718 -47.6937 225.337 -47.0863 225.055C-46.4631 224.759 -45.7205 224.61 -44.8586 224.61C-43.5285 224.61 -42.4955 224.956 -41.7609 225.648C-41.0249 226.326 -40.6576 227.286 -40.6576 228.529V233.21C-40.6576 233.634 -40.4587 233.846 -40.0636 233.846H-39.1088V235.265H-40.5728C-41.0395 235.265 -41.4135 235.138 -41.6972 234.884C-41.9797 234.615 -42.1216 234.263 -42.1216 233.824V233.719H-42.3762C-42.5313 233.987 -42.7435 234.269 -43.0127 234.566C-43.2673 234.848 -43.62 235.081 -44.0735 235.265C-44.5257 235.462 -45.1132 235.561 -45.8345 235.561ZM-45.6436 234.121C-44.653 234.121 -43.8534 233.831 -43.2461 233.252C-42.6228 232.659 -42.3125 231.833 -42.3125 230.774V230.541H-45.7497C-46.414 230.541 -46.9657 230.689 -47.4046 230.986C-47.8289 231.268 -48.0411 231.7 -48.0411 232.278C-48.0411 232.857 -47.821 233.309 -47.3834 233.634C-46.9298 233.958 -46.3504 234.121 -45.6436 234.121ZM-36.812 235.265V220.437H-35.1359V235.265H-36.812ZM-31.6126 235.265V220.437H-29.9365V235.265H-31.6126ZM-21.6592 235.561C-22.7055 235.561 -23.6244 235.343 -24.4174 234.905C-25.2091 234.453 -25.8244 233.824 -26.2633 233.02C-26.7009 232.215 -26.921 231.283 -26.921 230.223V229.969C-26.921 228.896 -26.7009 227.957 -26.2633 227.152C-25.8244 226.347 -25.2157 225.726 -24.4386 225.288C-23.6602 224.837 -22.7691 224.61 -21.7653 224.61C-20.7893 224.61 -19.9261 224.822 -19.1769 225.246C-18.4263 225.655 -17.8402 226.248 -17.4158 227.025C-16.9915 227.802 -16.7794 228.713 -16.7794 229.757V230.52H-25.2449C-25.2025 231.636 -24.8418 232.511 -24.1628 233.147C-23.4839 233.767 -22.6352 234.079 -21.6168 234.079C-20.7257 234.079 -20.0388 233.873 -19.5588 233.464C-19.0774 233.055 -18.7101 232.568 -18.4555 232.003L-17.0127 232.702C-17.2249 233.14 -17.5219 233.577 -17.9039 234.015C-18.2712 234.453 -18.7591 234.82 -19.3678 235.117C-19.9619 235.413 -20.7257 235.561 -21.6592 235.561ZM-25.2237 229.143H-18.4767C-18.5324 228.183 -18.8652 227.434 -19.4739 226.898C-20.068 226.362 -20.8318 226.093 -21.7653 226.093C-22.7121 226.093 -23.4905 226.362 -24.0992 226.898C-24.7065 227.434 -25.0818 228.183 -25.2237 229.143ZM-10.4713 235.265C-11.0654 235.265 -11.5255 235.102 -11.8504 234.778C-12.162 234.453 -12.3172 234.008 -12.3172 233.443V226.368H-15.4361V224.907H-12.3172V221.221H-10.641V224.907H-7.24635V226.368H-10.641V233.189C-10.641 233.613 -10.4355 233.824 -10.0257 233.824H-7.7131V235.265H-10.4713ZM-0.581604 235.265L4.00125 220.437H7.14136L11.7242 235.265H9.87833L8.7326 231.516H2.40997L1.26427 235.265H-0.581604ZM2.85553 229.906H8.26584L5.71982 221.518H5.42278L2.85553 229.906ZM18.4049 235.561C17.5137 235.561 16.6929 235.35 15.9437 234.926C15.1932 234.502 14.5991 233.888 14.1615 233.083C13.7225 232.278 13.5038 231.325 13.5038 230.223V229.948C13.5038 228.847 13.7225 227.9 14.1615 227.11C14.5991 226.305 15.1865 225.691 15.9225 225.267C16.6717 224.829 17.4992 224.61 18.4049 224.61C19.1262 224.61 19.7336 224.71 20.2295 224.907C20.7387 225.091 21.1485 225.33 21.4601 225.627C21.7704 225.909 22.0117 226.213 22.1815 226.538H22.4785V220.437H24.1546V235.265H22.5209V233.549H22.2239C21.9401 234.072 21.5025 234.538 20.9084 234.947C20.3144 235.356 19.479 235.561 18.4049 235.561ZM18.8504 234.079C19.9245 234.079 20.7944 233.74 21.4601 233.062C22.139 232.369 22.4785 231.41 22.4785 230.181V229.99C22.4785 228.762 22.139 227.809 21.4601 227.131C20.7944 226.439 19.9245 226.093 18.8504 226.093C17.7896 226.093 16.9117 226.439 16.2195 227.131C15.5406 227.809 15.2011 228.762 15.2011 229.99V230.181C15.2011 231.41 15.5406 232.369 16.2195 233.062C16.9117 233.74 17.7896 234.079 18.8504 234.079ZM32.0592 235.561C31.1681 235.561 30.3473 235.35 29.5981 234.926C28.8475 234.502 28.2535 233.888 27.8159 233.083C27.377 232.278 27.1581 231.325 27.1581 230.223V229.948C27.1581 228.847 27.377 227.9 27.8159 227.11C28.2535 226.305 28.8409 225.691 29.5769 225.267C30.3261 224.829 31.1535 224.61 32.0592 224.61C32.7806 224.61 33.3879 224.71 33.8839 224.907C34.3931 225.091 34.8029 225.33 35.1145 225.627C35.4248 225.909 35.6661 226.213 35.8358 226.538H36.1329V220.437H37.809V235.265H36.1753V233.549H35.8783C35.5945 234.072 35.1569 234.538 34.5628 234.947C33.9688 235.356 33.1333 235.561 32.0592 235.561ZM32.5048 234.079C33.5789 234.079 34.4488 233.74 35.1145 233.062C35.7934 232.369 36.1329 231.41 36.1329 230.181V229.99C36.1329 228.762 35.7934 227.809 35.1145 227.131C34.4488 226.439 33.5789 226.093 32.5048 226.093C31.444 226.093 30.5661 226.439 29.8739 227.131C29.1949 227.809 28.8555 228.762 28.8555 229.99V230.181C28.8555 231.41 29.1949 232.369 29.8739 233.062C30.5661 233.74 31.444 234.079 32.5048 234.079ZM41.3204 235.265V224.907H42.9541V226.178H43.2511C43.4355 225.726 43.7179 225.394 44.0998 225.182C44.4817 224.97 44.9843 224.864 45.6062 224.864H46.8368V226.39H45.5001C44.7509 226.39 44.1422 226.601 43.6755 227.025C43.2233 227.434 42.9965 228.077 42.9965 228.953V235.265H41.3204ZM53.6978 235.561C52.6515 235.561 51.7326 235.343 50.9396 234.905C50.1479 234.453 49.5327 233.824 49.0937 233.02C48.6561 232.215 48.436 231.283 48.436 230.223V229.969C48.436 228.896 48.6561 227.957 49.0937 227.152C49.5327 226.347 50.1413 225.726 50.9184 225.288C51.6968 224.837 52.5879 224.61 53.5917 224.61C54.5677 224.61 55.431 224.822 56.1802 225.246C56.9307 225.655 57.5168 226.248 57.9412 227.025C58.3655 227.802 58.5777 228.713 58.5777 229.757V230.52H50.1122C50.1546 231.636 50.5153 232.511 51.1942 233.147C51.8731 233.767 52.7218 234.079 53.7402 234.079C54.6313 234.079 55.3182 233.873 55.7983 233.464C56.2796 233.055 56.6469 232.568 56.9015 232.003L58.3443 232.702C58.1321 233.14 57.8351 233.577 57.4532 234.015C57.0859 234.453 56.5979 234.82 55.9892 235.117C55.3951 235.413 54.6313 235.561 53.6978 235.561ZM50.1333 229.143H56.8803C56.8246 228.183 56.4918 227.434 55.8831 226.898C55.2891 226.362 54.5253 226.093 53.5917 226.093C52.6449 226.093 51.8665 226.362 51.2579 226.898C50.6505 227.434 50.2752 228.183 50.1333 229.143ZM65.6814 235.561C64.3938 235.561 63.3051 235.265 62.4139 234.672C61.5374 234.079 61.007 233.14 60.8227 231.854L62.4139 231.494C62.5267 232.172 62.7388 232.708 63.0505 233.104C63.3621 233.486 63.744 233.761 64.1962 233.93C64.6629 234.085 65.1576 234.163 65.6814 234.163C66.4597 234.163 67.075 234.008 67.5272 233.697C67.9794 233.386 68.2062 232.971 68.2062 232.448C68.2062 231.911 67.9874 231.537 67.5484 231.325C67.1241 231.099 66.5367 230.916 65.7874 230.774L64.9175 230.626C64.2532 230.513 63.6445 230.336 63.0929 230.096C62.5413 229.857 62.1023 229.531 61.7775 229.122C61.4526 228.713 61.2895 228.197 61.2895 227.576C61.2895 226.644 61.6501 225.917 62.3715 225.394C63.0929 224.871 64.0477 224.61 65.2358 224.61C66.4094 224.61 67.3575 224.879 68.0789 225.415C68.8148 225.938 69.2882 226.679 69.5004 227.639L67.9303 228.042C67.803 227.294 67.4994 226.771 67.018 226.474C66.5367 226.163 65.9426 226.008 65.2358 226.008C64.529 226.008 63.9694 226.142 63.5597 226.411C63.1499 226.665 62.9444 227.046 62.9444 227.555C62.9444 228.048 63.1353 228.416 63.5172 228.656C63.9137 228.882 64.4362 229.052 65.0873 229.164L65.9572 229.313C66.6931 229.44 67.3508 229.616 67.9303 229.842C68.5244 230.054 68.9912 230.365 69.3307 230.774C69.6847 231.183 69.8611 231.721 69.8611 232.384C69.8611 233.401 69.4792 234.185 68.7154 234.735C67.9661 235.286 66.9544 235.561 65.6814 235.561ZM76.8706 235.561C75.583 235.561 74.4943 235.265 73.6032 234.672C72.7254 234.079 72.1949 233.14 72.0119 231.854L73.6032 231.494C73.7159 232.172 73.9281 232.708 74.2397 233.104C74.55 233.486 74.9319 233.761 75.3854 233.93C75.8522 234.085 76.3468 234.163 76.8706 234.163C77.6477 234.163 78.263 234.008 78.7165 233.697C79.1687 233.386 79.3954 232.971 79.3954 232.448C79.3954 231.911 79.1753 231.537 78.7377 231.325C78.3134 231.099 77.7259 230.916 76.9767 230.774L76.1068 230.626C75.4411 230.513 74.8338 230.336 74.2822 230.096C73.7305 229.857 73.2916 229.531 72.9667 229.122C72.6405 228.713 72.4787 228.197 72.4787 227.576C72.4787 226.644 72.8394 225.917 73.5608 225.394C74.2821 224.871 75.2369 224.61 76.425 224.61C77.5986 224.61 78.5467 224.879 79.2681 225.415C80.0027 225.938 80.4775 226.679 80.6897 227.639L79.1196 228.042C78.9923 227.294 78.6873 226.771 78.2073 226.474C77.7259 226.163 77.1318 226.008 76.425 226.008C75.7169 226.008 75.1587 226.142 74.7489 226.411C74.3378 226.665 74.1336 227.046 74.1336 227.555C74.1336 228.048 74.3246 228.416 74.7065 228.656C75.1016 228.882 75.6254 229.052 76.2765 229.164L77.1464 229.313C77.881 229.44 78.5388 229.616 79.1196 229.842C79.7137 230.054 80.1804 230.365 80.5199 230.774C80.8726 231.183 81.0503 231.721 81.0503 232.384C81.0503 233.401 80.6684 234.185 79.9046 234.735C79.1541 235.286 78.1436 235.561 76.8706 235.561Z" fill="#B4B4B4"/>
<path d="M327.334 204.816H230.532C226.138 204.816 222.576 208.372 222.576 212.759V292.191C222.576 296.578 226.138 300.135 230.532 300.135H327.334C331.729 300.135 335.291 296.578 335.291 292.191V212.759C335.291 208.372 331.729 204.816 327.334 204.816Z" fill="#343333"/>
<path d="M322.03 210.442H235.837C231.626 210.442 228.212 213.85 228.212 218.054V239.236C228.212 243.44 231.626 246.849 235.837 246.849H322.03C326.241 246.849 329.655 243.44 329.655 239.236V218.054C329.655 213.85 326.241 210.442 322.03 210.442Z" fill="#1A1A1A"/>
<path d="M322.03 210.442H235.837C231.626 210.442 228.212 213.85 228.212 218.054V239.236C228.212 243.44 231.626 246.849 235.837 246.849H322.03C326.241 246.849 329.655 243.44 329.655 239.236V218.054C329.655 213.85 326.241 210.442 322.03 210.442Z" stroke="#A4A4A4" stroke-width="0.5"/>
<path d="M250.423 240.56C257.015 240.56 262.358 235.226 262.358 228.645C262.358 222.065 257.015 216.73 250.423 216.73C243.832 216.73 238.489 222.065 238.489 228.645C238.489 235.226 243.832 240.56 250.423 240.56Z" fill="#EDF0F4"/>
<path d="M250.392 221.496L250.296 221.818V231.159L250.392 231.255L254.734 228.692L250.392 221.496Z" fill="#343434"/>
<path d="M250.392 221.496L246.047 228.692L250.392 231.255V226.72V221.496Z" fill="#7A7A7A"/>
<path d="M250.39 232.076L250.337 232.14V235.469L250.39 235.625L254.737 229.514L250.39 232.076Z" fill="#3C3C3B"/>
<path d="M250.392 235.625V232.076L246.047 229.514L250.392 235.625Z" fill="#7A7A7A"/>
<path d="M250.391 231.255L254.734 228.692L250.391 226.721V231.255Z" fill="#141414"/>
<path d="M246.047 228.692L250.392 231.255V226.721L246.047 228.692Z" fill="#393939"/>
<path d="M269.218 236.589V221.761H278.765V224.303H272.018V227.84H278.171V230.382H272.018V234.047H278.892V236.589H269.218ZM284.404 236.589V224.303H280.075V221.761H291.532V224.303H287.204V236.589H284.404ZM293.439 236.589V221.761H296.24V227.883H301.756V221.761H304.557V236.589H301.756V230.425H296.24V236.589H293.439Z" fill="#BFBFBF"/>
<path d="M322.03 258.102H235.837C231.626 258.102 228.212 261.51 228.212 265.714V286.896C228.212 291.1 231.626 294.508 235.837 294.508H322.03C326.241 294.508 329.655 291.1 329.655 286.896V265.714C329.655 261.51 326.241 258.102 322.03 258.102Z" fill="#1A1A1A"/>
<path d="M322.03 258.102H235.837C231.626 258.102 228.212 261.51 228.212 265.714V286.896C228.212 291.1 231.626 294.508 235.837 294.508H322.03C326.241 294.508 329.655 291.1 329.655 286.896V265.714C329.655 261.51 326.241 258.102 322.03 258.102Z" stroke="#DACABC" stroke-width="0.5"/>
<path d="M250.423 288.22C257.015 288.22 262.358 282.885 262.358 276.305C262.358 269.725 257.015 264.39 250.423 264.39C243.832 264.39 238.489 269.725 238.489 276.305C238.489 282.885 243.832 288.22 250.423 288.22Z" fill="#EDF0F4"/>
<path d="M250.392 269.156L250.296 269.478V278.819L250.392 278.914L254.734 276.351L250.392 269.156Z" fill="#343434"/>
<path d="M250.392 269.156L246.047 276.351L250.392 278.914V274.38V269.156Z" fill="#7A7A7A"/>
<path d="M250.39 279.735L250.337 279.8V283.128L250.39 283.284L254.737 277.173L250.39 279.735Z" fill="#3C3C3B"/>
<path d="M250.392 283.284V279.735L246.047 277.173L250.392 283.284Z" fill="#7A7A7A"/>
<path d="M250.391 278.914L254.734 276.351L250.391 274.38V278.914Z" fill="#141414"/>
<path d="M246.047 276.351L250.392 278.914V274.38L246.047 276.351Z" fill="#393939"/>
<path d="M274.301 284.545C273.156 284.545 272.144 284.34 271.267 283.931C270.39 283.521 269.704 282.935 269.209 282.172C268.714 281.41 268.467 280.492 268.467 279.419V278.826H271.225V279.419C271.225 280.308 271.501 280.98 272.053 281.431C272.604 281.869 273.353 282.088 274.301 282.088C275.263 282.088 275.978 281.897 276.444 281.516C276.924 281.135 277.166 280.647 277.166 280.054C277.166 279.645 277.045 279.313 276.805 279.059C276.578 278.804 276.239 278.599 275.787 278.444C275.348 278.275 274.811 278.12 274.174 277.978L273.686 277.872C272.668 277.646 271.79 277.364 271.055 277.025C270.334 276.672 269.774 276.214 269.379 275.648C268.997 275.083 268.806 274.35 268.806 273.445C268.806 272.541 269.018 271.772 269.443 271.137C269.88 270.487 270.489 269.993 271.267 269.654C272.059 269.3 272.986 269.124 274.047 269.124C275.108 269.124 276.048 269.308 276.869 269.675C277.703 270.028 278.354 270.565 278.821 271.285C279.301 271.99 279.542 272.88 279.542 273.954V274.589H276.784V273.954C276.784 273.388 276.67 272.937 276.444 272.598C276.232 272.245 275.921 271.99 275.511 271.836C275.1 271.666 274.612 271.581 274.047 271.581C273.198 271.581 272.568 271.744 272.159 272.069C271.762 272.38 271.565 272.81 271.565 273.361C271.565 273.727 271.656 274.039 271.84 274.293C272.038 274.547 272.328 274.759 272.71 274.928C273.092 275.098 273.58 275.246 274.174 275.373L274.662 275.479C275.723 275.705 276.642 275.994 277.42 276.347C278.212 276.701 278.827 277.167 279.266 277.745C279.704 278.324 279.924 279.065 279.924 279.969C279.924 280.874 279.691 281.671 279.224 282.363C278.77 283.041 278.121 283.577 277.272 283.973C276.436 284.354 275.447 284.545 274.301 284.545ZM284.972 284.248V271.963H280.644V269.421H292.101V271.963H287.773V284.248H284.972ZM294.008 284.248V269.421H300.459C301.393 269.421 302.206 269.584 302.899 269.908C303.591 270.232 304.13 270.692 304.512 271.285C304.894 271.878 305.083 272.577 305.083 273.382V273.636C305.083 274.526 304.872 275.246 304.448 275.797C304.024 276.347 303.5 276.75 302.878 277.004V277.385C303.443 277.413 303.882 277.612 304.193 277.978C304.504 278.332 304.66 278.804 304.66 279.398V284.248H301.86V279.8C301.86 279.461 301.767 279.186 301.584 278.974C301.414 278.762 301.124 278.656 300.714 278.656H296.81V284.248H294.008ZM296.81 276.114H300.162C300.827 276.114 301.342 275.938 301.711 275.585C302.093 275.218 302.284 274.738 302.284 274.144V273.933C302.284 273.34 302.1 272.867 301.732 272.513C301.364 272.147 300.841 271.963 300.162 271.963H296.81V276.114ZM307.414 284.248V269.421H310.215V275.309H310.597L315.413 269.421H318.999L312.803 276.729L319.211 284.248H315.519L310.597 278.233H310.215V284.248H307.414Z" fill="#BFBFBF"/>
<path d="M546.133 194.225H405.572C387.263 194.225 372.42 209.043 372.42 227.322C372.42 245.6 387.263 260.418 405.572 260.418H546.133C564.442 260.418 579.285 245.6 579.285 227.322C579.285 209.043 564.442 194.225 546.133 194.225Z" fill="#FF7300"/>
<path d="M411.31 235.561C410.164 235.561 409.152 235.356 408.276 234.947C407.398 234.538 406.712 233.951 406.218 233.189C405.722 232.426 405.475 231.509 405.475 230.435V229.842H408.233V230.435C408.233 231.325 408.509 231.996 409.061 232.447C409.612 232.886 410.361 233.104 411.31 233.104C412.271 233.104 412.986 232.914 413.453 232.532C413.933 232.151 414.174 231.664 414.174 231.071C414.174 230.662 414.053 230.329 413.813 230.075C413.586 229.821 413.247 229.616 412.795 229.461C412.356 229.291 411.819 229.136 411.182 228.995L410.694 228.889C409.676 228.663 408.798 228.381 408.063 228.042C407.342 227.688 406.782 227.23 406.387 226.665C406.005 226.1 405.814 225.366 405.814 224.462C405.814 223.558 406.027 222.788 406.451 222.153C406.889 221.503 407.497 221.009 408.276 220.67C409.067 220.317 409.994 220.141 411.055 220.141C412.116 220.141 413.056 220.325 413.877 220.691C414.711 221.045 415.362 221.581 415.829 222.301C416.309 223.007 416.55 223.897 416.55 224.97V225.606H413.792V224.97C413.792 224.405 413.678 223.954 413.453 223.615C413.24 223.261 412.929 223.007 412.519 222.852C412.108 222.683 411.62 222.598 411.055 222.598C410.206 222.598 409.576 222.761 409.167 223.085C408.77 223.396 408.573 223.826 408.573 224.377C408.573 224.744 408.664 225.055 408.848 225.309C409.046 225.563 409.336 225.775 409.718 225.945C410.1 226.114 410.588 226.262 411.182 226.389L411.67 226.495C412.731 226.722 413.65 227.01 414.428 227.364C415.22 227.717 415.835 228.183 416.274 228.762C416.712 229.34 416.932 230.082 416.932 230.986C416.932 231.89 416.699 232.687 416.232 233.38C415.778 234.057 415.129 234.594 414.28 234.989C413.445 235.371 412.455 235.561 411.31 235.561ZM423.9 235.561C422.854 235.561 421.927 235.343 421.121 234.905C420.329 234.453 419.706 233.824 419.254 233.019C418.815 232.2 418.596 231.24 418.596 230.139V229.884C418.596 228.783 418.815 227.83 419.254 227.025C419.693 226.205 420.308 225.578 421.1 225.14C421.892 224.688 422.812 224.462 423.858 224.462C424.891 224.462 425.789 224.695 426.553 225.161C427.316 225.612 427.91 226.248 428.335 227.067C428.759 227.872 428.971 228.811 428.971 229.884V230.795H421.312C421.34 231.515 421.609 232.102 422.118 232.553C422.627 233.005 423.249 233.231 423.985 233.231C424.735 233.231 425.286 233.068 425.64 232.744C425.994 232.42 426.262 232.06 426.447 231.664L428.632 232.808C428.434 233.174 428.144 233.577 427.762 234.015C427.395 234.439 426.899 234.805 426.277 235.116C425.655 235.413 424.862 235.561 423.9 235.561ZM421.333 228.804H426.256C426.199 228.197 425.952 227.709 425.513 227.343C425.089 226.976 424.53 226.792 423.837 226.792C423.115 226.792 422.543 226.976 422.118 227.343C421.694 227.709 421.433 228.197 421.333 228.804ZM431.35 235.265V224.758H433.981V226.135H434.363C434.533 225.769 434.851 225.422 435.318 225.097C435.785 224.758 436.493 224.589 437.44 224.589C438.26 224.589 438.975 224.78 439.582 225.161C440.206 225.528 440.686 226.044 441.025 226.707C441.365 227.357 441.534 228.12 441.534 228.995V235.265H438.861V229.207C438.861 228.416 438.663 227.823 438.267 227.427C437.885 227.032 437.333 226.834 436.612 226.834C435.793 226.834 435.156 227.11 434.703 227.66C434.25 228.197 434.024 228.952 434.024 229.927V235.265H431.35ZM448.669 235.561C447.833 235.561 447.048 235.356 446.313 234.947C445.592 234.523 445.011 233.909 444.574 233.104C444.135 232.299 443.916 231.325 443.916 230.181V229.842C443.916 228.698 444.135 227.724 444.574 226.919C445.011 226.114 445.592 225.506 446.313 225.097C447.035 224.674 447.82 224.462 448.669 224.462C449.305 224.462 449.835 224.54 450.26 224.695C450.697 224.837 451.051 225.019 451.321 225.246C451.589 225.472 451.794 225.712 451.936 225.966H452.318V220.437H454.991V235.265H452.36V233.994H451.978C451.737 234.39 451.363 234.75 450.854 235.074C450.358 235.398 449.63 235.561 448.669 235.561ZM449.475 233.231C450.294 233.231 450.981 232.97 451.533 232.447C452.084 231.911 452.36 231.134 452.36 230.117V229.906C452.36 228.889 452.084 228.12 451.533 227.597C450.994 227.061 450.309 226.792 449.475 226.792C448.654 226.792 447.968 227.061 447.417 227.597C446.865 228.12 446.589 228.889 446.589 229.906V230.117C446.589 231.134 446.865 231.911 447.417 232.447C447.968 232.97 448.654 233.231 449.475 233.231ZM463.256 235.265V220.437H469.706C470.64 220.437 471.454 220.6 472.146 220.924C472.84 221.249 473.377 221.708 473.759 222.301C474.141 222.894 474.332 223.593 474.332 224.398V224.653C474.332 225.542 474.119 226.262 473.695 226.813C473.271 227.364 472.748 227.766 472.125 228.02V228.402C472.691 228.43 473.13 228.628 473.441 228.995C473.752 229.348 473.907 229.821 473.907 230.414V235.265H471.107V230.816C471.107 230.478 471.015 230.202 470.831 229.99C470.661 229.779 470.372 229.673 469.961 229.673H466.057V235.265H463.256ZM466.057 227.131H469.409C470.075 227.131 470.591 226.955 470.958 226.601C471.34 226.235 471.531 225.754 471.531 225.161V224.949C471.531 224.356 471.348 223.883 470.979 223.53C470.612 223.163 470.088 222.979 469.409 222.979H466.057V227.131ZM481.543 235.561C480.495 235.561 479.57 235.343 478.763 234.905C477.97 234.453 477.348 233.824 476.896 233.019C476.457 232.2 476.239 231.24 476.239 230.139V229.884C476.239 228.783 476.457 227.83 476.896 227.025C477.334 226.205 477.949 225.578 478.742 225.14C479.534 224.688 480.453 224.462 481.5 224.462C482.532 224.462 483.431 224.695 484.195 225.161C484.959 225.612 485.553 226.248 485.977 227.067C486.401 227.872 486.614 228.811 486.614 229.884V230.795H478.954C478.982 231.515 479.251 232.102 479.761 232.553C480.27 233.005 480.892 233.231 481.628 233.231C482.377 233.231 482.929 233.068 483.283 232.744C483.635 232.42 483.904 232.06 484.089 231.664L486.274 232.808C486.075 233.174 485.786 233.577 485.404 234.015C485.036 234.439 484.541 234.805 483.919 235.116C483.296 235.413 482.504 235.561 481.543 235.561ZM478.975 228.804H483.898C483.841 228.197 483.593 227.709 483.155 227.343C482.731 226.976 482.171 226.792 481.479 226.792C480.758 226.792 480.185 226.976 479.761 227.343C479.336 227.709 479.074 228.197 478.975 228.804ZM496.885 239.501V234.057H496.503C496.361 234.297 496.157 234.538 495.888 234.778C495.619 235.004 495.266 235.187 494.827 235.328C494.403 235.483 493.872 235.561 493.236 235.561C492.387 235.561 491.602 235.356 490.881 234.947C490.159 234.523 489.58 233.909 489.141 233.104C488.702 232.299 488.483 231.325 488.483 230.181V229.842C488.483 228.698 488.702 227.724 489.141 226.919C489.58 226.114 490.159 225.506 490.881 225.097C491.617 224.674 492.402 224.462 493.236 224.462C494.197 224.462 494.927 224.625 495.421 224.949C495.93 225.26 496.306 225.62 496.546 226.029H496.928V224.758H499.559V239.501H496.885ZM494.042 233.231C494.876 233.231 495.563 232.97 496.1 232.447C496.652 231.911 496.928 231.134 496.928 230.117V229.906C496.928 228.889 496.652 228.12 496.1 227.597C495.549 227.061 494.863 226.792 494.042 226.792C493.221 226.792 492.536 227.061 491.984 227.597C491.432 228.12 491.157 228.889 491.157 229.906V230.117C491.157 231.134 491.432 231.911 491.984 232.447C492.536 232.97 493.221 233.231 494.042 233.231ZM506.532 235.434C505.713 235.434 504.991 235.25 504.368 234.883C503.761 234.502 503.286 233.979 502.947 233.316C502.607 232.653 502.437 231.89 502.437 231.028V224.758H505.111V230.816C505.111 231.607 505.302 232.2 505.684 232.596C506.08 232.992 506.638 233.189 507.36 233.189C508.181 233.189 508.817 232.92 509.269 232.384C509.723 231.833 509.948 231.071 509.948 230.096V224.758H512.622V235.265H509.991V233.888H509.609C509.439 234.241 509.121 234.587 508.654 234.926C508.187 235.265 507.48 235.434 506.532 235.434ZM520.392 235.561C519.345 235.561 518.419 235.343 517.613 234.905C516.82 234.453 516.198 233.824 515.746 233.019C515.307 232.2 515.088 231.24 515.088 230.139V229.884C515.088 228.783 515.307 227.83 515.746 227.025C516.183 226.205 516.799 225.578 517.592 225.14C518.383 224.688 519.302 224.462 520.35 224.462C521.381 224.462 522.28 224.695 523.044 225.161C523.808 225.612 524.402 226.248 524.826 227.067C525.251 227.872 525.463 228.811 525.463 229.884V230.795H517.804C517.832 231.515 518.101 232.102 518.61 232.553C519.119 233.005 519.741 233.231 520.477 233.231C521.226 233.231 521.778 233.068 522.132 232.744C522.485 232.42 522.754 232.06 522.938 231.664L525.124 232.808C524.925 233.174 524.636 233.577 524.254 234.015C523.885 234.439 523.39 234.805 522.768 235.116C522.145 235.413 521.354 235.561 520.392 235.561ZM517.825 228.804H522.747C522.69 228.197 522.442 227.709 522.005 227.343C521.58 226.976 521.021 226.792 520.328 226.792C519.607 226.792 519.034 226.976 518.61 227.343C518.186 227.709 517.923 228.197 517.825 228.804ZM532.213 235.561C530.84 235.561 529.716 235.265 528.839 234.672C527.963 234.079 527.432 233.231 527.248 232.13L529.709 231.494C529.808 231.988 529.97 232.377 530.197 232.659C530.437 232.941 530.727 233.147 531.067 233.274C531.421 233.386 531.803 233.443 532.213 233.443C532.835 233.443 533.295 233.337 533.592 233.125C533.889 232.899 534.037 232.624 534.037 232.299C534.037 231.975 533.895 231.727 533.613 231.558C533.33 231.374 532.877 231.226 532.255 231.113L531.661 231.007C530.925 230.865 530.254 230.675 529.645 230.435C529.037 230.181 528.549 229.835 528.181 229.397C527.814 228.959 527.63 228.395 527.63 227.703C527.63 226.658 528.012 225.86 528.775 225.309C529.539 224.744 530.543 224.462 531.788 224.462C532.962 224.462 533.938 224.723 534.716 225.246C535.495 225.769 536.004 226.453 536.244 227.3L533.761 228.063C533.649 227.527 533.415 227.145 533.061 226.919C532.722 226.693 532.297 226.58 531.788 226.58C531.279 226.58 530.891 226.671 530.621 226.855C530.352 227.025 530.218 227.265 530.218 227.576C530.218 227.915 530.36 228.169 530.643 228.338C530.925 228.493 531.307 228.614 531.788 228.698L532.382 228.804C533.174 228.946 533.889 229.136 534.525 229.376C535.176 229.602 535.686 229.933 536.053 230.372C536.435 230.795 536.626 231.374 536.626 232.109C536.626 233.21 536.223 234.064 535.416 234.672C534.625 235.265 533.556 235.561 532.213 235.561ZM542.792 235.265C542.1 235.265 541.533 235.053 541.095 234.629C540.67 234.191 540.458 233.613 540.458 232.892V226.961H537.827V224.758H540.458V221.496H543.131V224.758H546.017V226.961H543.131V232.426C543.131 232.85 543.33 233.062 543.725 233.062H545.762V235.265H542.792Z" fill="#FAFAFA"/>
</g>
<rect width="668" height="434" fill="url(#paint0_linear_70_572)"/>
</g>
<defs>
<linearGradient id="paint0_linear_70_572" x1="334" y1="16.902" x2="334" y2="475.437" gradientUnits="userSpaceOnUse">
<stop offset="0.430376" stop-color="#474645" stop-opacity="0.2"/>
<stop offset="0.847615" stop-color="#1F1F1F"/>
</linearGradient>
<clipPath id="clip0_70_572">
<rect width="668" height="400" rx="16" fill="white"/>
</clipPath>
<clipPath id="clip1_70_572">
<rect width="861.935" height="560" fill="white" transform="translate(-219 -101)"/>
</clipPath>
</defs>
</svg>
