<svg width="705" height="420" viewBox="0 0 705 420" fill="none" xmlns="http://www.w3.org/2000/svg">
<g clip-path="url(#clip0_66_314)">
<path d="M705 0H0V399.919H705V0Z" fill="#EAEAEA"/>
<path d="M704.429 0H0V42.2771H704.429V0Z" fill="#FAFAFA"/>
<path d="M71.5648 29.8682C70.9478 29.8682 70.4033 29.7578 69.9309 29.5369C69.4584 29.316 69.0893 28.9998 68.8225 28.5885C68.5557 28.1772 68.4226 27.682 68.4226 27.1031V26.7832H69.908V27.1031C69.908 27.583 70.0566 27.9448 70.3536 28.1886C70.6507 28.4247 71.0546 28.5428 71.5648 28.5428C72.083 28.5428 72.4675 28.44 72.7189 28.2343C72.9777 28.0286 73.1074 27.7658 73.1074 27.4459C73.1074 27.2249 73.0428 27.046 72.9131 26.9088C72.7914 26.7717 72.6086 26.6613 72.3647 26.5775C72.1287 26.4861 71.8391 26.4023 71.4963 26.3261L71.2335 26.269C70.685 26.1471 70.2125 25.9947 69.8166 25.8119C69.4281 25.6215 69.127 25.3739 68.9139 25.0692C68.7083 24.7645 68.6054 24.3684 68.6054 23.8809C68.6054 23.3934 68.7197 22.9782 68.9482 22.6354C69.1842 22.285 69.5121 22.0184 69.9309 21.8356C70.3576 21.6452 70.8564 21.5499 71.4277 21.5499C71.999 21.5499 72.5058 21.6489 72.9474 21.847C73.397 22.0374 73.7472 22.3269 73.9986 22.7154C74.2574 23.0963 74.3871 23.5762 74.3871 24.1551V24.4979H72.9017V24.1551C72.9017 23.8504 72.8406 23.6067 72.7189 23.4238C72.6046 23.2334 72.4372 23.0963 72.2161 23.0125C71.995 22.9211 71.7322 22.8754 71.4277 22.8754C70.9707 22.8754 70.6319 22.963 70.4108 23.1382C70.1977 23.3057 70.0908 23.5381 70.0908 23.8352C70.0908 24.0333 70.1405 24.2008 70.2394 24.3379C70.3462 24.475 70.5022 24.5893 70.7079 24.6807C70.9135 24.7721 71.1763 24.8521 71.4963 24.9207L71.7591 24.9778C72.3304 25.0997 72.8257 25.2559 73.2445 25.4463C73.6713 25.6367 74.0026 25.8881 74.2386 26.2004C74.4745 26.5127 74.5928 26.9127 74.5928 27.4002C74.5928 27.8877 74.4671 28.3181 74.2157 28.6913C73.9718 29.057 73.6216 29.3465 73.1645 29.5597C72.7149 29.7654 72.1818 29.8682 71.5648 29.8682ZM77.9344 29.7083C77.5613 29.7083 77.2562 29.594 77.0203 29.3655C76.7918 29.1294 76.6775 28.817 76.6775 28.4285V25.2292H75.2607V24.0409H76.6775V22.2812H78.1172V24.0409H79.6712V25.2292H78.1172V28.1772C78.1172 28.4057 78.224 28.5199 78.4371 28.5199H79.5341V29.7083H77.9344ZM82.734 29.8682C82.3301 29.8682 81.9684 29.7997 81.6485 29.6626C81.3286 29.5179 81.0732 29.3122 80.8829 29.0456C80.7001 28.7713 80.6087 28.44 80.6087 28.0515C80.6087 27.663 80.7001 27.3392 80.8829 27.0802C81.0732 26.8136 81.3326 26.6156 81.6599 26.4861C81.9953 26.349 82.3758 26.2804 82.8026 26.2804H84.3565V25.9605C84.3565 25.6938 84.2725 25.4767 84.1051 25.3092C83.9378 25.1339 83.6709 25.0464 83.3053 25.0464C82.9471 25.0464 82.6809 25.1302 82.5055 25.2977C82.3301 25.4577 82.2158 25.6672 82.1627 25.9262L80.8372 25.4806C80.9286 25.1911 81.0732 24.9283 81.2714 24.6921C81.4771 24.4484 81.7473 24.2541 82.0827 24.1094C82.4255 23.957 82.8408 23.8809 83.3282 23.8809C84.0749 23.8809 84.665 24.0675 85.0992 24.4408C85.5334 24.814 85.7505 25.3549 85.7505 26.0633V28.1772C85.7505 28.4057 85.8574 28.5199 86.0705 28.5199H86.5275V29.7083H85.5677C85.286 29.7083 85.0535 29.6397 84.8707 29.5026C84.6879 29.3655 84.5965 29.1827 84.5965 28.9541V28.9427H84.3794C84.3491 29.0341 84.2805 29.156 84.1737 29.3084C84.0669 29.4531 83.8995 29.5826 83.6709 29.6968C83.4424 29.8111 83.1299 29.8682 82.734 29.8682ZM82.9854 28.7028C83.3893 28.7028 83.7167 28.5923 83.968 28.3714C84.2268 28.1429 84.3565 27.842 84.3565 27.4687V27.3545H82.9054C82.6386 27.3545 82.4295 27.4116 82.2769 27.5259C82.1244 27.6401 82.0484 27.8001 82.0484 28.0058C82.0484 28.2114 82.1284 28.379 82.2884 28.5085C82.4483 28.638 82.6809 28.7028 82.9854 28.7028ZM87.5799 29.7083V24.0409H88.9967V24.6807H89.2024C89.2864 24.4522 89.4235 24.2846 89.6137 24.178C89.812 24.0713 90.0405 24.018 90.2993 24.018H90.9849V25.2977H90.2765C89.9108 25.2977 89.6103 25.3967 89.3738 25.5948C89.1378 25.7852 89.0196 26.0823 89.0196 26.4861V29.7083H87.5799ZM92.1104 29.7083V21.7099H93.5501V26.1319H93.7558L95.6297 24.0409H97.5036L94.887 26.7832L97.595 29.7083H95.7439L93.7558 27.4573H93.5501V29.7083H92.1104ZM98.5599 29.7083V24.0409H99.9768V24.7836H100.182C100.274 24.5855 100.445 24.3989 100.697 24.2237C100.948 24.0409 101.329 23.9494 101.839 23.9494C102.281 23.9494 102.666 24.0523 102.993 24.2579C103.329 24.456 103.587 24.734 103.77 25.0921C103.953 25.4425 104.045 25.8538 104.045 26.3261V29.7083H102.605V26.4404C102.605 26.0138 102.499 25.6938 102.285 25.4806C102.079 25.2673 101.782 25.1606 101.394 25.1606C100.952 25.1606 100.609 25.3092 100.365 25.6062C100.122 25.8957 99.9996 26.3032 99.9996 26.8289V29.7083H98.5599ZM108.183 29.8682C107.62 29.8682 107.12 29.7502 106.686 29.514C106.26 29.2702 105.925 28.9313 105.681 28.4971C105.445 28.0553 105.327 27.5373 105.327 26.9431V26.806C105.327 26.2118 105.445 25.6977 105.681 25.2635C105.917 24.8217 106.249 24.4826 106.675 24.2465C107.102 24.0027 107.597 23.8809 108.16 23.8809C108.717 23.8809 109.2 24.0066 109.611 24.2579C110.023 24.5017 110.343 24.8445 110.571 25.2863C110.8 25.7205 110.914 26.2271 110.914 26.806V27.2973H106.789C106.805 27.6858 106.949 28.0019 107.223 28.2457C107.498 28.4895 107.833 28.6114 108.229 28.6114C108.633 28.6114 108.93 28.5238 109.12 28.3485C109.311 28.1733 109.455 27.9791 109.554 27.7658L110.731 28.3828C110.625 28.5809 110.468 28.798 110.263 29.0341C110.065 29.2626 109.798 29.4607 109.463 29.6283C109.128 29.7883 108.701 29.8682 108.183 29.8682ZM106.801 26.2233H109.451C109.421 25.8957 109.288 25.6329 109.052 25.4349C108.823 25.2368 108.522 25.1378 108.149 25.1378C107.76 25.1378 107.452 25.2368 107.223 25.4349C106.995 25.6329 106.854 25.8957 106.801 26.2233ZM114.177 29.7083C113.804 29.7083 113.499 29.594 113.263 29.3655C113.034 29.1294 112.92 28.817 112.92 28.4285V25.2292H111.503V24.0409H112.92V22.2812H114.36V24.0409H115.914V25.2292H114.36V28.1772C114.36 28.4057 114.466 28.5199 114.68 28.5199H115.776V29.7083H114.177ZM116.971 27.4459V26.1433H120.353V27.4459H116.971ZM124.657 29.8682C124.04 29.8682 123.495 29.7578 123.023 29.5369C122.55 29.316 122.181 28.9998 121.915 28.5885C121.648 28.1772 121.515 27.682 121.515 27.1031V26.7832H123V27.1031C123 27.583 123.149 27.9448 123.446 28.1886C123.743 28.4247 124.146 28.5428 124.657 28.5428C125.175 28.5428 125.56 28.44 125.811 28.2343C126.07 28.0286 126.199 27.7658 126.199 27.4459C126.199 27.2249 126.134 27.046 126.005 26.9088C125.883 26.7717 125.7 26.6613 125.457 26.5775C125.22 26.4861 124.931 26.4023 124.588 26.3261L124.326 26.269C123.777 26.1471 123.305 25.9947 122.909 25.8119C122.52 25.6215 122.219 25.3739 122.006 25.0692C121.8 24.7645 121.698 24.3684 121.698 23.8809C121.698 23.3934 121.812 22.9782 122.04 22.6354C122.276 22.285 122.604 22.0184 123.023 21.8356C123.449 21.6452 123.948 21.5499 124.52 21.5499C125.091 21.5499 125.597 21.6489 126.04 21.847C126.489 22.0374 126.839 22.3269 127.091 22.7154C127.35 23.0963 127.479 23.5762 127.479 24.1551V24.4979H125.994V24.1551C125.994 23.8504 125.933 23.6067 125.811 23.4238C125.697 23.2334 125.529 23.0963 125.308 23.0125C125.087 22.9211 124.824 22.8754 124.52 22.8754C124.063 22.8754 123.723 22.963 123.503 23.1382C123.289 23.3057 123.183 23.5381 123.183 23.8352C123.183 24.0333 123.232 24.2008 123.331 24.3379C123.438 24.475 123.594 24.5893 123.8 24.6807C124.006 24.7721 124.268 24.8521 124.588 24.9207L124.851 24.9778C125.422 25.0997 125.917 25.2559 126.337 25.4463C126.763 25.6367 127.094 25.8881 127.331 26.2004C127.567 26.5127 127.685 26.9127 127.685 27.4002C127.685 27.8877 127.559 28.3181 127.308 28.6913C127.064 29.057 126.714 29.3465 126.257 29.5597C125.807 29.7654 125.274 29.8682 124.657 29.8682ZM131.518 29.8682C130.969 29.8682 130.47 29.754 130.021 29.5255C129.579 29.2969 129.229 28.9656 128.97 28.5314C128.71 28.0972 128.581 27.5716 128.581 26.9545V26.7946C128.581 26.1776 128.71 25.652 128.97 25.2178C129.229 24.7836 129.579 24.4522 130.021 24.2237C130.47 23.9951 130.969 23.8809 131.518 23.8809C132.058 23.8809 132.523 23.9761 132.912 24.1665C133.3 24.357 133.612 24.6198 133.849 24.955C134.092 25.2825 134.252 25.6558 134.329 26.0747L132.935 26.3718C132.904 26.1433 132.835 25.9376 132.729 25.7548C132.622 25.572 132.47 25.4273 132.272 25.3206C132.081 25.2139 131.841 25.1606 131.552 25.1606C131.262 25.1606 131 25.2254 130.764 25.3549C130.535 25.4767 130.352 25.6634 130.215 25.9148C130.086 26.1585 130.021 26.4594 130.021 26.8174V26.9317C130.021 27.2897 130.086 27.5944 130.215 27.8458C130.352 28.0896 130.535 28.2762 130.764 28.4057C131 28.5275 131.262 28.5885 131.552 28.5885C131.986 28.5885 132.314 28.4781 132.535 28.2571C132.763 28.0286 132.908 27.7315 132.969 27.3659L134.363 27.6973C134.264 28.101 134.092 28.4704 133.849 28.8056C133.612 29.1331 133.3 29.3922 132.912 29.5826C132.523 29.773 132.058 29.8682 131.518 29.8682ZM137.31 29.8682C136.906 29.8682 136.544 29.7997 136.224 29.6626C135.904 29.5179 135.65 29.3122 135.459 29.0456C135.276 28.7713 135.185 28.44 135.185 28.0515C135.185 27.663 135.276 27.3392 135.459 27.0802C135.65 26.8136 135.908 26.6156 136.236 26.4861C136.571 26.349 136.952 26.2804 137.378 26.2804H138.932V25.9605C138.932 25.6938 138.849 25.4767 138.681 25.3092C138.514 25.1339 138.247 25.0464 137.881 25.0464C137.523 25.0464 137.257 25.1302 137.081 25.2977C136.906 25.4577 136.792 25.6672 136.738 25.9262L135.413 25.4806C135.504 25.1911 135.65 24.9283 135.847 24.6921C136.053 24.4484 136.324 24.2541 136.658 24.1094C137.001 23.957 137.417 23.8809 137.904 23.8809C138.651 23.8809 139.241 24.0675 139.675 24.4408C140.109 24.814 140.326 25.3549 140.326 26.0633V28.1772C140.326 28.4057 140.433 28.5199 140.646 28.5199H141.103V29.7083H140.144C139.862 29.7083 139.629 29.6397 139.446 29.5026C139.264 29.3655 139.172 29.1827 139.172 28.9541V28.9427H138.955C138.925 29.0341 138.856 29.156 138.749 29.3084C138.643 29.4531 138.475 29.5826 138.247 29.6968C138.018 29.8111 137.706 29.8682 137.31 29.8682ZM137.561 28.7028C137.965 28.7028 138.292 28.5923 138.544 28.3714C138.803 28.1429 138.932 27.842 138.932 27.4687V27.3545H137.481C137.215 27.3545 137.005 27.4116 136.853 27.5259C136.701 27.6401 136.624 27.8001 136.624 28.0058C136.624 28.2114 136.704 28.379 136.864 28.5085C137.024 28.638 137.257 28.7028 137.561 28.7028ZM142.68 29.7083V25.2292H141.24V24.0409H142.68V22.9896C142.68 22.6011 142.794 22.2926 143.023 22.0641C143.259 21.828 143.564 21.7099 143.937 21.7099H145.422V22.8982H144.44C144.227 22.8982 144.12 23.0125 144.12 23.241V24.0409H145.262V25.2292H144.12V29.7083H142.68ZM146.405 29.7083V25.2292H145.262V24.0409H146.405V22.9896C146.405 22.6011 146.519 22.2926 146.748 22.0641C146.984 21.828 147.289 21.7099 147.662 21.7099H149.147V22.8982H148.165C147.952 22.8982 147.845 23.0125 147.845 23.241V24.0409H149.33V25.2292H147.845V29.7083H146.405ZM152.954 29.8682C152.39 29.8682 151.883 29.754 151.434 29.5255C150.985 29.2969 150.631 28.9656 150.372 28.5314C150.112 28.0972 149.983 27.5754 149.983 26.966V26.7832C149.983 26.1737 150.112 25.652 150.372 25.2178C150.631 24.7836 150.985 24.4522 151.434 24.2237C151.883 23.9951 152.39 23.8809 152.954 23.8809C153.517 23.8809 154.024 23.9951 154.474 24.2237C154.923 24.4522 155.277 24.7836 155.536 25.2178C155.795 25.652 155.925 26.1737 155.925 26.7832V26.966C155.925 27.5754 155.795 28.0972 155.536 28.5314C155.277 28.9656 154.923 29.2969 154.474 29.5255C154.024 29.754 153.517 29.8682 152.954 29.8682ZM152.954 28.5885C153.396 28.5885 153.761 28.4476 154.051 28.1657C154.34 27.8762 154.485 27.4649 154.485 26.9317V26.8174C154.485 26.2842 154.34 25.8766 154.051 25.5948C153.769 25.3053 153.403 25.1606 152.954 25.1606C152.512 25.1606 152.146 25.3053 151.857 25.5948C151.567 25.8766 151.423 26.2842 151.423 26.8174V26.9317C151.423 27.4649 151.567 27.8762 151.857 28.1657C152.146 28.4476 152.512 28.5885 152.954 28.5885ZM157.254 29.7083V21.7099H158.693V29.7083H157.254ZM162.574 29.8682C162.124 29.8682 161.701 29.7578 161.305 29.5369C160.917 29.3084 160.604 28.977 160.369 28.5428C160.133 28.1086 160.014 27.583 160.014 26.966V26.7832C160.014 26.1661 160.133 25.6405 160.369 25.2063C160.604 24.7721 160.917 24.4446 161.305 24.2237C161.694 23.9951 162.117 23.8809 162.574 23.8809C162.917 23.8809 163.202 23.9228 163.431 24.0066C163.667 24.0827 163.858 24.1818 164.002 24.3037C164.147 24.4255 164.257 24.555 164.333 24.6921H164.539V21.7099H165.979V29.7083H164.562V29.0227H164.356C164.227 29.236 164.025 29.4302 163.751 29.6054C163.484 29.7807 163.092 29.8682 162.574 29.8682ZM163.008 28.6114C163.45 28.6114 163.819 28.4704 164.116 28.1886C164.413 27.8991 164.562 27.4802 164.562 26.9317V26.8174C164.562 26.269 164.413 25.8538 164.116 25.572C163.827 25.2825 163.458 25.1378 163.008 25.1378C162.566 25.1378 162.197 25.2825 161.9 25.572C161.603 25.8538 161.454 26.269 161.454 26.8174V26.9317C161.454 27.4802 161.603 27.8991 161.9 28.1886C162.197 28.4704 162.566 28.6114 163.008 28.6114Z" fill="#0C0C4F"/>
<path d="M74.3403 84.8103C73.3531 84.8103 72.4818 84.6337 71.726 84.2801C70.9707 83.9265 70.3794 83.4208 69.9526 82.7627C69.5264 82.1045 69.3127 81.3121 69.3127 80.386V79.8741H71.6894V80.386C71.6894 81.1539 71.9271 81.7326 72.4024 82.1228C72.8777 82.5005 73.5239 82.6896 74.3403 82.6896C75.1693 82.6896 75.7846 82.525 76.1868 82.1959C76.6016 81.8669 76.8084 81.4464 76.8084 80.9345C76.8084 80.5809 76.705 80.2946 76.4976 80.0752C76.3028 79.8559 76.0102 79.6793 75.62 79.5451C75.2424 79.3988 74.7791 79.2645 74.2306 79.1429L73.8101 79.0514C72.9326 78.8566 72.1773 78.6127 71.5431 78.3202C70.9216 78.0157 70.4405 77.6192 70.0989 77.1318C69.7698 76.6445 69.6053 76.0103 69.6053 75.2305C69.6053 74.4507 69.7881 73.7862 70.1537 73.2378C70.5319 72.6773 71.0558 72.2505 71.726 71.958C72.4087 71.6535 73.2068 71.501 74.1209 71.501C75.035 71.501 75.8457 71.6592 76.5524 71.9763C77.2717 72.2808 77.8322 72.7442 78.2344 73.3657C78.6491 73.9753 78.856 74.7432 78.856 75.6693V76.2177H76.4793V75.6693C76.4793 75.1819 76.3822 74.7917 76.1868 74.4992C76.004 74.1947 75.736 73.9753 75.3824 73.8411C75.0293 73.6948 74.6088 73.6217 74.1209 73.6217C73.3896 73.6217 72.8475 73.7617 72.4938 74.0422C72.1527 74.3101 71.9819 74.682 71.9819 75.1574C71.9819 75.4745 72.0613 75.7424 72.2196 75.9618C72.3904 76.1812 72.6401 76.364 72.9691 76.5102C73.2982 76.6565 73.7187 76.7845 74.2306 76.8942L74.6511 76.9856C75.5652 77.1804 76.3576 77.4306 77.0278 77.7351C77.7105 78.0396 78.2407 78.4419 78.6183 78.9418C78.9965 79.4416 79.185 80.0815 79.185 80.8614C79.185 81.6412 78.9839 82.3302 78.5817 82.9272C78.1921 83.5123 77.6311 83.9756 76.8998 84.3167C76.1811 84.6457 75.3275 84.8103 74.3403 84.8103ZM84.5319 84.5543C83.9344 84.5543 83.447 84.3715 83.0694 84.0059C82.7037 83.6282 82.5209 83.1283 82.5209 82.5067V77.3878H80.254V75.4865H82.5209V72.671H84.8245V75.4865H87.3108V77.3878H84.8245V82.1045C84.8245 82.4702 84.9947 82.653 85.3364 82.653H87.0914V84.5543H84.5319ZM92.211 84.8103C91.5654 84.8103 90.9861 84.7006 90.4742 84.4812C89.9623 84.2498 89.5544 83.9207 89.2493 83.494C88.9568 83.0552 88.8105 82.525 88.8105 81.9034C88.8105 81.2819 88.9568 80.7637 89.2493 80.3495C89.5544 79.9227 89.9686 79.6062 90.4925 79.3988C91.0289 79.1794 91.6385 79.0697 92.3207 79.0697H94.807V78.5578C94.807 78.1311 94.6733 77.7837 94.4048 77.5158C94.1369 77.2352 93.7101 77.0953 93.1251 77.0953C92.5526 77.0953 92.1258 77.2295 91.8453 77.4975C91.5654 77.7534 91.3826 78.0888 91.2969 78.503L89.1761 77.79C89.3224 77.3267 89.5544 76.9062 89.8709 76.5285C90.1999 76.1383 90.633 75.8275 91.1689 75.5962C91.7173 75.3522 92.3818 75.2305 93.1616 75.2305C94.3562 75.2305 95.3006 75.5293 95.9953 76.1263C96.6901 76.7233 97.0374 77.5889 97.0374 78.7224V82.1045C97.0374 82.4702 97.2082 82.653 97.5493 82.653H98.2806V84.5543H96.7449C96.2941 84.5543 95.9222 84.4446 95.6297 84.2253C95.3372 84.0059 95.1909 83.7134 95.1909 83.3477V83.3294H94.8436C94.795 83.4757 94.6853 83.6705 94.5145 83.9145C94.3442 84.1458 94.0757 84.3532 93.7101 84.536C93.3444 84.7189 92.8451 84.8103 92.211 84.8103ZM92.6132 82.9455C93.2593 82.9455 93.7832 82.769 94.1854 82.4153C94.6002 82.0497 94.807 81.5681 94.807 80.9711V80.7882H92.4852C92.059 80.7882 91.7236 80.8796 91.4797 81.0625C91.2363 81.2453 91.114 81.5012 91.114 81.8303C91.114 82.1594 91.242 82.4273 91.498 82.6347C91.7539 82.8421 92.1258 82.9455 92.6132 82.9455ZM99.9648 84.5543V75.4865H102.232V76.5102H102.561C102.695 76.1446 102.915 75.8767 103.219 75.7058C103.536 75.535 103.902 75.4499 104.316 75.4499H105.413V77.4975H104.279C103.694 77.4975 103.213 77.6557 102.835 77.9728C102.457 78.2773 102.268 78.7526 102.268 79.3988V84.5543H99.9648ZM107.214 84.5543V71.7569H109.517V78.8321H109.846L112.844 75.4865H115.843L111.656 79.8741L115.989 84.5543H113.027L109.846 80.9528H109.517V84.5543H107.214ZM117.533 84.5543V75.4865H119.8V76.6748H120.129C120.275 76.3577 120.549 76.0595 120.951 75.779C121.354 75.4865 121.963 75.3402 122.78 75.3402C123.487 75.3402 124.102 75.5047 124.626 75.8338C125.163 76.1509 125.577 76.5954 125.869 77.1684C126.162 77.7289 126.308 78.387 126.308 79.1429V84.5543H124.005V79.3257C124.005 78.643 123.834 78.1311 123.493 77.79C123.164 77.4489 122.688 77.2781 122.067 77.2781C121.36 77.2781 120.811 77.5158 120.421 77.9911C120.032 78.4544 119.836 79.1063 119.836 79.9473V84.5543H117.533ZM132.93 84.8103C132.028 84.8103 131.23 84.6212 130.535 84.2435C129.852 83.8533 129.317 83.3112 128.926 82.6164C128.549 81.9097 128.36 81.0807 128.36 80.1301V79.9107C128.36 78.96 128.549 78.1373 128.926 77.4426C129.304 76.7359 129.834 76.1932 130.517 75.8155C131.2 75.4253 131.991 75.2305 132.894 75.2305C133.783 75.2305 134.557 75.4316 135.215 75.8338C135.874 76.224 136.385 76.7725 136.751 77.4792C137.117 78.1739 137.3 78.9846 137.3 79.9107V80.6968H130.7C130.724 81.3184 130.956 81.824 131.394 82.2142C131.833 82.6044 132.37 82.7993 133.003 82.7993C133.649 82.7993 134.125 82.6593 134.429 82.3788C134.734 82.0983 134.966 81.7875 135.124 81.4464L137.007 82.4336C136.836 82.7507 136.587 83.0981 136.257 83.4757C135.94 83.8413 135.514 84.1584 134.978 84.4264C134.441 84.6823 133.759 84.8103 132.93 84.8103ZM130.718 78.9783H134.959C134.911 78.4544 134.697 78.0339 134.32 77.7169C133.954 77.3998 133.472 77.2415 132.875 77.2415C132.254 77.2415 131.76 77.3998 131.394 77.7169C131.029 78.0339 130.803 78.4544 130.718 78.9783ZM142.52 84.5543C141.923 84.5543 141.435 84.3715 141.058 84.0059C140.692 83.6282 140.509 83.1283 140.509 82.5067V77.3878H138.242V75.4865H140.509V72.671H142.813V75.4865H145.299V77.3878H142.813V82.1045C142.813 82.4702 142.983 82.653 143.325 82.653H145.08V84.5543H142.52ZM146.99 80.9345V78.8503H152.402V80.9345H146.99ZM159.178 84.8103C158.3 84.8103 157.502 84.6275 156.783 84.2618C156.076 83.8962 155.515 83.366 155.101 82.6713C154.687 81.9766 154.479 81.1356 154.479 80.1484V79.8924C154.479 78.9052 154.687 78.0642 155.101 77.3695C155.515 76.6748 156.076 76.1446 156.783 75.779C157.502 75.4133 158.3 75.2305 159.178 75.2305C160.044 75.2305 160.787 75.383 161.408 75.6876C162.03 75.9921 162.53 76.4126 162.907 76.949C163.298 77.4729 163.554 78.0705 163.675 78.7407L161.445 79.216C161.396 78.8503 161.287 78.5213 161.116 78.2288C160.945 77.9362 160.702 77.7049 160.385 77.534C160.08 77.3632 159.696 77.2781 159.233 77.2781C158.769 77.2781 158.349 77.3815 157.971 77.5889C157.606 77.7837 157.313 78.0825 157.094 78.4847C156.886 78.8749 156.783 79.356 156.783 79.929V80.1118C156.783 80.6848 156.886 81.1722 157.094 81.5744C157.313 81.9646 157.606 82.2628 157.971 82.4702C158.349 82.665 158.769 82.7627 159.233 82.7627C159.928 82.7627 160.451 82.5862 160.805 82.2325C161.171 81.8669 161.402 81.3915 161.5 80.8065L163.73 81.3367C163.572 81.9829 163.298 82.5736 162.907 83.1101C162.53 83.6339 162.03 84.0487 161.408 84.3532C160.787 84.6577 160.044 84.8103 159.178 84.8103ZM166.618 88.2107V86.1997H171.554C171.895 86.1997 172.066 86.0169 172.066 85.6512V83.366H171.737C171.639 83.5734 171.487 83.7802 171.28 83.9876C171.072 84.195 170.792 84.3652 170.439 84.4995C170.085 84.6337 169.634 84.7006 169.086 84.7006C168.379 84.7006 167.757 84.5423 167.221 84.2253C166.697 83.8962 166.289 83.4454 165.996 82.8724C165.703 82.2994 165.557 81.6412 165.557 80.8979V75.4865H167.861V80.7151C167.861 81.3978 168.025 81.9097 168.354 82.2508C168.695 82.5919 169.177 82.7627 169.799 82.7627C170.505 82.7627 171.054 82.5313 171.444 82.068C171.834 81.5926 172.029 80.9345 172.029 80.0935V75.4865H174.333V86.1631C174.333 86.7847 174.15 87.2784 173.784 87.644C173.419 88.0216 172.931 88.2107 172.322 88.2107H166.618ZM176.896 84.5543V71.7569H179.2V84.5543H176.896ZM186.067 84.8103C185.165 84.8103 184.354 84.6275 183.635 84.2618C182.916 83.8962 182.349 83.366 181.935 82.6713C181.52 81.9766 181.313 81.1419 181.313 80.1667V79.8741C181.313 78.8989 181.52 78.0642 181.935 77.3695C182.349 76.6748 182.916 76.1446 183.635 75.779C184.354 75.4133 185.165 75.2305 186.067 75.2305C186.968 75.2305 187.779 75.4133 188.498 75.779C189.217 76.1446 189.784 76.6748 190.199 77.3695C190.613 78.0642 190.82 78.8989 190.82 79.8741V80.1667C190.82 81.1419 190.613 81.9766 190.199 82.6713C189.784 83.366 189.217 83.8962 188.498 84.2618C187.779 84.6275 186.968 84.8103 186.067 84.8103ZM186.067 82.7627C186.774 82.7627 187.359 82.537 187.822 82.0863C188.285 81.6229 188.517 80.9648 188.517 80.1118V79.929C188.517 79.076 188.285 78.4236 187.822 77.9728C187.371 77.5095 186.786 77.2781 186.067 77.2781C185.36 77.2781 184.774 77.5095 184.312 77.9728C183.848 78.4236 183.617 79.076 183.617 79.929V80.1118C183.617 80.9648 183.848 81.6229 184.312 82.0863C184.774 82.537 185.36 82.7627 186.067 82.7627ZM192.946 88.2107V75.4865H195.213V76.5834H195.542C195.749 76.2297 196.072 75.9189 196.511 75.651C196.95 75.3705 197.578 75.2305 198.394 75.2305C199.125 75.2305 199.802 75.4133 200.423 75.779C201.045 76.1326 201.545 76.6565 201.922 77.3512C202.301 78.0459 202.489 78.8869 202.489 79.8741V80.1667C202.489 81.1539 202.301 81.9948 201.922 82.6896C201.545 83.3843 201.045 83.9145 200.423 84.2801C199.802 84.6337 199.125 84.8103 198.394 84.8103C197.846 84.8103 197.383 84.7434 197.005 84.6092C196.639 84.4875 196.341 84.3287 196.109 84.1338C195.889 83.9265 195.713 83.7196 195.579 83.5123H195.25V88.2107H192.946ZM197.699 82.7993C198.419 82.7993 199.01 82.5736 199.473 82.1228C199.948 81.6595 200.186 80.9893 200.186 80.1118V79.929C200.186 79.0515 199.948 78.387 199.473 77.9362C198.997 77.4729 198.407 77.2415 197.699 77.2415C196.993 77.2415 196.401 77.4729 195.926 77.9362C195.451 78.387 195.213 79.0515 195.213 79.929V80.1118C195.213 80.9893 195.451 81.6595 195.926 82.1228C196.401 82.5736 196.993 82.7993 197.699 82.7993ZM208.736 84.8103C207.834 84.8103 207.036 84.6212 206.342 84.2435C205.659 83.8533 205.122 83.3112 204.733 82.6164C204.355 81.9097 204.166 81.0807 204.166 80.1301V79.9107C204.166 78.96 204.355 78.1373 204.733 77.4426C205.11 76.7359 205.641 76.1932 206.323 75.8155C207.005 75.4253 207.798 75.2305 208.7 75.2305C209.589 75.2305 210.364 75.4316 211.022 75.8338C211.68 76.224 212.192 76.7725 212.557 77.4792C212.923 78.1739 213.106 78.9846 213.106 79.9107V80.6968H206.506C206.53 81.3184 206.762 81.824 207.201 82.2142C207.64 82.6044 208.175 82.7993 208.81 82.7993C209.455 82.7993 209.931 82.6593 210.236 82.3788C210.54 82.0983 210.772 81.7875 210.93 81.4464L212.813 82.4336C212.643 82.7507 212.393 83.0981 212.064 83.4757C211.747 83.8413 211.32 84.1584 210.784 84.4264C210.248 84.6823 209.565 84.8103 208.736 84.8103ZM206.524 78.9783H210.766C210.717 78.4544 210.504 78.0339 210.126 77.7169C209.76 77.3998 209.279 77.2415 208.682 77.2415C208.06 77.2415 207.566 77.3998 207.201 77.7169C206.835 78.0339 206.609 78.4544 206.524 78.9783ZM218.812 84.8103C218.093 84.8103 217.417 84.6337 216.783 84.2801C216.161 83.9145 215.662 83.3843 215.284 82.6896C214.906 81.9948 214.717 81.1539 214.717 80.1667V79.8741C214.717 78.8869 214.906 78.0459 215.284 77.3512C215.662 76.6565 216.161 76.1326 216.783 75.779C217.404 75.4133 218.081 75.2305 218.812 75.2305C219.361 75.2305 219.818 75.2973 220.183 75.4316C220.562 75.5533 220.866 75.7121 221.097 75.9069C221.329 76.1018 221.506 76.3091 221.628 76.5285H221.957V71.7569H224.26V84.5543H221.993V83.4574H221.664C221.457 83.7985 221.134 84.1093 220.695 84.3898C220.269 84.6703 219.641 84.8103 218.812 84.8103ZM219.507 82.7993C220.214 82.7993 220.805 82.5736 221.28 82.1228C221.756 81.6595 221.993 80.9893 221.993 80.1118V79.929C221.993 79.0515 221.756 78.387 221.28 77.9362C220.817 77.4729 220.226 77.2415 219.507 77.2415C218.8 77.2415 218.209 77.4729 217.734 77.9362C217.258 78.387 217.021 79.0515 217.021 79.929V80.1118C217.021 80.9893 217.258 81.6595 217.734 82.1228C218.209 82.5736 218.8 82.7993 219.507 82.7993ZM226.815 84.5543V75.4865H229.118V84.5543H226.815ZM227.966 74.4261C227.552 74.4261 227.198 74.2918 226.906 74.0239C226.625 73.7559 226.485 73.4023 226.485 72.9635C226.485 72.5248 226.625 72.1711 226.906 71.9032C227.198 71.6352 227.552 71.501 227.966 71.501C228.393 71.501 228.746 71.6352 229.027 71.9032C229.307 72.1711 229.447 72.5248 229.447 72.9635C229.447 73.4023 229.307 73.7559 229.027 74.0239C228.746 74.2918 228.393 74.4261 227.966 74.4261ZM234.486 84.8103C233.84 84.8103 233.261 84.7006 232.749 84.4812C232.237 84.2498 231.829 83.9207 231.524 83.494C231.232 83.0552 231.086 82.525 231.086 81.9034C231.086 81.2819 231.232 80.7637 231.524 80.3495C231.829 79.9227 232.243 79.6062 232.768 79.3988C233.304 79.1794 233.913 79.0697 234.596 79.0697H237.082V78.5578C237.082 78.1311 236.948 77.7837 236.68 77.5158C236.411 77.2352 235.985 77.0953 235.4 77.0953C234.827 77.0953 234.4 77.2295 234.12 77.4975C233.84 77.7534 233.657 78.0888 233.572 78.503L231.451 77.79C231.598 77.3267 231.829 76.9062 232.146 76.5285C232.475 76.1383 232.908 75.8275 233.444 75.5962C233.993 75.3522 234.656 75.2305 235.437 75.2305C236.631 75.2305 237.576 75.5293 238.271 76.1263C238.965 76.7233 239.313 77.5889 239.313 78.7224V82.1045C239.313 82.4702 239.483 82.653 239.824 82.653H240.556V84.5543H239.02C238.569 84.5543 238.197 84.4446 237.905 84.2253C237.612 84.0059 237.466 83.7134 237.466 83.3477V83.3294H237.119C237.07 83.4757 236.96 83.6705 236.79 83.9145C236.619 84.1458 236.351 84.3532 235.985 84.536C235.62 84.7189 235.12 84.8103 234.486 84.8103ZM234.888 82.9455C235.534 82.9455 236.058 82.769 236.461 82.4153C236.875 82.0497 237.082 81.5681 237.082 80.9711V80.7882H234.76C234.334 80.7882 233.998 80.8796 233.755 81.0625C233.511 81.2453 233.389 81.5012 233.389 81.8303C233.389 82.1594 233.517 82.4273 233.773 82.6347C234.029 82.8421 234.4 82.9455 234.888 82.9455Z" fill="#0C0C4F"/>
<path d="M627.302 103.408H77.6986C72.6502 103.408 68.5576 107.5 68.5576 112.549V343.359C68.5576 348.407 72.6502 352.5 77.6986 352.5H627.302C632.35 352.5 636.443 348.407 636.443 343.359V112.549C636.443 107.5 632.35 103.408 627.302 103.408Z" fill="#FAFAFA"/>
<path d="M361.641 117.405H89.6961C86.0675 117.405 83.126 120.346 83.126 123.975V135.401C83.126 139.03 86.0675 141.971 89.6961 141.971H361.641C365.27 141.971 368.211 139.03 368.211 135.401V123.975C368.211 120.346 365.27 117.405 361.641 117.405Z" fill="#EAEAEA"/>
<path d="M361.641 117.405H89.6961C86.0675 117.405 83.126 120.346 83.126 123.975V135.401C83.126 139.03 86.0675 141.971 89.6961 141.971H361.641C365.27 141.971 368.211 139.03 368.211 135.401V123.975C368.211 120.346 365.27 117.405 361.641 117.405Z" stroke="#D4D4D4" stroke-linecap="round" stroke-linejoin="round"/>
<path d="M106.55 133.973L104.482 131.905M104.482 131.905C104.836 131.552 105.116 131.132 105.308 130.67C105.499 130.207 105.598 129.712 105.598 129.212C105.598 128.712 105.499 128.216 105.308 127.754C105.116 127.292 104.836 126.873 104.482 126.518C104.129 126.165 103.709 125.884 103.247 125.693C102.784 125.501 102.289 125.403 101.789 125.403C101.289 125.403 100.793 125.501 100.332 125.693C99.8696 125.884 99.4496 126.165 99.096 126.518C98.3813 127.233 97.9802 128.201 97.9802 129.212C97.9802 130.222 98.3813 131.191 99.096 131.905C99.8101 132.619 100.779 133.021 101.789 133.021C102.799 133.021 103.768 132.619 104.482 131.905Z" stroke="#7A7A7A" stroke-width="1.5" stroke-linecap="round" stroke-linejoin="round"/>
<path d="M115.41 133.244C114.946 133.244 114.532 133.162 114.166 132.997C113.801 132.833 113.511 132.586 113.298 132.257C113.091 131.921 112.987 131.504 112.987 131.004V130.812H113.746V131.004C113.746 131.535 113.901 131.93 114.212 132.193C114.523 132.449 114.922 132.577 115.41 132.577C115.91 132.577 116.29 132.464 116.552 132.238C116.815 132.013 116.945 131.729 116.945 131.388C116.945 131.151 116.884 130.961 116.763 130.822C116.647 130.682 116.482 130.568 116.269 130.483C116.056 130.392 115.806 130.312 115.519 130.246L115.044 130.127C114.672 130.029 114.343 129.91 114.057 129.77C113.771 129.63 113.545 129.448 113.38 129.222C113.222 128.99 113.143 128.695 113.143 128.335C113.143 127.976 113.231 127.665 113.408 127.403C113.591 127.141 113.844 126.939 114.166 126.799C114.496 126.66 114.873 126.589 115.3 126.589C115.732 126.589 116.12 126.665 116.461 126.818C116.808 126.964 117.08 127.183 117.274 127.476C117.476 127.762 117.576 128.125 117.576 128.564V128.948H116.817V128.564C116.817 128.253 116.751 128.003 116.616 127.814C116.488 127.625 116.308 127.485 116.077 127.394C115.851 127.302 115.592 127.257 115.3 127.257C114.879 127.257 114.541 127.351 114.285 127.54C114.029 127.723 113.901 127.985 113.901 128.326C113.901 128.552 113.956 128.735 114.066 128.874C114.176 129.014 114.331 129.13 114.532 129.222C114.733 129.307 114.974 129.384 115.254 129.45L115.73 129.569C116.102 129.649 116.433 129.758 116.726 129.898C117.025 130.033 117.262 130.218 117.439 130.456C117.616 130.687 117.704 130.992 117.704 131.37C117.704 131.748 117.61 132.077 117.421 132.357C117.232 132.638 116.964 132.857 116.616 133.015C116.275 133.168 115.873 133.244 115.41 133.244ZM120.961 133.244C120.51 133.244 120.114 133.15 119.773 132.961C119.431 132.766 119.166 132.494 118.978 132.147C118.788 131.8 118.694 131.397 118.694 130.94V130.831C118.694 130.367 118.788 129.962 118.978 129.615C119.166 129.268 119.428 129 119.764 128.81C120.098 128.616 120.482 128.518 120.915 128.518C121.336 128.518 121.707 128.609 122.031 128.792C122.353 128.969 122.606 129.225 122.789 129.56C122.972 129.895 123.064 130.288 123.064 130.739V131.068H119.416C119.435 131.55 119.59 131.928 119.882 132.202C120.175 132.47 120.541 132.604 120.979 132.604C121.363 132.604 121.659 132.515 121.866 132.339C122.073 132.162 122.232 131.952 122.341 131.708L122.963 132.01C122.872 132.199 122.744 132.387 122.579 132.577C122.42 132.766 122.21 132.924 121.948 133.052C121.692 133.18 121.363 133.244 120.961 133.244ZM119.425 130.474H122.332C122.308 130.06 122.164 129.737 121.903 129.505C121.647 129.274 121.318 129.158 120.915 129.158C120.507 129.158 120.172 129.274 119.91 129.505C119.648 129.737 119.486 130.06 119.425 130.474ZM125.694 133.244C125.383 133.244 125.1 133.189 124.844 133.079C124.588 132.97 124.387 132.811 124.24 132.604C124.094 132.397 124.021 132.144 124.021 131.845C124.021 131.541 124.094 131.291 124.24 131.096C124.387 130.895 124.588 130.746 124.844 130.648C125.1 130.544 125.386 130.492 125.703 130.492H127.211V130.163C127.211 129.846 127.117 129.597 126.928 129.414C126.745 129.231 126.471 129.14 126.105 129.14C125.746 129.14 125.465 129.228 125.264 129.405C125.063 129.575 124.926 129.807 124.853 130.099L124.176 129.88C124.25 129.63 124.366 129.405 124.524 129.204C124.683 128.996 124.893 128.832 125.155 128.71C125.423 128.582 125.743 128.518 126.114 128.518C126.687 128.518 127.132 128.667 127.449 128.966C127.766 129.258 127.924 129.673 127.924 130.209V132.229C127.924 132.412 128.01 132.503 128.18 132.503H128.592V133.116H127.961C127.76 133.116 127.599 133.061 127.476 132.951C127.355 132.835 127.294 132.683 127.294 132.494V132.449H127.184C127.117 132.565 127.026 132.686 126.91 132.814C126.8 132.936 126.648 133.036 126.453 133.116C126.258 133.201 126.005 133.244 125.694 133.244ZM125.776 132.622C126.203 132.622 126.547 132.497 126.809 132.248C127.078 131.992 127.211 131.635 127.211 131.178V131.077H125.73C125.444 131.077 125.207 131.141 125.017 131.269C124.835 131.391 124.743 131.577 124.743 131.827C124.743 132.077 124.838 132.272 125.027 132.412C125.222 132.552 125.472 132.622 125.776 132.622ZM129.581 133.116V128.646H130.284V129.194H130.412C130.492 129 130.613 128.856 130.778 128.765C130.943 128.673 131.159 128.628 131.427 128.628H131.957V129.286H131.381C131.058 129.286 130.796 129.377 130.595 129.56C130.4 129.737 130.303 130.014 130.303 130.392V133.116H129.581ZM134.922 133.244C134.49 133.244 134.1 133.152 133.752 132.97C133.411 132.781 133.14 132.513 132.939 132.165C132.744 131.818 132.646 131.407 132.646 130.931V130.831C132.646 130.349 132.744 129.938 132.939 129.597C133.14 129.249 133.411 128.984 133.752 128.801C134.1 128.612 134.49 128.518 134.922 128.518C135.349 128.518 135.712 128.597 136.01 128.756C136.315 128.914 136.553 129.124 136.723 129.386C136.9 129.649 137.013 129.929 137.061 130.227L136.357 130.374C136.327 130.154 136.254 129.953 136.138 129.77C136.028 129.587 135.873 129.441 135.672 129.332C135.471 129.222 135.224 129.167 134.931 129.167C134.633 129.167 134.365 129.234 134.127 129.368C133.896 129.502 133.71 129.694 133.569 129.944C133.436 130.194 133.368 130.492 133.368 130.84V130.922C133.368 131.269 133.436 131.568 133.569 131.818C133.71 132.068 133.896 132.26 134.127 132.394C134.365 132.528 134.633 132.595 134.931 132.595C135.376 132.595 135.715 132.479 135.946 132.248C136.184 132.016 136.33 131.729 136.385 131.388L137.098 131.544C137.031 131.836 136.909 132.113 136.732 132.375C136.556 132.638 136.315 132.848 136.01 133.006C135.712 133.164 135.349 133.244 134.922 133.244ZM138.329 133.116V126.717H139.051V129.359H139.179C139.24 129.225 139.332 129.1 139.453 128.984C139.581 128.862 139.743 128.762 139.938 128.683C140.139 128.603 140.392 128.564 140.697 128.564C141.032 128.564 141.33 128.637 141.592 128.783C141.86 128.923 142.074 129.13 142.232 129.405C142.39 129.673 142.47 130.008 142.47 130.41V133.116H141.748V130.465C141.748 130.02 141.635 129.697 141.41 129.496C141.19 129.295 140.891 129.194 140.514 129.194C140.081 129.194 139.728 129.334 139.453 129.615C139.185 129.895 139.051 130.312 139.051 130.867V133.116H138.329ZM146.255 133.116V126.717H147.023V129.505H147.151L149.857 126.717H150.881L147.764 129.88L150.99 133.116H149.939L147.151 130.273H147.023V133.116H146.255ZM153.722 133.244C153.271 133.244 152.875 133.15 152.534 132.961C152.193 132.766 151.927 132.494 151.738 132.147C151.55 131.8 151.455 131.397 151.455 130.94V130.831C151.455 130.367 151.55 129.962 151.738 129.615C151.927 129.268 152.19 129 152.524 128.81C152.86 128.616 153.244 128.518 153.676 128.518C154.097 128.518 154.469 128.609 154.791 128.792C155.115 128.969 155.367 129.225 155.55 129.56C155.733 129.895 155.824 130.288 155.824 130.739V131.068H152.177C152.195 131.55 152.351 131.928 152.643 132.202C152.936 132.47 153.301 132.604 153.74 132.604C154.124 132.604 154.42 132.515 154.627 132.339C154.834 132.162 154.993 131.952 155.102 131.708L155.724 132.01C155.632 132.199 155.504 132.387 155.34 132.577C155.182 132.766 154.971 132.924 154.709 133.052C154.453 133.18 154.124 133.244 153.722 133.244ZM152.186 130.474H155.093C155.069 130.06 154.926 129.737 154.663 129.505C154.407 129.274 154.078 129.158 153.676 129.158C153.268 129.158 152.933 129.274 152.671 129.505C152.409 129.737 152.247 130.06 152.186 130.474ZM157.623 134.944V134.304H160.183C160.359 134.304 160.448 134.213 160.448 134.03V132.403H160.32C160.259 132.531 160.165 132.659 160.037 132.787C159.915 132.909 159.753 133.009 159.552 133.088C159.351 133.162 159.098 133.198 158.793 133.198C158.471 133.198 158.172 133.128 157.898 132.988C157.63 132.848 157.416 132.641 157.258 132.366C157.105 132.092 157.029 131.757 157.029 131.361V128.646H157.751V131.306C157.751 131.745 157.861 132.065 158.08 132.266C158.306 132.467 158.608 132.567 158.985 132.567C159.412 132.567 159.762 132.427 160.037 132.147C160.311 131.866 160.448 131.449 160.448 130.895V128.646H161.17V134.158C161.17 134.402 161.1 134.594 160.96 134.734C160.826 134.874 160.628 134.944 160.366 134.944H157.623ZM163.303 133.116L162.407 128.646H163.138L163.879 132.631H164.007L164.985 128.646H166.182L167.16 132.631H167.288L168.029 128.646H168.76L167.864 133.116H166.63L165.643 129.13H165.524L164.537 133.116H163.303ZM171.978 133.244C171.527 133.244 171.128 133.15 170.78 132.961C170.439 132.771 170.171 132.506 169.976 132.165C169.787 131.818 169.692 131.409 169.692 130.94V130.822C169.692 130.358 169.787 129.953 169.976 129.606C170.171 129.258 170.439 128.99 170.78 128.801C171.128 128.612 171.527 128.518 171.978 128.518C172.428 128.518 172.825 128.612 173.166 128.801C173.513 128.99 173.781 129.258 173.97 129.606C174.165 129.953 174.263 130.358 174.263 130.822V130.94C174.263 131.409 174.165 131.818 173.97 132.165C173.781 132.506 173.513 132.771 173.166 132.961C172.825 133.15 172.428 133.244 171.978 133.244ZM171.978 132.595C172.453 132.595 172.831 132.446 173.111 132.147C173.397 131.842 173.541 131.434 173.541 130.922V130.84C173.541 130.328 173.397 129.923 173.111 129.624C172.831 129.32 172.453 129.167 171.978 129.167C171.509 129.167 171.13 129.32 170.844 129.624C170.558 129.923 170.415 130.328 170.415 130.84V130.922C170.415 131.434 170.558 131.842 170.844 132.147C171.13 132.446 171.509 132.595 171.978 132.595ZM175.563 133.116V128.646H176.266V129.194H176.394C176.473 129 176.596 128.856 176.76 128.765C176.925 128.673 177.141 128.628 177.409 128.628H177.939V129.286H177.363C177.04 129.286 176.778 129.377 176.577 129.56C176.382 129.737 176.285 130.014 176.285 130.392V133.116H175.563ZM180.74 133.244C180.356 133.244 180.002 133.152 179.679 132.97C179.356 132.787 179.1 132.522 178.912 132.174C178.723 131.827 178.628 131.416 178.628 130.94V130.822C178.628 130.346 178.723 129.938 178.912 129.597C179.1 129.249 179.353 128.984 179.67 128.801C179.993 128.612 180.35 128.518 180.74 128.518C181.051 128.518 181.312 128.561 181.526 128.646C181.745 128.725 181.922 128.829 182.056 128.957C182.19 129.078 182.294 129.21 182.367 129.35H182.495V126.717H183.217V133.116H182.513V132.375H182.385C182.263 132.601 182.074 132.802 181.818 132.979C181.563 133.155 181.203 133.244 180.74 133.244ZM180.932 132.604C181.395 132.604 181.769 132.458 182.056 132.165C182.349 131.866 182.495 131.452 182.495 130.922V130.84C182.495 130.31 182.349 129.898 182.056 129.606C181.769 129.307 181.395 129.158 180.932 129.158C180.475 129.158 180.097 129.307 179.798 129.606C179.506 129.898 179.36 130.31 179.36 130.84V130.922C179.36 131.452 179.506 131.866 179.798 132.165C180.097 132.458 180.475 132.604 180.932 132.604Z" fill="#7A7A7A"/>
<path d="M82.269 165.109C82.269 160.061 86.3614 155.968 91.41 155.968H613.59C618.64 155.968 622.731 160.061 622.731 165.109V181.106H82.269V165.109Z" fill="#EAEAEA"/>
<path d="M101.282 171.965V165.566H102.772L105.003 171.481H105.121V165.566H105.88V171.965H104.39L102.169 166.042H102.041V171.965H101.282ZM108.751 172.093C108.44 172.093 108.157 172.038 107.901 171.929C107.645 171.819 107.444 171.661 107.298 171.453C107.151 171.246 107.078 170.993 107.078 170.695C107.078 170.39 107.151 170.14 107.298 169.945C107.444 169.744 107.645 169.595 107.901 169.497C108.157 169.394 108.443 169.342 108.76 169.342H110.268V169.013C110.268 168.695 110.174 168.446 109.985 168.263C109.802 168.08 109.528 167.989 109.162 167.989C108.803 167.989 108.522 168.077 108.321 168.254C108.12 168.425 107.983 168.656 107.91 168.949L107.234 168.729C107.307 168.48 107.423 168.254 107.581 168.053C107.739 167.845 107.949 167.681 108.212 167.559C108.48 167.431 108.8 167.367 109.171 167.367C109.745 167.367 110.189 167.516 110.506 167.815C110.823 168.108 110.981 168.522 110.981 169.058V171.078C110.981 171.261 111.067 171.353 111.237 171.353H111.649V171.965H111.018C110.817 171.965 110.655 171.91 110.533 171.801C110.412 171.685 110.351 171.533 110.351 171.344V171.298H110.241C110.174 171.414 110.083 171.535 109.967 171.663C109.857 171.785 109.705 171.886 109.51 171.965C109.315 172.05 109.062 172.093 108.751 172.093ZM108.833 171.471C109.26 171.471 109.604 171.346 109.866 171.097C110.134 170.841 110.268 170.484 110.268 170.027V169.927H108.788C108.501 169.927 108.264 169.991 108.075 170.119C107.892 170.24 107.8 170.427 107.8 170.676C107.8 170.926 107.895 171.121 108.084 171.261C108.279 171.401 108.529 171.471 108.833 171.471ZM112.638 171.965V167.495H113.341V168.053H113.469C113.555 167.895 113.695 167.748 113.89 167.614C114.085 167.48 114.359 167.413 114.713 167.413C115.06 167.413 115.341 167.489 115.554 167.641C115.773 167.794 115.931 167.98 116.029 168.199H116.157C116.26 167.98 116.416 167.794 116.623 167.641C116.836 167.489 117.132 167.413 117.51 167.413C117.809 167.413 118.07 167.474 118.296 167.596C118.522 167.717 118.698 167.895 118.826 168.126C118.96 168.352 119.027 168.622 119.027 168.939V171.965H118.305V169.003C118.305 168.705 118.217 168.47 118.04 168.3C117.869 168.123 117.629 168.034 117.318 168.034C116.989 168.034 116.717 168.141 116.504 168.354C116.297 168.568 116.193 168.875 116.193 169.278V171.965H115.471V169.003C115.471 168.705 115.383 168.47 115.206 168.3C115.035 168.123 114.795 168.034 114.484 168.034C114.155 168.034 113.884 168.141 113.671 168.354C113.463 168.568 113.36 168.875 113.36 169.278V171.965H112.638ZM122.55 172.093C122.099 172.093 121.703 171.999 121.362 171.81C121.02 171.615 120.755 171.344 120.566 170.996C120.377 170.649 120.283 170.247 120.283 169.79V169.68C120.283 169.217 120.377 168.811 120.566 168.464C120.755 168.117 121.017 167.849 121.352 167.66C121.687 167.465 122.071 167.367 122.504 167.367C122.925 167.367 123.296 167.459 123.619 167.641C123.942 167.818 124.195 168.074 124.378 168.409C124.561 168.745 124.652 169.138 124.652 169.588V169.918H121.005C121.023 170.399 121.179 170.777 121.471 171.051C121.764 171.319 122.129 171.453 122.568 171.453C122.952 171.453 123.247 171.365 123.455 171.188C123.662 171.012 123.821 170.801 123.93 170.557L124.552 170.859C124.46 171.048 124.332 171.237 124.168 171.426C124.009 171.615 123.799 171.773 123.537 171.901C123.281 172.029 122.952 172.093 122.55 172.093ZM121.014 169.323H123.921C123.897 168.909 123.753 168.586 123.491 168.354C123.235 168.123 122.906 168.007 122.504 168.007C122.096 168.007 121.76 168.123 121.499 168.354C121.236 168.586 121.075 168.909 121.014 169.323Z" fill="#7A7A7A"/>
<path d="M129.117 167.395L130.64 165.871M130.64 165.871L132.164 167.395M130.64 165.871V171.204M135.972 169.68L134.449 171.204M134.449 171.204L132.926 169.68M134.449 171.204V165.871" stroke="#7A7A7A" stroke-width="1.25" stroke-linecap="round" stroke-linejoin="round"/>
<path d="M240.381 171.965V171.28H241.277V166.252H240.381V165.566H242.877C243.718 165.566 244.367 165.78 244.824 166.206C245.287 166.633 245.518 167.288 245.518 168.172V169.36C245.518 170.249 245.287 170.908 244.824 171.334C244.367 171.755 243.718 171.965 242.877 171.965H240.381ZM242.045 171.27H242.877C243.498 171.27 243.967 171.118 244.284 170.813C244.601 170.509 244.76 170.036 244.76 169.396V168.144C244.76 167.492 244.601 167.017 244.284 166.718C243.967 166.419 243.498 166.27 242.877 166.27H242.045V171.27ZM248.819 172.093C248.368 172.093 247.972 171.999 247.63 171.81C247.289 171.615 247.024 171.344 246.835 170.996C246.647 170.649 246.552 170.247 246.552 169.79V169.68C246.552 169.217 246.647 168.811 246.835 168.464C247.024 168.117 247.287 167.849 247.621 167.66C247.957 167.465 248.341 167.367 248.773 167.367C249.194 167.367 249.566 167.459 249.888 167.641C250.212 167.818 250.464 168.074 250.647 168.409C250.83 168.745 250.921 169.138 250.921 169.588V169.918H247.274C247.292 170.399 247.448 170.777 247.74 171.051C248.033 171.319 248.398 171.453 248.837 171.453C249.221 171.453 249.517 171.365 249.724 171.188C249.931 171.012 250.089 170.801 250.199 170.557L250.821 170.859C250.729 171.048 250.601 171.237 250.437 171.426C250.279 171.615 250.068 171.773 249.806 171.901C249.55 172.029 249.221 172.093 248.819 172.093ZM247.283 169.323H250.19C250.166 168.909 250.023 168.586 249.76 168.354C249.504 168.123 249.175 168.007 248.773 168.007C248.365 168.007 248.03 168.123 247.768 168.354C247.506 168.586 247.344 168.909 247.283 169.323ZM253.982 172.093C253.427 172.093 252.958 171.965 252.574 171.709C252.196 171.453 251.968 171.048 251.888 170.493L252.574 170.338C252.623 170.631 252.714 170.862 252.848 171.033C252.983 171.197 253.147 171.316 253.342 171.389C253.543 171.456 253.756 171.49 253.982 171.49C254.317 171.49 254.582 171.423 254.777 171.289C254.972 171.154 255.07 170.975 255.07 170.749C255.07 170.518 254.975 170.356 254.786 170.265C254.603 170.167 254.35 170.088 254.027 170.027L253.653 169.963C253.366 169.915 253.104 169.838 252.867 169.735C252.629 169.631 252.44 169.491 252.3 169.314C252.16 169.138 252.09 168.915 252.09 168.647C252.09 168.245 252.245 167.931 252.556 167.705C252.867 167.48 253.278 167.367 253.79 167.367C254.295 167.367 254.704 167.483 255.015 167.715C255.332 167.94 255.536 168.26 255.627 168.674L254.951 168.848C254.896 168.525 254.765 168.3 254.558 168.172C254.35 168.037 254.094 167.97 253.79 167.97C253.485 167.97 253.244 168.028 253.068 168.144C252.891 168.254 252.803 168.418 252.803 168.638C252.803 168.851 252.885 169.01 253.049 169.113C253.22 169.211 253.445 169.284 253.726 169.333L254.101 169.396C254.418 169.451 254.701 169.527 254.951 169.625C255.207 169.716 255.408 169.851 255.554 170.027C255.707 170.204 255.783 170.436 255.783 170.722C255.783 171.161 255.618 171.499 255.289 171.737C254.966 171.974 254.53 172.093 253.982 172.093ZM259.058 172.093C258.625 172.093 258.236 172.002 257.888 171.819C257.547 171.63 257.276 171.362 257.075 171.014C256.879 170.667 256.782 170.256 256.782 169.78V169.68C256.782 169.198 256.879 168.787 257.075 168.446C257.276 168.098 257.547 167.833 257.888 167.651C258.236 167.461 258.625 167.367 259.058 167.367C259.485 167.367 259.847 167.447 260.146 167.605C260.451 167.763 260.688 167.973 260.859 168.236C261.036 168.498 261.148 168.778 261.197 169.077L260.494 169.223C260.463 169.003 260.39 168.802 260.274 168.62C260.165 168.437 260.009 168.29 259.808 168.181C259.607 168.071 259.36 168.016 259.068 168.016C258.769 168.016 258.501 168.083 258.263 168.217C258.031 168.352 257.846 168.544 257.706 168.793C257.571 169.043 257.504 169.342 257.504 169.689V169.771C257.504 170.119 257.571 170.417 257.706 170.667C257.846 170.917 258.031 171.109 258.263 171.243C258.501 171.377 258.769 171.444 259.068 171.444C259.512 171.444 259.85 171.328 260.082 171.097C260.32 170.865 260.466 170.579 260.521 170.237L261.234 170.393C261.167 170.685 261.045 170.962 260.868 171.225C260.691 171.487 260.451 171.697 260.146 171.855C259.847 172.014 259.485 172.093 259.058 172.093ZM262.465 171.965V167.495H263.168V168.044H263.296C263.376 167.849 263.498 167.705 263.662 167.614C263.827 167.523 264.043 167.477 264.311 167.477H264.841V168.135H264.265C263.943 168.135 263.68 168.226 263.479 168.409C263.284 168.586 263.187 168.863 263.187 169.241V171.965H262.465ZM265.91 171.965V167.495H266.632V171.965H265.91ZM266.276 166.8C266.118 166.8 265.983 166.748 265.874 166.645C265.77 166.542 265.718 166.41 265.718 166.252C265.718 166.087 265.77 165.953 265.874 165.85C265.983 165.746 266.118 165.694 266.276 165.694C266.435 165.694 266.566 165.746 266.669 165.85C266.773 165.953 266.824 166.087 266.824 166.252C266.824 166.41 266.773 166.542 266.669 166.645C266.566 166.748 266.435 166.8 266.276 166.8ZM268.151 173.793V167.495H268.855V168.236H268.983C269.099 168.01 269.284 167.809 269.54 167.632C269.803 167.456 270.165 167.367 270.628 167.367C271.012 167.367 271.363 167.461 271.679 167.651C272.003 167.833 272.259 168.096 272.447 168.437C272.643 168.778 272.74 169.189 272.74 169.671V169.79C272.74 170.265 272.645 170.676 272.456 171.024C272.268 171.371 272.012 171.636 271.688 171.819C271.372 172.002 271.018 172.093 270.628 172.093C270.317 172.093 270.052 172.05 269.833 171.965C269.62 171.886 269.446 171.782 269.312 171.654C269.178 171.526 269.074 171.396 269.001 171.261H268.873V173.793H268.151ZM270.436 171.453C270.899 171.453 271.274 171.307 271.56 171.014C271.853 170.716 271.999 170.301 271.999 169.771V169.689C271.999 169.159 271.853 168.747 271.56 168.455C271.274 168.156 270.899 168.007 270.436 168.007C269.979 168.007 269.601 168.156 269.303 168.455C269.01 168.747 268.864 169.159 268.864 169.689V169.771C268.864 170.301 269.01 170.716 269.303 171.014C269.601 171.307 269.979 171.453 270.436 171.453ZM275.492 171.965C275.236 171.965 275.037 171.895 274.898 171.755C274.763 171.615 274.696 171.423 274.696 171.179V168.126H273.353V167.495H274.696V165.905H275.419V167.495H276.881V168.126H275.419V171.069C275.419 171.252 275.507 171.344 275.684 171.344H276.68V171.965H275.492ZM278.051 171.965V167.495H278.773V171.965H278.051ZM278.416 166.8C278.258 166.8 278.124 166.748 278.014 166.645C277.911 166.542 277.859 166.41 277.859 166.252C277.859 166.087 277.911 165.953 278.014 165.85C278.124 165.746 278.258 165.694 278.416 165.694C278.575 165.694 278.706 165.746 278.809 165.85C278.913 165.953 278.965 166.087 278.965 166.252C278.965 166.41 278.913 166.542 278.809 166.645C278.706 166.748 278.575 166.8 278.416 166.8ZM282.357 172.093C281.906 172.093 281.507 171.999 281.16 171.81C280.819 171.621 280.551 171.356 280.355 171.014C280.167 170.667 280.072 170.259 280.072 169.79V169.671C280.072 169.207 280.167 168.802 280.355 168.455C280.551 168.108 280.819 167.84 281.16 167.651C281.507 167.461 281.906 167.367 282.357 167.367C282.808 167.367 283.204 167.461 283.545 167.651C283.893 167.84 284.161 168.108 284.35 168.455C284.545 168.802 284.642 169.207 284.642 169.671V169.79C284.642 170.259 284.545 170.667 284.35 171.014C284.161 171.356 283.893 171.621 283.545 171.81C283.204 171.999 282.808 172.093 282.357 172.093ZM282.357 171.444C282.832 171.444 283.211 171.295 283.491 170.996C283.777 170.692 283.92 170.283 283.92 169.771V169.689C283.92 169.177 283.777 168.772 283.491 168.473C283.211 168.169 282.832 168.016 282.357 168.016C281.888 168.016 281.51 168.169 281.224 168.473C280.937 168.772 280.794 169.177 280.794 169.689V169.771C280.794 170.283 280.937 170.692 281.224 170.996C281.51 171.295 281.888 171.444 282.357 171.444ZM285.942 171.965V167.495H286.646V168.254H286.774C286.872 168.041 287.036 167.849 287.268 167.678C287.505 167.501 287.853 167.413 288.31 167.413C288.645 167.413 288.943 167.483 289.205 167.623C289.473 167.763 289.687 167.971 289.845 168.245C290.004 168.519 290.083 168.857 290.083 169.259V171.965H289.361V169.314C289.361 168.869 289.248 168.546 289.023 168.345C288.803 168.144 288.504 168.044 288.127 168.044C287.694 168.044 287.341 168.184 287.066 168.464C286.799 168.745 286.664 169.162 286.664 169.716V171.965H285.942Z" fill="#7A7A7A"/>
<path d="M419.348 172.093C418.885 172.093 418.471 172.011 418.105 171.846C417.739 171.682 417.45 171.435 417.237 171.106C417.029 170.771 416.926 170.353 416.926 169.854V169.662H417.684V169.854C417.684 170.384 417.84 170.78 418.151 171.042C418.461 171.298 418.861 171.426 419.348 171.426C419.848 171.426 420.229 171.313 420.491 171.088C420.753 170.862 420.884 170.579 420.884 170.238C420.884 170 420.823 169.811 420.701 169.671C420.585 169.531 420.421 169.418 420.207 169.333C419.994 169.241 419.744 169.162 419.458 169.095L418.982 168.976C418.611 168.878 418.282 168.76 417.995 168.62C417.709 168.48 417.483 168.297 417.319 168.071C417.161 167.84 417.081 167.544 417.081 167.184C417.081 166.825 417.17 166.514 417.346 166.252C417.529 165.99 417.782 165.789 418.105 165.649C418.434 165.509 418.812 165.438 419.238 165.438C419.671 165.438 420.058 165.514 420.399 165.667C420.747 165.813 421.018 166.033 421.213 166.325C421.414 166.611 421.515 166.974 421.515 167.413V167.797H420.756V167.413C420.756 167.102 420.689 166.852 420.555 166.663C420.427 166.474 420.247 166.334 420.015 166.243C419.79 166.151 419.531 166.106 419.238 166.106C418.818 166.106 418.48 166.2 418.224 166.389C417.968 166.572 417.84 166.834 417.84 167.175C417.84 167.401 417.895 167.584 418.004 167.724C418.114 167.864 418.269 167.98 418.471 168.071C418.672 168.156 418.912 168.233 419.193 168.3L419.668 168.418C420.04 168.498 420.372 168.608 420.664 168.748C420.963 168.882 421.201 169.067 421.377 169.305C421.554 169.537 421.643 169.842 421.643 170.219C421.643 170.597 421.548 170.926 421.359 171.206C421.17 171.487 420.902 171.706 420.555 171.865C420.214 172.017 419.811 172.093 419.348 172.093ZM424.497 171.965C424.241 171.965 424.043 171.895 423.903 171.755C423.769 171.615 423.702 171.423 423.702 171.179V168.126H422.358V167.495H423.702V165.905H424.424V167.495H425.887V168.126H424.424V171.069C424.424 171.252 424.512 171.344 424.689 171.344H425.686V171.965H424.497ZM428.401 172.093C428.09 172.093 427.806 172.038 427.55 171.929C427.295 171.819 427.093 171.661 426.947 171.453C426.801 171.246 426.728 170.993 426.728 170.695C426.728 170.39 426.801 170.14 426.947 169.945C427.093 169.744 427.295 169.595 427.55 169.497C427.806 169.394 428.093 169.342 428.41 169.342H429.918V169.013C429.918 168.696 429.824 168.446 429.635 168.263C429.452 168.08 429.178 167.989 428.812 167.989C428.453 167.989 428.172 168.077 427.971 168.254C427.77 168.425 427.633 168.656 427.56 168.949L426.883 168.729C426.956 168.48 427.072 168.254 427.231 168.053C427.389 167.845 427.599 167.681 427.861 167.559C428.129 167.431 428.449 167.367 428.821 167.367C429.394 167.367 429.839 167.516 430.156 167.815C430.473 168.108 430.631 168.522 430.631 169.058V171.078C430.631 171.261 430.716 171.353 430.887 171.353H431.298V171.965H430.668C430.466 171.965 430.305 171.91 430.183 171.801C430.061 171.685 430 171.533 430 171.344V171.298H429.891C429.824 171.414 429.732 171.536 429.616 171.663C429.507 171.785 429.354 171.886 429.159 171.965C428.964 172.05 428.711 172.093 428.401 172.093ZM428.483 171.472C428.91 171.472 429.254 171.346 429.516 171.097C429.784 170.841 429.918 170.484 429.918 170.027V169.927H428.437C428.151 169.927 427.913 169.991 427.724 170.119C427.541 170.24 427.45 170.427 427.45 170.676C427.45 170.926 427.544 171.121 427.733 171.261C427.928 171.401 428.178 171.472 428.483 171.472ZM433.638 171.965C433.382 171.965 433.184 171.895 433.044 171.755C432.91 171.615 432.843 171.423 432.843 171.179V168.126H431.499V167.495H432.843V165.905H433.565V167.495H435.028V168.126H433.565V171.069C433.565 171.252 433.653 171.344 433.83 171.344H434.827V171.965H433.638ZM437.907 172.047C437.584 172.047 437.285 171.977 437.011 171.837C436.743 171.697 436.529 171.49 436.371 171.216C436.218 170.935 436.142 170.597 436.142 170.201V167.495H436.865V170.146C436.865 170.591 436.974 170.914 437.194 171.115C437.419 171.316 437.721 171.417 438.099 171.417C438.525 171.417 438.876 171.277 439.15 170.996C439.424 170.716 439.561 170.299 439.561 169.744V167.495H440.283V171.965H439.579V171.206H439.451C439.354 171.42 439.186 171.615 438.949 171.791C438.711 171.962 438.364 172.047 437.907 172.047ZM443.595 172.093C443.04 172.093 442.571 171.965 442.188 171.709C441.809 171.453 441.581 171.048 441.502 170.493L442.188 170.338C442.236 170.631 442.328 170.862 442.462 171.033C442.595 171.197 442.76 171.316 442.955 171.389C443.156 171.456 443.37 171.49 443.595 171.49C443.93 171.49 444.195 171.423 444.39 171.289C444.585 171.154 444.683 170.975 444.683 170.749C444.683 170.518 444.588 170.356 444.4 170.265C444.217 170.167 443.964 170.088 443.641 170.027L443.266 169.963C442.979 169.915 442.718 169.838 442.48 169.735C442.242 169.631 442.053 169.491 441.913 169.314C441.773 169.138 441.703 168.915 441.703 168.647C441.703 168.245 441.858 167.931 442.169 167.705C442.48 167.48 442.891 167.367 443.403 167.367C443.909 167.367 444.317 167.483 444.628 167.715C444.945 167.94 445.149 168.26 445.241 168.674L444.564 168.848C444.509 168.525 444.378 168.3 444.171 168.172C443.964 168.037 443.708 167.971 443.403 167.971C443.098 167.971 442.858 168.028 442.681 168.144C442.504 168.254 442.416 168.418 442.416 168.638C442.416 168.851 442.498 169.01 442.663 169.113C442.833 169.211 443.059 169.284 443.339 169.333L443.714 169.397C444.031 169.451 444.314 169.527 444.564 169.625C444.82 169.716 445.021 169.851 445.167 170.027C445.319 170.204 445.396 170.436 445.396 170.722C445.396 171.161 445.231 171.499 444.902 171.737C444.579 171.974 444.144 172.093 443.595 172.093Z" fill="#7A7A7A"/>
<path d="M449.623 167.395L451.147 165.871M451.147 165.871L452.67 167.395M451.147 165.871V171.204M456.479 169.68L454.955 171.204M454.955 171.204L453.432 169.68M454.955 171.204V165.871" stroke="#7A7A7A" stroke-width="1.25" stroke-linecap="round" stroke-linejoin="round"/>
<path d="M529.223 172.093C528.748 172.093 528.334 172.008 527.98 171.837C527.626 171.666 527.352 171.414 527.157 171.078C526.962 170.737 526.865 170.32 526.865 169.826V165.566H527.623V169.835C527.623 170.359 527.763 170.752 528.044 171.014C528.324 171.277 528.718 171.408 529.223 171.408C529.729 171.408 530.122 171.277 530.402 171.014C530.683 170.752 530.823 170.359 530.823 169.835V165.566H531.591V169.826C531.591 170.32 531.493 170.737 531.298 171.078C531.103 171.414 530.826 171.666 530.466 171.837C530.113 172.008 529.698 172.093 529.223 172.093ZM532.998 171.965V165.566H535.585C535.982 165.566 536.329 165.637 536.627 165.777C536.932 165.911 537.17 166.106 537.34 166.362C537.511 166.611 537.596 166.913 537.596 167.267V167.367C537.596 167.788 537.496 168.12 537.295 168.364C537.094 168.608 536.856 168.772 536.582 168.857V168.985C536.801 168.991 536.981 169.065 537.121 169.205C537.267 169.339 537.34 169.543 537.34 169.817V171.965H536.582V169.908C536.582 169.726 536.53 169.586 536.426 169.488C536.329 169.39 536.179 169.342 535.978 169.342H533.766V171.965H532.998ZM533.766 168.647H535.512C535.933 168.647 536.256 168.546 536.481 168.345C536.713 168.138 536.828 167.852 536.828 167.486V167.422C536.828 167.056 536.716 166.773 536.49 166.572C536.265 166.365 535.939 166.261 535.512 166.261H533.766V168.647ZM538.765 171.965V165.566H539.533V171.27H542.769V171.965H538.765Z" fill="#7A7A7A"/>
<path d="M621.588 182.534H83.4117C82.9384 182.534 82.5547 182.918 82.5547 183.391V206.244C82.5547 206.717 82.9384 207.101 83.4117 207.101H621.588C622.062 207.101 622.445 206.717 622.445 206.244V183.391C622.445 182.918 622.062 182.534 621.588 182.534Z" fill="#EAEAEA"/>
<path d="M621.588 182.534H83.4117C82.9384 182.534 82.5547 182.918 82.5547 183.391V206.244C82.5547 206.717 82.9384 207.101 83.4117 207.101H621.588C622.062 207.101 622.445 206.717 622.445 206.244V183.391C622.445 182.918 622.062 182.534 621.588 182.534Z" stroke="#D4D4D4" stroke-linecap="round" stroke-linejoin="round"/>
<path d="M185.677 192.532H104.55C103.288 192.532 102.265 193.556 102.265 194.818C102.265 196.08 103.288 197.103 104.55 197.103H185.677C186.939 197.103 187.962 196.08 187.962 194.818C187.962 193.556 186.939 192.532 185.677 192.532Z" fill="#BABABA"/>
<path d="M371.925 192.532H237.666C236.404 192.532 235.381 193.556 235.381 194.818C235.381 196.08 236.404 197.103 237.666 197.103H371.925C373.187 197.103 374.21 196.08 374.21 194.818C374.21 193.556 373.187 192.532 371.925 192.532Z" fill="#BABABA"/>
<path d="M465.049 192.532H417.058C415.796 192.532 414.773 193.556 414.773 194.818C414.773 196.08 415.796 197.103 417.058 197.103H465.049C466.311 197.103 467.334 196.08 467.334 194.818C467.334 193.556 466.311 192.532 465.049 192.532Z" fill="#BABABA"/>
<path d="M591.88 192.532H523.894C522.632 192.532 521.609 193.556 521.609 194.818C521.609 196.08 522.632 197.103 523.894 197.103H591.88C593.142 197.103 594.165 196.08 594.165 194.818C594.165 193.556 593.142 192.532 591.88 192.532Z" fill="#BABABA"/>
<path d="M82.269 209.672C82.269 209.04 82.7804 208.529 83.4117 208.529H621.588C622.217 208.529 622.731 209.04 622.731 209.672V232.524C622.731 233.156 622.217 233.667 621.588 233.667H83.4117C82.7804 233.667 82.269 233.156 82.269 232.524V209.672Z" fill="#EAEAEA"/>
<mask id="mask0_66_314" style="mask-type:luminance" maskUnits="userSpaceOnUse" x="82" y="208" width="541" height="26">
<path d="M82.269 209.672C82.269 209.04 82.7804 208.529 83.4117 208.529H621.588C622.217 208.529 622.731 209.04 622.731 209.672V232.524C622.731 233.156 622.217 233.667 621.588 233.667H83.4117C82.7804 233.667 82.269 233.156 82.269 232.524V209.672Z" fill="white"/>
</mask>
<g mask="url(#mask0_66_314)">
<path d="M623.302 232.524C623.302 233.471 622.537 234.238 621.588 234.238H83.4117C82.465 234.238 81.6978 233.471 81.6978 232.524H82.8404C82.8404 232.84 83.0963 233.096 83.4117 233.096H621.588C621.903 233.096 622.16 232.84 622.16 232.524H623.302ZM83.4117 234.238C82.465 234.238 81.6978 233.471 81.6978 232.524V210.243C81.6978 209.296 82.465 208.529 83.4117 208.529C83.0963 208.529 82.8404 209.04 82.8404 209.672V232.524C82.8404 232.84 83.0963 233.096 83.4117 233.096V234.238ZM621.588 208.529C622.537 208.529 623.302 209.296 623.302 210.243V232.524C623.302 233.471 622.537 234.238 621.588 234.238V233.096C621.903 233.096 622.16 232.84 622.16 232.524V209.672C622.16 209.04 621.903 208.529 621.588 208.529Z" fill="#D4D4D4"/>
</g>
<path d="M185.677 218.813H104.55C103.288 218.813 102.265 219.836 102.265 221.098C102.265 222.36 103.288 223.383 104.55 223.383H185.677C186.939 223.383 187.962 222.36 187.962 221.098C187.962 219.836 186.939 218.813 185.677 218.813Z" fill="#BABABA"/>
<path d="M371.925 218.813H237.666C236.404 218.813 235.381 219.836 235.381 221.098C235.381 222.36 236.404 223.383 237.666 223.383H371.925C373.187 223.383 374.21 222.36 374.21 221.098C374.21 219.836 373.187 218.813 371.925 218.813Z" fill="#BABABA"/>
<path d="M465.049 218.813H417.058C415.796 218.813 414.773 219.836 414.773 221.098C414.773 222.36 415.796 223.383 417.058 223.383H465.049C466.311 223.383 467.334 222.36 467.334 221.098C467.334 219.836 466.311 218.813 465.049 218.813Z" fill="#BABABA"/>
<path d="M591.88 218.813H523.894C522.632 218.813 521.609 219.836 521.609 221.098C521.609 222.36 522.632 223.383 523.894 223.383H591.88C593.142 223.383 594.165 222.36 594.165 221.098C594.165 219.836 593.142 218.813 591.88 218.813Z" fill="#BABABA"/>
<path d="M82.269 235.952C82.269 235.321 82.7804 234.81 83.4117 234.81H621.588C622.217 234.81 622.731 235.321 622.731 235.952V258.805C622.731 259.436 622.217 259.947 621.588 259.947H83.4117C82.7804 259.947 82.269 259.436 82.269 258.805V235.952Z" fill="#EAEAEA"/>
<mask id="mask1_66_314" style="mask-type:luminance" maskUnits="userSpaceOnUse" x="82" y="234" width="541" height="26">
<path d="M82.269 235.952C82.269 235.321 82.7804 234.81 83.4117 234.81H621.588C622.217 234.81 622.731 235.321 622.731 235.952V258.805C622.731 259.436 622.217 259.947 621.588 259.947H83.4117C82.7804 259.947 82.269 259.436 82.269 258.805V235.952Z" fill="white"/>
</mask>
<g mask="url(#mask1_66_314)">
<path d="M623.302 258.805C623.302 259.751 622.537 260.519 621.588 260.519H83.4117C82.465 260.519 81.6978 259.751 81.6978 258.805H82.8404C82.8404 259.12 83.0963 259.376 83.4117 259.376H621.588C621.903 259.376 622.16 259.12 622.16 258.805H623.302ZM83.4117 260.519C82.465 260.519 81.6978 259.751 81.6978 258.805V236.524C81.6978 235.577 82.465 234.81 83.4117 234.81C83.0963 234.81 82.8404 235.321 82.8404 235.952V258.805C82.8404 259.12 83.0963 259.376 83.4117 259.376V260.519ZM621.588 234.81C622.537 234.81 623.302 235.577 623.302 236.524V258.805C623.302 259.751 622.537 260.519 621.588 260.519V259.376C621.903 259.376 622.16 259.12 622.16 258.805V235.952C622.16 235.321 621.903 234.81 621.588 234.81Z" fill="#D4D4D4"/>
</g>
<path d="M185.677 245.093H104.55C103.288 245.093 102.265 246.116 102.265 247.379C102.265 248.641 103.288 249.664 104.55 249.664H185.677C186.939 249.664 187.962 248.641 187.962 247.379C187.962 246.116 186.939 245.093 185.677 245.093Z" fill="#BABABA"/>
<path d="M371.925 245.093H237.666C236.404 245.093 235.381 246.116 235.381 247.379C235.381 248.641 236.404 249.664 237.666 249.664H371.925C373.187 249.664 374.21 248.641 374.21 247.379C374.21 246.116 373.187 245.093 371.925 245.093Z" fill="#BABABA"/>
<path d="M465.049 245.093H417.058C415.796 245.093 414.773 246.116 414.773 247.379C414.773 248.641 415.796 249.664 417.058 249.664H465.049C466.311 249.664 467.334 248.641 467.334 247.379C467.334 246.116 466.311 245.093 465.049 245.093Z" fill="#BABABA"/>
<path d="M591.88 245.093H523.894C522.632 245.093 521.609 246.116 521.609 247.379C521.609 248.641 522.632 249.664 523.894 249.664H591.88C593.142 249.664 594.165 248.641 594.165 247.379C594.165 246.116 593.142 245.093 591.88 245.093Z" fill="#BABABA"/>
<path d="M82.269 262.232C82.269 261.601 82.7804 261.09 83.4117 261.09H621.588C622.217 261.09 622.731 261.601 622.731 262.232V285.085C622.731 285.716 622.217 286.228 621.588 286.228H83.4117C82.7804 286.228 82.269 285.716 82.269 285.085V262.232Z" fill="#EAEAEA"/>
<mask id="mask2_66_314" style="mask-type:luminance" maskUnits="userSpaceOnUse" x="82" y="261" width="541" height="26">
<path d="M82.269 262.232C82.269 261.601 82.7804 261.09 83.4117 261.09H621.588C622.217 261.09 622.731 261.601 622.731 262.232V285.085C622.731 285.716 622.217 286.228 621.588 286.228H83.4117C82.7804 286.228 82.269 285.716 82.269 285.085V262.232Z" fill="white"/>
</mask>
<g mask="url(#mask2_66_314)">
<path d="M623.302 285.085C623.302 286.032 622.537 286.799 621.588 286.799H83.4117C82.465 286.799 81.6978 286.032 81.6978 285.085H82.8404C82.8404 285.4 83.0963 285.656 83.4117 285.656H621.588C621.903 285.656 622.16 285.4 622.16 285.085H623.302ZM83.4117 286.799C82.465 286.799 81.6978 286.032 81.6978 285.085V262.804C81.6978 261.857 82.465 261.09 83.4117 261.09C83.0963 261.09 82.8404 261.601 82.8404 262.232V285.085C82.8404 285.4 83.0963 285.656 83.4117 285.656V286.799ZM621.588 261.09C622.537 261.09 623.302 261.857 623.302 262.804V285.085C623.302 286.032 622.537 286.799 621.588 286.799V285.656C621.903 285.656 622.16 285.4 622.16 285.085V262.232C622.16 261.601 621.903 261.09 621.588 261.09Z" fill="#D4D4D4"/>
</g>
<path d="M185.677 271.374H104.55C103.288 271.374 102.265 272.397 102.265 273.659C102.265 274.921 103.288 275.944 104.55 275.944H185.677C186.939 275.944 187.962 274.921 187.962 273.659C187.962 272.397 186.939 271.374 185.677 271.374Z" fill="#BABABA"/>
<path d="M371.925 271.374H237.666C236.404 271.374 235.381 272.397 235.381 273.659C235.381 274.921 236.404 275.944 237.666 275.944H371.925C373.187 275.944 374.21 274.921 374.21 273.659C374.21 272.397 373.187 271.374 371.925 271.374Z" fill="#BABABA"/>
<path d="M465.049 271.374H417.058C415.796 271.374 414.773 272.397 414.773 273.659C414.773 274.921 415.796 275.944 417.058 275.944H465.049C466.311 275.944 467.334 274.921 467.334 273.659C467.334 272.397 466.311 271.374 465.049 271.374Z" fill="#BABABA"/>
<path d="M591.88 271.374H523.894C522.632 271.374 521.609 272.397 521.609 273.659C521.609 274.921 522.632 275.944 523.894 275.944H591.88C593.142 275.944 594.165 274.921 594.165 273.659C594.165 272.397 593.142 271.374 591.88 271.374Z" fill="#BABABA"/>
<path d="M82.269 288.513C82.269 287.882 82.7804 287.37 83.4117 287.37H621.588C622.217 287.37 622.731 287.882 622.731 288.513V311.366C622.731 311.997 622.217 312.508 621.588 312.508H83.4117C82.7804 312.508 82.269 311.997 82.269 311.366V288.513Z" fill="#EAEAEA"/>
<mask id="mask3_66_314" style="mask-type:luminance" maskUnits="userSpaceOnUse" x="82" y="287" width="541" height="26">
<path d="M82.269 288.513C82.269 287.882 82.7804 287.37 83.4117 287.37H621.588C622.217 287.37 622.731 287.882 622.731 288.513V311.366C622.731 311.997 622.217 312.508 621.588 312.508H83.4117C82.7804 312.508 82.269 311.997 82.269 311.366V288.513Z" fill="white"/>
</mask>
<g mask="url(#mask3_66_314)">
<path d="M623.302 311.366C623.302 312.312 622.537 313.079 621.588 313.079H83.4117C82.465 313.079 81.6978 312.312 81.6978 311.366H82.8404C82.8404 311.681 83.0963 311.937 83.4117 311.937H621.588C621.903 311.937 622.16 311.681 622.16 311.366H623.302ZM83.4117 313.079C82.465 313.079 81.6978 312.312 81.6978 311.366V289.084C81.6978 288.138 82.465 287.37 83.4117 287.37C83.0963 287.37 82.8404 287.882 82.8404 288.513V311.366C82.8404 311.681 83.0963 311.937 83.4117 311.937V313.079ZM621.588 287.37C622.537 287.37 623.302 288.138 623.302 289.084V311.366C623.302 312.312 622.537 313.079 621.588 313.079V311.937C621.903 311.937 622.16 311.681 622.16 311.366V288.513C622.16 287.882 621.903 287.37 621.588 287.37Z" fill="#D4D4D4"/>
</g>
<path d="M185.677 297.654H104.55C103.288 297.654 102.265 298.677 102.265 299.939C102.265 301.201 103.288 302.225 104.55 302.225H185.677C186.939 302.225 187.962 301.201 187.962 299.939C187.962 298.677 186.939 297.654 185.677 297.654Z" fill="#BABABA"/>
<path d="M371.925 297.654H237.666C236.404 297.654 235.381 298.677 235.381 299.939C235.381 301.201 236.404 302.225 237.666 302.225H371.925C373.187 302.225 374.21 301.201 374.21 299.939C374.21 298.677 373.187 297.654 371.925 297.654Z" fill="#BABABA"/>
<path d="M465.049 297.654H417.058C415.796 297.654 414.773 298.677 414.773 299.939C414.773 301.201 415.796 302.225 417.058 302.225H465.049C466.311 302.225 467.334 301.201 467.334 299.939C467.334 298.677 466.311 297.654 465.049 297.654Z" fill="#BABABA"/>
<path d="M591.88 297.654H523.894C522.632 297.654 521.609 298.677 521.609 299.939C521.609 301.201 522.632 302.225 523.894 302.225H591.88C593.142 302.225 594.165 301.201 594.165 299.939C594.165 298.677 593.142 297.654 591.88 297.654Z" fill="#BABABA"/>
<path d="M82.269 314.793C82.269 314.162 82.7804 313.651 83.4117 313.651H621.588C622.217 313.651 622.731 314.162 622.731 314.793V331.933C622.731 335.719 619.663 338.788 615.875 338.788H89.1248C85.3387 338.788 82.269 335.719 82.269 331.933V314.793Z" fill="#EAEAEA"/>
<mask id="mask4_66_314" style="mask-type:luminance" maskUnits="userSpaceOnUse" x="82" y="313" width="541" height="26">
<path d="M82.269 314.793C82.269 314.162 82.7804 313.651 83.4117 313.651H621.588C622.217 313.651 622.731 314.162 622.731 314.793V331.933C622.731 335.719 619.663 338.788 615.875 338.788H89.1248C85.3387 338.788 82.269 335.719 82.269 331.933V314.793Z" fill="white"/>
</mask>
<g mask="url(#mask4_66_314)">
<path d="M623.302 331.933C623.302 336.035 619.977 339.36 615.875 339.36H89.1248C85.0228 339.36 81.6978 336.035 81.6978 331.933H82.8404C82.8404 335.403 85.6541 338.217 89.1248 338.217H615.875C619.349 338.217 622.16 335.403 622.16 331.933H623.302ZM89.1248 339.36C85.0228 339.36 81.6978 336.035 81.6978 331.933V315.365C81.6978 314.418 82.465 313.651 83.4117 313.651C83.0963 313.651 82.8404 314.162 82.8404 314.793V331.933C82.8404 335.403 85.6541 338.217 89.1248 338.217V339.36ZM621.588 313.651C622.537 313.651 623.302 314.418 623.302 315.365V331.933C623.302 336.035 619.977 339.36 615.875 339.36V338.217C619.349 338.217 622.16 335.403 622.16 331.933V314.793C622.16 314.162 621.903 313.651 621.588 313.651Z" fill="#D4D4D4"/>
</g>
<path d="M185.677 323.934H104.55C103.288 323.934 102.265 324.957 102.265 326.22C102.265 327.482 103.288 328.505 104.55 328.505H185.677C186.939 328.505 187.962 327.482 187.962 326.22C187.962 324.957 186.939 323.934 185.677 323.934Z" fill="#BABABA"/>
<path d="M371.925 323.934H237.666C236.404 323.934 235.381 324.957 235.381 326.22C235.381 327.482 236.404 328.505 237.666 328.505H371.925C373.187 328.505 374.21 327.482 374.21 326.22C374.21 324.957 373.187 323.934 371.925 323.934Z" fill="#BABABA"/>
<path d="M465.049 323.934H417.058C415.796 323.934 414.773 324.957 414.773 326.22C414.773 327.482 415.796 328.505 417.058 328.505H465.049C466.311 328.505 467.334 327.482 467.334 326.22C467.334 324.957 466.311 323.934 465.049 323.934Z" fill="#BABABA"/>
<path d="M591.88 323.934H523.894C522.632 323.934 521.609 324.957 521.609 326.22C521.609 327.482 522.632 328.505 523.894 328.505H591.88C593.142 328.505 594.165 327.482 594.165 326.22C594.165 324.957 593.142 323.934 591.88 323.934Z" fill="#BABABA"/>
<path d="M439.339 117.405H384.493C380.865 117.405 377.923 120.096 377.923 123.417V135.963C377.923 139.283 380.865 141.975 384.493 141.975H439.339C442.968 141.975 445.91 139.283 445.91 135.963V123.417C445.91 120.096 442.968 117.405 439.339 117.405Z" fill="#EAEAEA"/>
<path d="M439.339 117.405H384.493C380.865 117.405 377.923 120.096 377.923 123.417V135.963C377.923 139.283 380.865 141.975 384.493 141.975H439.339C442.968 141.975 445.91 139.283 445.91 135.963V123.417C445.91 120.096 442.968 117.405 439.339 117.405Z" stroke="#D4D4D4" stroke-linecap="round" stroke-linejoin="round"/>
<path d="M396.491 126.831C396.34 126.831 396.194 126.891 396.087 126.999C395.98 127.106 395.92 127.251 395.92 127.403C395.92 127.554 395.98 127.7 396.087 127.807C396.194 127.914 396.34 127.974 396.491 127.974C396.642 127.974 396.788 127.914 396.895 127.807C397.002 127.7 397.062 127.554 397.062 127.403C397.062 127.251 397.002 127.106 396.895 126.999C396.788 126.891 396.642 126.831 396.491 126.831ZM394.874 126.831C394.993 126.497 395.211 126.207 395.501 126.002C395.79 125.797 396.136 125.688 396.491 125.688C396.846 125.688 397.192 125.797 397.481 126.002C397.771 126.207 397.99 126.497 398.108 126.831H402.204C402.356 126.831 402.501 126.891 402.608 126.999C402.716 127.106 402.776 127.251 402.776 127.403C402.776 127.554 402.716 127.7 402.608 127.807C402.501 127.914 402.356 127.974 402.204 127.974H398.108C397.99 128.309 397.771 128.598 397.481 128.803C397.192 129.008 396.846 129.118 396.491 129.118C396.136 129.118 395.79 129.008 395.501 128.803C395.211 128.598 394.993 128.309 394.874 127.974H394.206C394.054 127.974 393.909 127.914 393.802 127.807C393.695 127.7 393.635 127.554 393.635 127.403C393.635 127.251 393.695 127.106 393.802 126.999C393.909 126.891 394.054 126.831 394.206 126.831H394.874ZM399.919 130.259C399.768 130.259 399.622 130.319 399.515 130.427C399.408 130.533 399.348 130.679 399.348 130.831C399.348 130.982 399.408 131.128 399.515 131.234C399.622 131.342 399.768 131.402 399.919 131.402C400.07 131.402 400.216 131.342 400.323 131.234C400.43 131.128 400.49 130.982 400.49 130.831C400.49 130.679 400.43 130.533 400.323 130.427C400.216 130.319 400.07 130.259 399.919 130.259ZM398.302 130.259C398.42 129.924 398.639 129.635 398.929 129.43C399.218 129.225 399.564 129.115 399.919 129.115C400.274 129.115 400.62 129.225 400.909 129.43C401.199 129.635 401.418 129.924 401.536 130.259H402.204C402.356 130.259 402.501 130.319 402.608 130.427C402.716 130.533 402.776 130.679 402.776 130.831C402.776 130.982 402.716 131.128 402.608 131.234C402.501 131.342 402.356 131.402 402.204 131.402H401.536C401.418 131.737 401.199 132.026 400.909 132.231C400.62 132.436 400.274 132.546 399.919 132.546C399.564 132.546 399.218 132.436 398.929 132.231C398.639 132.026 398.42 131.737 398.302 131.402H394.206C394.054 131.402 393.909 131.342 393.802 131.234C393.695 131.128 393.635 130.982 393.635 130.831C393.635 130.679 393.695 130.533 393.802 130.427C393.909 130.319 394.054 130.259 394.206 130.259H398.302ZM396.491 133.687C396.34 133.687 396.194 133.747 396.087 133.855C395.98 133.961 395.92 134.107 395.92 134.258C395.92 134.41 395.98 134.556 396.087 134.662C396.194 134.77 396.34 134.83 396.491 134.83C396.642 134.83 396.788 134.77 396.895 134.662C397.002 134.556 397.062 134.41 397.062 134.258C397.062 134.107 397.002 133.961 396.895 133.855C396.788 133.747 396.642 133.687 396.491 133.687ZM394.874 133.687C394.993 133.352 395.211 133.063 395.501 132.858C395.79 132.653 396.136 132.543 396.491 132.543C396.846 132.543 397.192 132.653 397.481 132.858C397.771 133.063 397.99 133.352 398.108 133.687H402.204C402.356 133.687 402.501 133.747 402.608 133.855C402.716 133.961 402.776 134.107 402.776 134.258C402.776 134.41 402.716 134.556 402.608 134.662C402.501 134.77 402.356 134.83 402.204 134.83H398.108C397.99 135.165 397.771 135.454 397.481 135.659C397.192 135.864 396.846 135.974 396.491 135.974C396.136 135.974 395.79 135.864 395.501 135.659C395.211 135.454 394.993 135.165 394.874 134.83H394.206C394.054 134.83 393.909 134.77 393.802 134.662C393.695 134.556 393.635 134.41 393.635 134.258C393.635 134.107 393.695 133.961 393.802 133.855C393.909 133.747 394.054 133.687 394.206 133.687H394.874Z" fill="#7A7A7A"/>
<path d="M410.363 134.259V127.86H414.229V128.555H411.13V130.703H413.982V131.397H411.13V134.259H410.363ZM415.327 134.259V129.789H416.049V134.259H415.327ZM415.692 129.094C415.533 129.094 415.4 129.042 415.29 128.939C415.186 128.835 415.135 128.704 415.135 128.545C415.135 128.381 415.186 128.247 415.29 128.143C415.4 128.04 415.533 127.988 415.692 127.988C415.851 127.988 415.981 128.04 416.085 128.143C416.189 128.247 416.241 128.381 416.241 128.545C416.241 128.704 416.189 128.835 416.085 128.939C415.981 129.042 415.851 129.094 415.692 129.094ZM417.567 134.259V127.86H418.29V134.259H417.567ZM421.453 134.259C421.197 134.259 420.999 134.188 420.859 134.048C420.725 133.908 420.658 133.716 420.658 133.472V130.419H419.314V129.789H420.658V128.198H421.38V129.789H422.842V130.419H421.38V133.363C421.38 133.546 421.468 133.637 421.645 133.637H422.641V134.259H421.453ZM425.899 134.387C425.448 134.387 425.052 134.292 424.711 134.103C424.369 133.908 424.104 133.637 423.916 133.29C423.727 132.942 423.632 132.54 423.632 132.083V131.973C423.632 131.51 423.727 131.105 423.916 130.758C424.104 130.41 424.367 130.142 424.702 129.953C425.037 129.758 425.421 129.661 425.854 129.661C426.274 129.661 426.646 129.752 426.969 129.935C427.292 130.111 427.545 130.367 427.728 130.703C427.91 131.038 428.002 131.431 428.002 131.882V132.211H424.355C424.373 132.693 424.528 133.07 424.821 133.344C425.113 133.612 425.479 133.747 425.918 133.747C426.302 133.747 426.597 133.658 426.804 133.482C427.011 133.305 427.17 133.095 427.28 132.851L427.901 133.153C427.81 133.342 427.682 133.53 427.517 133.719C427.359 133.908 427.148 134.067 426.887 134.195C426.631 134.323 426.302 134.387 425.899 134.387ZM424.364 131.617H427.271C427.246 131.203 427.103 130.879 426.841 130.648C426.585 130.416 426.256 130.301 425.854 130.301C425.445 130.301 425.11 130.416 424.848 130.648C424.586 130.879 424.424 131.203 424.364 131.617ZM429.261 134.259V129.789H429.965V130.337H430.093C430.172 130.142 430.294 129.999 430.458 129.907C430.623 129.816 430.84 129.77 431.107 129.77H431.638V130.428H431.062C430.739 130.428 430.477 130.52 430.276 130.703C430.081 130.879 429.983 131.157 429.983 131.535V134.259H429.261Z" fill="#7A7A7A"/>
</g>
<rect width="704.925" height="420" fill="url(#paint0_linear_66_314)"/>
<defs>
<linearGradient id="paint0_linear_66_314" x1="352" y1="-115" x2="352" y2="429.5" gradientUnits="userSpaceOnUse">
<stop offset="0.430376" stop-color="#FFFBF5" stop-opacity="0"/>
<stop offset="0.80052" stop-color="white"/>
</linearGradient>
<clipPath id="clip0_66_314">
<rect width="705" height="399.919" fill="white"/>
</clipPath>
</defs>
</svg>
