<svg width="44" height="38" viewBox="0 0 44 38" fill="none" xmlns="http://www.w3.org/2000/svg">
<path d="M40 1H4C3.20435 1 2.44129 1.31607 1.87868 1.87868C1.31607 2.44129 1 3.20435 1 4V34C1 34.7957 1.31607 35.5587 1.87868 36.1213C2.44129 36.6839 3.20435 37 4 37H40C40.7957 37 41.5587 36.6839 42.1213 36.1213C42.6839 35.5587 43 34.7957 43 34V4C43 3.20435 42.6839 2.44129 42.1213 1.87868C41.5587 1.31607 40.7957 1 40 1ZM40 4V10H4V4H40ZM4 13H13V34H4V13ZM16 34V13H40V34H16Z" fill="#FF7300" stroke="#FF7300"/>
</svg>
