<svg width="38" height="38" viewBox="0 0 38 38" fill="none" xmlns="http://www.w3.org/2000/svg">
<path fill-rule="evenodd" clip-rule="evenodd" d="M13.0001 19H8.4641C8.02383 19.7626 7.34424 20.3586 6.53073 20.6955C5.71722 21.0325 4.81526 21.0916 3.96472 20.8637C3.11419 20.6358 2.36262 20.1336 1.82659 19.435C1.29055 18.7365 1 17.8805 1 17C1 16.1195 1.29055 15.2635 1.82659 14.565C2.36262 13.8664 3.11419 13.3642 3.96472 13.1363C4.81526 12.9084 5.71722 12.9675 6.53073 13.3045C7.34424 13.6414 8.02383 14.2374 8.4641 15H13.0001V5C13.0001 3.93913 13.4215 2.92172 14.1717 2.17157C14.9218 1.42143 15.9392 1 17.0001 1H33.0001C34.061 1 35.0784 1.42143 35.8285 2.17157C36.5787 2.92172 37.0001 3.93913 37.0001 5V33C37.0001 34.0609 36.5787 35.0783 35.8285 35.8284C35.0784 36.5786 34.061 37 33.0001 37H17.0001C15.9392 37 14.9218 36.5786 14.1717 35.8284C13.4215 35.0783 13.0001 34.0609 13.0001 33V19ZM17.0001 19V33H33.0001V5H17.0001V15H21.5361C21.9764 14.2374 22.656 13.6414 23.4695 13.3045C24.283 12.9675 25.1849 12.9084 26.0355 13.1363C26.886 13.3642 27.6376 13.8664 28.1736 14.565C28.7097 15.2635 29.0002 16.1195 29.0002 17C29.0002 17.8805 28.7097 18.7365 28.1736 19.435C27.6376 20.1336 26.886 20.6358 26.0355 20.8637C25.1849 21.0916 24.283 21.0325 23.4695 20.6955C22.656 20.3586 21.9764 19.7626 21.5361 19H17.0001Z" fill="#FF7300" stroke="#FF7300"/>
</svg>
