<svg width="44" height="40" viewBox="0 0 44 40" fill="none" xmlns="http://www.w3.org/2000/svg">
<path d="M2 10C2 7.2 2 5.8 2.544 4.73C3.02345 3.78871 3.78871 3.02345 4.73 2.544C5.8 2 7.2 2 10 2C12.8 2 14.2 2 15.27 2.544C16.2113 3.02345 16.9765 3.78871 17.456 4.73C18 5.8 18 7.2 18 10M2 10V30C2 32.8 2 34.2 2.544 35.27C3.02379 36.2105 3.78901 36.9751 4.73 37.454C5.8 38 7.2 38 10 38C12.8 38 14.2 38 15.27 37.454C16.211 36.9751 16.9762 36.2105 17.456 35.27C18 34.2 18 32.8 18 30V10M2 10H18M10 30H10.018M33.562 29.39L33.58 29.386M22 12L35 8M20.898 12.536C20.188 9.876 19.832 8.546 20.078 7.392C20.292 6.37724 20.8212 5.45605 21.59 4.76C22.464 3.97 23.79 3.614 26.438 2.9C29.086 2.188 30.412 1.832 31.56 2.078C32.5725 2.29394 33.49 2.82626 34.18 3.598C34.968 4.474 35.324 5.804 36.034 8.464L41.102 27.464C41.812 30.124 42.168 31.454 41.922 32.608C41.708 33.6228 41.1788 34.544 40.41 35.24C39.536 36.03 38.21 36.386 35.562 37.1C32.914 37.812 31.59 38.168 30.44 37.922C29.4281 37.7048 28.5109 37.1727 27.82 36.402C27.032 35.526 26.676 34.196 25.966 31.536L20.898 12.536Z" stroke="#FF7300" stroke-width="4" stroke-linecap="round" stroke-linejoin="round"/>
</svg>
