<svg width="372" height="216" viewBox="0 0 372 216" fill="none" xmlns="http://www.w3.org/2000/svg">
<path fillRule="evenodd" clipRule="evenodd" d="M235.2 10.4L359.267 73.0833C364.51 75.7508 368.652 80.1706 370.976 85.575C373.299 90.9793 373.655 97.0267 371.983 102.667C365.483 124.85 366.2 134.167 370.45 144.683C374.733 155.317 371.767 168.833 360.667 175.85L189.267 284.35C182.083 288.9 172.933 289.6 164.983 285.717L100.983 254.133L74.25 240.717L55.25 231.017L43.65 224.933L37.65 221.667L33.3 219.167C16.3 208.917 11 188.083 11.1 172.167C11.1667 155.983 16.7334 135.767 32.1833 124.667L37.1833 121.217L51.4833 111.867L85.5667 90.1L210.7 11.5166C214.345 9.24386 218.514 7.94867 222.806 7.756C227.097 7.56333 231.366 8.463 235.2 10.4ZM333.883 126.133L189.333 217.633L187.533 218.683L185.683 219.55C183.85 226.35 183.217 231.233 183.283 235.767C183.317 238.467 183.617 241.233 184.2 244.383L184.9 247.667L337.367 151.167L336.167 147.017C334.753 141.592 333.982 136.021 333.867 130.417L333.883 126.133ZM46.6667 159.3C45.1767 163.472 44.4211 167.87 44.4333 172.3C44.3833 183.5 48.3833 189.35 50.5167 190.633L55.65 193.55L66.0833 199.1L95.5834 214.15L150.167 241.333C150.038 239.653 149.96 237.969 149.933 236.283C149.871 230.048 150.508 223.826 151.833 217.733L152.95 212.933L46.6667 159.3ZM232.733 63.2333C228.965 61.2457 224.578 60.7768 220.475 61.9228C216.372 63.0688 212.863 65.7428 210.67 69.3954C208.476 73.0479 207.765 77.4017 208.682 81.5623C209.599 85.723 212.075 89.3745 215.6 91.7666L217.267 92.7666L252.267 111.1C256.035 113.088 260.422 113.556 264.525 112.41C268.629 111.264 272.137 108.59 274.33 104.938C276.524 101.285 277.235 96.9315 276.318 92.7709C275.401 88.6103 272.925 84.9588 269.4 82.5666L267.733 81.5666L232.733 63.2333Z" fill="url(#paint0_linear_326_139)"/>
<defs>
<linearGradient id="paint0_linear_326_139" x1="367.485" y1="251.651" x2="36.7502" y2="-55.4141" gradientUnits="userSpaceOnUse">
<stop stop-color="#FD9531"/>
<stop offset="0.109665" stop-color="#FAFAFA"/>
<stop offset="0.214671" stop-color="#141925"/>
<stop offset="0.428571" stop-color="#FFDBA5"/>
<stop offset="0.571429" stop-color="#E88DFF" stop-opacity="0.2"/>
<stop offset="0.714286" stop-color="#FD9332"/>
<stop offset="0.857143" stop-color="#FAFAFA"/>
<stop offset="1" stop-color="#1F2833"/>
</linearGradient>
</defs>
</svg>
