<svg width="38" height="28" viewBox="0 0 38 28" fill="none" xmlns="http://www.w3.org/2000/svg">
<path d="M37.4375 13.9999C37.4458 16.9087 36.5019 19.7403 34.75 22.0624C34.6761 22.1609 34.5836 22.2438 34.4776 22.3066C34.3717 22.3693 34.2545 22.4105 34.1326 22.4279C34.0107 22.4454 33.8866 22.4386 33.7673 22.408C33.6481 22.3775 33.536 22.3237 33.4375 22.2499C33.339 22.176 33.256 22.0834 33.1933 21.9775C33.1306 21.8716 33.0893 21.7543 33.0719 21.6324C33.0545 21.5106 33.0613 21.3865 33.0918 21.2672C33.1224 21.1479 33.1761 21.0359 33.25 20.9374C34.3493 19.4717 35.0845 17.7658 35.3951 15.9602C35.7057 14.1546 35.5828 12.3011 35.0366 10.5523C34.4903 8.80353 33.5363 7.20961 32.2531 5.90189C30.97 4.59416 29.3945 3.61007 27.6564 3.03071C25.9183 2.45135 24.0674 2.29331 22.2563 2.5696C20.4451 2.8459 18.7256 3.54863 17.2393 4.61987C15.753 5.69112 14.5426 7.10022 13.7077 8.73105C12.8729 10.3619 12.4375 12.1678 12.4375 13.9999C12.4375 14.2485 12.3387 14.487 12.1629 14.6628C11.9871 14.8386 11.7486 14.9374 11.5 14.9374C11.2514 14.9374 11.0129 14.8386 10.8371 14.6628C10.6613 14.487 10.5625 14.2485 10.5625 13.9999C10.5613 12.6412 10.7673 11.2902 11.1734 9.99361C10.867 9.95688 10.5586 9.9381 10.25 9.93736C8.178 9.93736 6.19086 10.7605 4.72573 12.2256C3.2606 13.6907 2.4375 15.6779 2.4375 17.7499C2.4375 19.8219 3.2606 21.809 4.72573 23.2741C6.19086 24.7393 8.178 25.5624 10.25 25.5624H14C14.2486 25.5624 14.4871 25.6611 14.6629 25.8369C14.8387 26.0128 14.9375 26.2512 14.9375 26.4999C14.9375 26.7485 14.8387 26.987 14.6629 27.1628C14.4871 27.3386 14.2486 27.4374 14 27.4374H10.25C8.90917 27.4369 7.58304 27.1581 6.35553 26.6186C5.12802 26.0792 4.02587 25.2907 3.11883 24.3033C2.21178 23.3158 1.5196 22.1508 1.0861 20.882C0.652588 19.6132 0.48719 18.2682 0.600372 16.9321C0.713553 15.5961 1.10285 14.2981 1.74362 13.1203C2.38439 11.9425 3.26269 10.9105 4.32292 10.0897C5.38315 9.26888 6.60222 8.67709 7.90299 8.35179C9.20376 8.02649 10.5579 7.97476 11.8797 8.19986C13.1952 5.45184 15.4055 3.23243 18.1481 1.90563C20.8907 0.57883 24.0027 0.223412 26.9738 0.897668C29.945 1.57192 32.5988 3.23582 34.5 5.61647C36.4012 7.99712 37.437 10.9532 37.4375 13.9999ZM23.4125 13.3374C23.2367 13.1618 22.9984 13.0632 22.75 13.0632C22.5016 13.0632 22.2633 13.1618 22.0875 13.3374L17.0875 18.3374C16.9219 18.5151 16.8317 18.7501 16.836 18.993C16.8403 19.2359 16.9387 19.4676 17.1105 19.6394C17.2822 19.8112 17.514 19.9095 17.7568 19.9138C17.9997 19.9181 18.2348 19.828 18.4125 19.6624L21.8125 16.2639V26.4999C21.8125 26.7485 21.9113 26.987 22.0871 27.1628C22.2629 27.3386 22.5014 27.4374 22.75 27.4374C22.9986 27.4374 23.2371 27.3386 23.4129 27.1628C23.5887 26.987 23.6875 26.7485 23.6875 26.4999V16.2639L27.0875 19.6624C27.2652 19.828 27.5003 19.9181 27.7432 19.9138C27.986 19.9095 28.2178 19.8112 28.3895 19.6394C28.5613 19.4676 28.6597 19.2359 28.664 18.993C28.6683 18.7501 28.5781 18.5151 28.4125 18.3374L23.4125 13.3374Z" fill="black"/>
</svg>
