<svg width="159" height="181" viewBox="0 0 159 181" fill="none" xmlns="http://www.w3.org/2000/svg">
<g clip-path="url(#clip0_326_144)">
<path fillRule="evenodd" clipRule="evenodd" d="M110 27.5C112.431 27.5 114.763 28.4658 116.482 30.1849C118.201 31.9039 119.167 34.2355 119.167 36.6667V45.8333H126.17C129.015 45.8335 131.821 46.4957 134.365 47.7675L148.83 55H183.333C185.765 55 188.096 55.9658 189.815 57.6849C191.534 59.4039 192.5 61.7355 192.5 64.1667C192.5 66.5978 191.534 68.9294 189.815 70.6485C188.096 72.3676 185.765 73.3333 183.333 73.3333H179.832L200.695 115.069C201.337 116.343 201.667 117.746 201.667 119.167C201.667 128.891 197.804 138.218 190.927 145.094C184.051 151.97 174.725 155.833 165 155.833C155.276 155.833 145.949 151.97 139.073 145.094C132.197 138.218 128.334 128.891 128.333 119.167C128.333 117.746 128.663 116.343 129.305 115.069L150.169 73.3333H148.83C145.985 73.3331 143.18 72.671 140.635 71.3992L126.17 64.1667H119.167V174.167H146.667C149.098 174.167 151.43 175.132 153.149 176.852C154.868 178.571 155.833 180.902 155.833 183.333C155.833 185.764 154.868 188.096 153.149 189.815C151.43 191.534 149.098 192.5 146.667 192.5H73.3335C70.9023 192.5 68.5708 191.534 66.8517 189.815C65.1326 188.096 64.1668 185.764 64.1668 183.333C64.1668 180.902 65.1326 178.571 66.8517 176.852C68.5708 175.132 70.9023 174.167 73.3335 174.167H100.833V64.1667H93.8302L79.3652 71.3992C76.8206 72.671 74.0149 73.3331 71.1702 73.3333H69.8318L90.6952 115.069C91.3326 116.341 91.6653 117.744 91.6668 119.167C91.6668 128.891 87.8037 138.218 80.9274 145.094C74.0511 151.97 64.7248 155.833 55.0002 155.833C45.2756 155.833 35.9492 151.97 29.0729 145.094C22.1966 138.218 18.3335 128.891 18.3335 119.167C18.335 117.744 18.6677 116.341 19.3052 115.069L40.1685 73.3333H36.6668C34.2357 73.3333 31.9041 72.3676 30.185 70.6485C28.4659 68.9294 27.5002 66.5978 27.5002 64.1667C27.5002 61.7355 28.4659 59.4039 30.185 57.6849C31.9041 55.9658 34.2357 55 36.6668 55H71.1702L85.6352 47.7675C88.1798 46.4957 90.9854 45.8335 93.8302 45.8333H100.833V36.6667C100.833 34.2355 101.799 31.9039 103.518 30.1849C105.237 28.4658 107.569 27.5 110 27.5Z" fill="url(#paint0_linear_326_144)"/>
</g>
<defs>
<linearGradient id="paint0_linear_326_144" x1="198.862" y1="170.976" x2="8.56612" y2="18.8252" gradientUnits="userSpaceOnUse">
<stop stop-color="#FD9531"/>
<stop offset="0.109665" stop-color="#FAFAFA"/>
<stop offset="0.214671" stop-color="#141925"/>
<stop offset="0.428571" stop-color="#FFDBA5"/>
<stop offset="0.571429" stop-color="#E88DFF" stop-opacity="0.2"/>
<stop offset="0.714286" stop-color="#FD9332"/>
<stop offset="0.857143" stop-color="#FAFAFA"/>
<stop offset="1" stop-color="#1F2833"/>
</linearGradient>
<clipPath id="clip0_326_144">
<rect width="220" height="220" fill="white"/>
</clipPath>
</defs>
</svg>
