<svg width="24" height="24" viewBox="0 0 24 24" fill="none" xmlns="http://www.w3.org/2000/svg">
<path d="M20.25 4.6875H16.3125V3.75C16.3125 3.20299 16.0952 2.67839 15.7084 2.29159C15.3216 1.9048 14.797 1.6875 14.25 1.6875H9.75C9.20299 1.6875 8.67839 1.9048 8.29159 2.29159C7.9048 2.67839 7.6875 3.20299 7.6875 3.75V4.6875H3.75C3.60082 4.6875 3.45774 4.74676 3.35225 4.85225C3.24676 4.95774 3.1875 5.10082 3.1875 5.25C3.1875 5.39918 3.24676 5.54226 3.35225 5.64775C3.45774 5.75324 3.60082 5.8125 3.75 5.8125H4.6875V19.5C4.6875 19.8481 4.82578 20.1819 5.07192 20.4281C5.31806 20.6742 5.6519 20.8125 6 20.8125H18C18.3481 20.8125 18.6819 20.6742 18.9281 20.4281C19.1742 20.1819 19.3125 19.8481 19.3125 19.5V5.8125H20.25C20.3992 5.8125 20.5423 5.75324 20.6477 5.64775C20.7532 5.54226 20.8125 5.39918 20.8125 5.25C20.8125 5.10082 20.7532 4.95774 20.6477 4.85225C20.5423 4.74676 20.3992 4.6875 20.25 4.6875ZM8.8125 3.75C8.8125 3.50136 8.91127 3.2629 9.08709 3.08709C9.2629 2.91127 9.50136 2.8125 9.75 2.8125H14.25C14.4986 2.8125 14.7371 2.91127 14.9129 3.08709C15.0887 3.2629 15.1875 3.50136 15.1875 3.75V4.6875H8.8125V3.75ZM18.1875 19.5C18.1875 19.5497 18.1677 19.5974 18.1326 19.6326C18.0974 19.6677 18.0497 19.6875 18 19.6875H6C5.95027 19.6875 5.90258 19.6677 5.86742 19.6326C5.83225 19.5974 5.8125 19.5497 5.8125 19.5V5.8125H18.1875V19.5ZM10.3125 9.75V15.75C10.3125 15.8992 10.2532 16.0423 10.1477 16.1477C10.0423 16.2532 9.89918 16.3125 9.75 16.3125C9.60082 16.3125 9.45774 16.2532 9.35225 16.1477C9.24676 16.0423 9.1875 15.8992 9.1875 15.75V9.75C9.1875 9.60082 9.24676 9.45774 9.35225 9.35225C9.45774 9.24676 9.60082 9.1875 9.75 9.1875C9.89918 9.1875 10.0423 9.24676 10.1477 9.35225C10.2532 9.45774 10.3125 9.60082 10.3125 9.75ZM14.8125 9.75V15.75C14.8125 15.8992 14.7532 16.0423 14.6477 16.1477C14.5423 16.2532 14.3992 16.3125 14.25 16.3125C14.1008 16.3125 13.9577 16.2532 13.8523 16.1477C13.7468 16.0423 13.6875 15.8992 13.6875 15.75V9.75C13.6875 9.60082 13.7468 9.45774 13.8523 9.35225C13.9577 9.24676 14.1008 9.1875 14.25 9.1875C14.3992 9.1875 14.5423 9.24676 14.6477 9.35225C14.7532 9.45774 14.8125 9.60082 14.8125 9.75Z" fill="#F42020"/>
</svg>
