<svg width="418" height="340" viewBox="0 0 418 340" fill="none" xmlns="http://www.w3.org/2000/svg">
<path d="M166 52.5C166 49.7152 164.894 47.0445 162.925 45.0754C160.955 43.1062 158.285 42 155.5 42C152.715 42 150.045 43.1062 148.075 45.0754C146.106 47.0445 145 49.7152 145 52.5V84H134.5C120.576 84 107.223 89.5312 97.3769 99.3769C87.5312 109.223 82 122.576 82 136.5V147H50.5C47.7152 147 45.0445 148.106 43.0754 150.075C41.1062 152.045 40 154.715 40 157.5C40 160.285 41.1062 162.955 43.0754 164.925C45.0445 166.894 47.7152 168 50.5 168H82V199.5H50.5C47.7152 199.5 45.0445 200.606 43.0754 202.575C41.1062 204.545 40 207.215 40 210C40 212.785 41.1062 215.455 43.0754 217.425C45.0445 219.394 47.7152 220.5 50.5 220.5H82V252H50.5C47.7152 252 45.0445 253.106 43.0754 255.075C41.1062 257.045 40 259.715 40 262.5C40 265.285 41.1062 267.955 43.0754 269.925C45.0445 271.894 47.7152 273 50.5 273H82V283.5C82 297.424 87.5312 310.777 97.3769 320.623C107.223 330.469 120.576 336 134.5 336H145V367.5C145 370.285 146.106 372.956 148.075 374.925C150.045 376.894 152.715 378 155.5 378C158.285 378 160.955 376.894 162.925 374.925C164.894 372.956 166 370.285 166 367.5V336H187V283.5C187 278.656 187.63 273.987 188.89 269.493C188.019 268.401 187.435 267.109 187.189 265.734C186.943 264.359 187.044 262.944 187.483 261.618L196.576 231H163.879C162.279 231.002 160.713 230.547 159.363 229.689C158.013 228.831 156.936 227.605 156.259 226.156C155.581 224.707 155.332 223.094 155.54 221.508C155.748 219.922 156.404 218.429 157.432 217.203L213.46 150.255C219.571 142.947 231.31 149.184 228.706 158.34L219.97 189H252.1C255.607 189 258.337 191.037 259.66 193.746C266.515 190.615 273.964 188.996 281.5 189H323.5C327.098 189 330.598 189.35 334 190.05V168H365.5C368.285 168 370.956 166.894 372.925 164.925C374.894 162.955 376 160.285 376 157.5C376 154.715 374.894 152.045 372.925 150.075C370.956 148.106 368.285 147 365.5 147H334V136.5C334 122.576 328.469 109.223 318.623 99.3769C308.777 89.5312 295.424 84 281.5 84H271V52.5C271 49.7152 269.894 47.0445 267.925 45.0754C265.955 43.1062 263.285 42 260.5 42C257.715 42 255.045 43.1062 253.075 45.0754C251.106 47.0445 250 49.7152 250 52.5V84H218.5V52.5C218.5 49.7152 217.394 47.0445 215.425 45.0754C213.455 43.1062 210.785 42 208 42C205.215 42 202.545 43.1062 200.575 45.0754C198.606 47.0445 197.5 49.7152 197.5 52.5V84H166V52.5ZM250 252V241.5C250 233.146 253.319 225.134 259.226 219.226C265.134 213.319 273.146 210 281.5 210H323.5C331.854 210 339.866 213.319 345.774 219.226C351.681 225.134 355 233.146 355 241.5V252H365.5C373.854 252 381.866 255.319 387.774 261.226C393.681 267.134 397 275.146 397 283.5V315H355V304.5C355 301.715 353.894 299.044 351.925 297.075C349.956 295.106 347.285 294 344.5 294C341.715 294 339.044 295.106 337.075 297.075C335.106 299.044 334 301.715 334 304.5V315H271V304.5C271 301.715 269.894 299.044 267.925 297.075C265.955 295.106 263.285 294 260.5 294C257.715 294 255.045 295.106 253.075 297.075C251.106 299.044 250 301.715 250 304.5V315H208V283.5C208 275.146 211.319 267.134 217.226 261.226C223.134 255.319 231.146 252 239.5 252H250ZM271 241.5V252H334V241.5C334 238.715 332.894 236.045 330.925 234.075C328.956 232.106 326.285 231 323.5 231H281.5C278.715 231 276.045 232.106 274.075 234.075C272.106 236.045 271 238.715 271 241.5ZM355 346.5V336H397V367.5C397 375.854 393.681 383.866 387.774 389.774C381.866 395.681 373.854 399 365.5 399H239.5C231.146 399 223.134 395.681 217.226 389.774C211.319 383.866 208 375.854 208 367.5V336H250V346.5C250 349.285 251.106 351.956 253.075 353.925C255.045 355.894 257.715 357 260.5 357C263.285 357 265.955 355.894 267.925 353.925C269.894 351.956 271 349.285 271 346.5V336H334V346.5C334 349.285 335.106 351.956 337.075 353.925C339.044 355.894 341.715 357 344.5 357C347.285 357 349.956 355.894 351.925 353.925C353.894 351.956 355 349.285 355 346.5Z" fill="url(#paint0_linear_326_62)"/>
<defs>
<linearGradient id="paint0_linear_326_62" x1="391.539" y1="352.43" x2="-8.67357" y2="64.4401" gradientUnits="userSpaceOnUse">
<stop stop-color="#FD9531"/>
<stop offset="0.109665" stop-color="#FAFAFA"/>
<stop offset="0.214671" stop-color="#141925"/>
<stop offset="0.428571" stop-color="#FFDBA5"/>
<stop offset="0.571429" stop-color="#E88DFF" stop-opacity="0.2"/>
<stop offset="0.714286" stop-color="#FD9332"/>
<stop offset="0.857143" stop-color="#FAFAFA"/>
<stop offset="1" stop-color="#1F2833"/>
</linearGradient>
</defs>
</svg>
