<svg width="362" height="286" viewBox="0 0 362 286" fill="none" xmlns="http://www.w3.org/2000/svg">
<rect x="-142" y="111" width="480" height="280.048" rx="32" fill="#FBFAF9"/>
<g style="mix-blend-mode:plus-lighter" opacity="0.02">
<path d="M169.5 245V280H222V249.9L169.5 245ZM169.5 227.5C169.5 208.25 187 192.5 208 192.5H327V175H414.5V367.5H327V243.425L169.5 227.5ZM414.5 157.5H327V122.5L233.2 91.175C231.103 90.5343 229.156 89.4774 227.477 88.0673C225.798 86.6572 224.42 84.9229 223.426 82.9681C222.432 81.0134 221.843 78.8783 221.693 76.6905C221.543 74.5028 221.836 72.3073 222.554 70.2354C223.272 68.1634 224.401 66.2575 225.872 64.6317C227.344 63.0059 229.128 61.6935 231.119 60.773C233.109 59.8525 235.264 59.3429 237.456 59.2745C239.648 59.2061 241.831 59.5804 243.875 60.375L414.5 122.5V157.5Z" fill="url(#paint0_linear_2001_65)"/>
</g>
<path d="M-12.1694 175.187V160.031H-5.5765C-4.62225 160.031 -3.79069 160.197 -3.08246 160.529C-2.37356 160.861 -1.8246 161.33 -1.43422 161.936C-1.04385 162.543 -0.848668 163.257 -0.848668 164.08V164.34C-0.848668 165.249 -1.06555 165.985 -1.49929 166.548C-1.93304 167.111 -2.46776 167.523 -3.10415 167.782V168.172C-2.52537 168.201 -2.0774 168.403 -1.75954 168.778C-1.44101 169.139 -1.28241 169.623 -1.28241 170.229V175.187H-4.14513V170.64C-4.14513 170.294 -4.23866 170.012 -4.42707 169.796C-4.60057 169.579 -4.89674 169.471 -5.31626 169.471H-9.30671V175.187H-12.1694ZM-9.30671 166.873H-5.88012C-5.20036 166.873 -4.67241 166.692 -4.29695 166.332C-3.90657 165.956 -3.71139 165.466 -3.71139 164.859V164.643C-3.71139 164.037 -3.89912 163.553 -4.27526 163.192C-4.65072 162.817 -5.18612 162.629 -5.88012 162.629H-9.30671V166.873ZM1.53354 175.187V160.031H11.2928V162.629H4.39627V166.245H10.6856V168.843H4.39627V172.589H11.4229V175.187H1.53354ZM19.4411 175.49C17.5327 175.49 16.0146 174.971 14.8868 173.931C13.7591 172.878 13.1952 171.377 13.1952 169.428V165.79C13.1952 163.842 13.7591 162.348 14.8868 161.308C16.0146 160.255 17.5327 159.728 19.4411 159.728C21.3496 159.728 22.8677 160.255 23.9955 161.308C25.1232 162.348 25.6871 163.842 25.6871 165.79V169.428C25.6871 171.377 25.1232 172.878 23.9955 173.931C22.8677 174.971 21.3496 175.49 19.4411 175.49ZM19.4411 172.935C20.5113 172.935 21.3422 172.625 21.9352 172.004C22.5282 171.384 22.8244 170.554 22.8244 169.514V165.704C22.8244 164.664 22.5282 163.834 21.9352 163.214C21.3422 162.593 20.5113 162.283 19.4411 162.283C18.3859 162.283 17.5543 162.593 16.9471 163.214C16.3541 163.834 16.0579 164.664 16.0579 165.704V169.514C16.0579 170.554 16.3541 171.384 16.9471 172.004C17.5543 172.625 18.3859 172.935 19.4411 172.935ZM20.4388 179.084C19.7305 179.084 19.1517 178.861 18.7038 178.413C18.27 177.98 18.0532 177.396 18.0532 176.66V175.187H20.8291V176.226C20.8291 176.66 21.0318 176.876 21.4364 176.876H22.7159V179.084H20.4388ZM34.0536 175.49C32.81 175.49 31.7405 175.266 30.8439 174.819C29.9622 174.357 29.2824 173.707 28.8053 172.87C28.3424 172.019 28.1113 171.016 28.1113 169.861V160.031H30.974V169.947C30.974 170.871 31.2343 171.6 31.7548 172.134C32.2895 172.668 33.056 172.935 34.0536 172.935C35.0512 172.935 35.8103 172.668 36.3308 172.134C36.8655 171.6 37.1332 170.871 37.1332 169.947V160.031H39.9959V169.861C39.9959 171.016 39.7574 172.019 39.2803 172.87C38.8174 173.707 38.1383 174.357 37.2417 174.819C36.3599 175.266 35.2973 175.49 34.0536 175.49ZM42.7692 175.187V160.031H52.5285V162.629H45.6319V166.245H51.9212V168.843H45.6319V172.589H52.6586V175.187H42.7692ZM60.0479 175.49C58.8768 175.49 57.8426 175.281 56.9466 174.862C56.05 174.444 55.3485 173.845 54.8429 173.065C54.3367 172.286 54.0839 171.347 54.0839 170.251V169.644H56.9032V170.251C56.9032 171.16 57.1852 171.845 57.749 172.308C58.3129 172.755 59.0787 172.979 60.0479 172.979C61.0306 172.979 61.7612 172.784 62.2383 172.394C62.7296 172.004 62.9757 171.506 62.9757 170.9C62.9757 170.481 62.8523 170.142 62.607 169.883C62.3752 169.623 62.0282 169.414 61.566 169.255C61.1173 169.081 60.5684 168.922 59.9178 168.778L59.4189 168.67C58.378 168.439 57.4813 168.15 56.7297 167.804C55.9923 167.443 55.421 166.974 55.0164 166.397C54.6261 165.819 54.4309 165.068 54.4309 164.145C54.4309 163.221 54.6477 162.434 55.0815 161.785C55.5295 161.121 56.1509 160.616 56.9466 160.269C57.7558 159.909 58.7033 159.728 59.7876 159.728C60.872 159.728 61.833 159.915 62.672 160.291C63.5246 160.651 64.1901 161.2 64.6673 161.936C65.1586 162.658 65.4046 163.568 65.4046 164.664V165.314H62.5853V164.664C62.5853 164.087 62.4694 163.625 62.2383 163.279C62.0214 162.918 61.7029 162.658 61.284 162.499C60.8645 162.326 60.3657 162.24 59.7876 162.24C58.9201 162.24 58.2763 162.405 57.8575 162.737C57.4522 163.055 57.2502 163.495 57.2502 164.058C57.2502 164.434 57.3437 164.751 57.5322 165.011C57.7341 165.271 58.031 165.487 58.4213 165.66C58.8117 165.834 59.3105 165.985 59.9178 166.115L60.4166 166.223C61.5009 166.454 62.4403 166.75 63.2359 167.111C64.0451 167.472 64.674 167.948 65.1227 168.54C65.5707 169.132 65.795 169.89 65.795 170.814C65.795 171.737 65.5564 172.553 65.0793 173.26C64.6164 173.953 63.9516 174.502 63.0841 174.906C62.2308 175.295 61.219 175.49 60.0479 175.49ZM70.9559 175.187V162.629H66.5317V160.031H78.2428V162.629H73.8186V175.187H70.9559ZM87.8991 175.187V162.629H83.4749V160.031H95.186V162.629H90.7618V175.187H87.8991ZM97.1358 175.187V160.031H106.895V162.629H99.9986V166.245H106.288V168.843H99.9986V172.589H107.025V175.187H97.1358ZM114.414 175.49C113.243 175.49 112.209 175.281 111.313 174.862C110.417 174.444 109.715 173.845 109.209 173.065C108.703 172.286 108.45 171.347 108.45 170.251V169.644H111.269V170.251C111.269 171.16 111.551 171.845 112.115 172.308C112.679 172.755 113.445 172.979 114.414 172.979C115.397 172.979 116.127 172.784 116.604 172.394C117.096 172.004 117.342 171.506 117.342 170.9C117.342 170.481 117.219 170.142 116.973 169.883C116.742 169.623 116.395 169.414 115.932 169.255C115.484 169.081 114.934 168.922 114.284 168.778L113.785 168.67C112.744 168.439 111.848 168.15 111.096 167.804C110.358 167.443 109.788 166.974 109.382 166.397C108.992 165.819 108.797 165.068 108.797 164.145C108.797 163.221 109.014 162.434 109.447 161.785C109.896 161.121 110.518 160.616 111.313 160.269C112.122 159.909 113.069 159.728 114.154 159.728C115.238 159.728 116.2 159.915 117.038 160.291C117.891 160.651 118.556 161.2 119.033 161.936C119.525 162.658 119.771 163.568 119.771 164.664V165.314H116.951V164.664C116.951 164.087 116.836 163.625 116.604 163.279C116.387 162.918 116.07 162.658 115.65 162.499C115.231 162.326 114.732 162.24 114.154 162.24C113.286 162.24 112.643 162.405 112.223 162.737C111.819 163.055 111.616 163.495 111.616 164.058C111.616 164.434 111.71 164.751 111.898 165.011C112.101 165.271 112.397 165.487 112.787 165.66C113.178 165.834 113.676 165.985 114.284 166.115L114.783 166.223C115.867 166.454 116.807 166.75 117.602 167.111C118.412 167.472 119.041 167.948 119.489 168.54C119.937 169.132 120.161 169.89 120.161 170.814C120.161 171.737 119.922 172.553 119.445 173.26C118.983 173.953 118.318 174.502 117.45 174.906C116.597 175.295 115.585 175.49 114.414 175.49ZM125.323 175.187V162.629H120.898V160.031H132.609V162.629H128.185V175.187H125.323ZM134.559 175.187V160.031H140.002L143.017 173.239H143.407V160.031H146.226V175.187H140.783L137.768 161.98H137.378V175.187H134.559ZM149.088 175.187V160.031H158.847V162.629H151.95V166.245H158.24V168.843H151.95V172.589H158.977V175.187H149.088ZM164.61 175.187V162.629H160.186V160.031H171.897V162.629H167.472V175.187H164.61ZM181.553 175.187V162.629H177.129V160.031H188.84V162.629H184.416V175.187H181.553ZM196.074 175.49C194.165 175.49 192.647 174.971 191.52 173.931C190.392 172.878 189.828 171.377 189.828 169.428V165.79C189.828 163.842 190.392 162.348 191.52 161.308C192.647 160.255 194.165 159.728 196.074 159.728C197.982 159.728 199.501 160.255 200.628 161.308C201.756 162.348 202.32 163.842 202.32 165.79V169.428C202.32 171.377 201.756 172.878 200.628 173.931C199.501 174.971 197.982 175.49 196.074 175.49ZM196.074 172.935C197.144 172.935 197.975 172.625 198.568 172.004C199.161 171.384 199.457 170.554 199.457 169.514V165.704C199.457 164.664 199.161 163.834 198.568 163.214C197.975 162.593 197.144 162.283 196.074 162.283C195.019 162.283 194.187 162.593 193.58 163.214C192.987 163.834 192.691 164.664 192.691 165.704V169.514C192.691 170.554 192.987 171.384 193.58 172.004C194.187 172.625 195.019 172.935 196.074 172.935ZM204.831 175.187V160.031H207.694V166.05H208.084L213.007 160.031H216.672L210.339 167.501L216.889 175.187H213.115L208.084 169.038H207.694V175.187H204.831ZM218.406 175.187V160.031H228.166V162.629H221.269V166.245H227.558V168.843H221.269V172.589H228.296V175.187H218.406ZM230.415 175.187V160.031H235.859L238.873 173.239H239.263V160.031H242.083V175.187H236.639L233.625 161.98H233.234V175.187H230.415ZM250.214 175.49C249.042 175.49 248.009 175.281 247.112 174.862C246.216 174.444 245.515 173.845 245.009 173.065C244.503 172.286 244.25 171.347 244.25 170.251V169.644H247.069V170.251C247.069 171.16 247.351 171.845 247.915 172.308C248.479 172.755 249.245 172.979 250.214 172.979C251.197 172.979 251.927 172.784 252.404 172.394C252.896 172.004 253.141 171.506 253.141 170.9C253.141 170.481 253.019 170.142 252.773 169.883C252.542 169.623 252.195 169.414 251.732 169.255C251.284 169.081 250.734 168.922 250.083 168.778L249.585 168.67C248.544 168.439 247.648 168.15 246.895 167.804C246.158 167.443 245.587 166.974 245.182 166.397C244.792 165.819 244.597 165.068 244.597 164.145C244.597 163.221 244.813 162.434 245.247 161.785C245.696 161.121 246.317 160.616 247.112 160.269C247.922 159.909 248.869 159.728 249.953 159.728C251.038 159.728 251.999 159.915 252.838 160.291C253.691 160.651 254.356 161.2 254.833 161.936C255.325 162.658 255.57 163.568 255.57 164.664V165.314H252.751V164.664C252.751 164.087 252.636 163.625 252.404 163.279C252.187 162.918 251.869 162.658 251.45 162.499C251.031 162.326 250.532 162.24 249.953 162.24C249.086 162.24 248.443 162.405 248.023 162.737C247.618 163.055 247.416 163.495 247.416 164.058C247.416 164.434 247.51 164.751 247.698 165.011C247.9 165.271 248.197 165.487 248.587 165.66C248.977 165.834 249.476 165.985 250.083 166.115L250.582 166.223C251.667 166.454 252.607 166.75 253.402 167.111C254.211 167.472 254.84 167.948 255.288 168.54C255.737 169.132 255.961 169.89 255.961 170.814C255.961 171.737 255.722 172.553 255.245 173.26C254.783 173.953 254.117 174.502 253.25 174.906C252.397 175.295 251.385 175.49 250.214 175.49Z" fill="#0C0C4F"/>
<path d="M180.377 203.427H-96.1646C-101.016 203.427 -104.95 207.354 -104.95 212.198V232.028C-104.95 236.872 -101.016 240.798 -96.1646 240.798H180.377C185.229 240.798 189.162 236.872 189.162 232.028V212.198C189.162 207.354 185.229 203.427 180.377 203.427Z" fill="#EDF0F4"/>
<path d="M180.377 203.427H-96.1646C-101.016 203.427 -104.95 207.354 -104.95 212.198V232.028C-104.95 236.872 -101.016 240.798 -96.1646 240.798H180.377C185.229 240.798 189.162 236.872 189.162 232.028V212.198C189.162 207.354 185.229 203.427 180.377 203.427Z" stroke="#D4D4D4" strokeLinecap="round" strokeLinejoin="round" stroke-dasharray="4 6"/>
<path d="M-92.1309 226.689V218.147H-91.1041V226.689H-92.1309ZM-89.1101 226.689V220.722H-88.1689V221.735H-87.9978C-87.8675 221.45 -87.6475 221.194 -87.3378 220.966C-87.02 220.73 -86.5555 220.612 -85.9444 220.612C-85.4962 220.612 -85.0969 220.706 -84.7465 220.893C-84.388 221.079 -84.1028 221.356 -83.8909 221.722C-83.6791 222.089 -83.5731 222.54 -83.5731 223.077V226.689H-84.5387V223.15C-84.5387 222.556 -84.6895 222.125 -84.991 221.857C-85.2843 221.588 -85.6836 221.454 -86.1888 221.454C-86.7674 221.454 -87.24 221.641 -87.6067 222.015C-87.9652 222.39 -88.1445 222.947 -88.1445 223.687V226.689H-89.1101ZM-79.2062 226.86C-79.9477 226.86 -80.5751 226.689 -81.0885 226.347C-81.5937 226.006 -81.8993 225.465 -82.0052 224.724L-81.0885 224.517C-81.0233 224.907 -80.9011 225.216 -80.7218 225.444C-80.5426 225.664 -80.3226 225.823 -80.0618 225.92C-79.7929 226.009 -79.5077 226.054 -79.2062 226.054C-78.758 226.054 -78.4036 225.965 -78.1428 225.786C-77.882 225.607 -77.7516 225.367 -77.7516 225.066C-77.7516 224.757 -77.878 224.541 -78.1305 224.419C-78.375 224.289 -78.7132 224.184 -79.145 224.102L-79.6462 224.017C-80.0292 223.952 -80.3795 223.85 -80.6973 223.711C-81.0151 223.573 -81.2678 223.386 -81.4552 223.15C-81.6426 222.914 -81.7363 222.617 -81.7363 222.259C-81.7363 221.722 -81.5285 221.304 -81.1129 221.002C-80.6973 220.701 -80.1473 220.551 -79.4628 220.551C-78.7865 220.551 -78.2406 220.706 -77.825 221.015C-77.4013 221.316 -77.1283 221.743 -77.006 222.296L-77.9105 222.528C-77.9839 222.097 -78.1591 221.796 -78.4361 221.625C-78.7132 221.446 -79.0554 221.356 -79.4628 221.356C-79.8703 221.356 -80.1922 221.433 -80.4284 221.588C-80.6648 221.735 -80.7829 221.954 -80.7829 222.247C-80.7829 222.532 -80.6729 222.744 -80.4529 222.882C-80.2248 223.012 -79.9232 223.11 -79.5484 223.175L-79.0473 223.26C-78.6236 223.333 -78.2447 223.435 -77.9105 223.565C-77.5683 223.687 -77.2994 223.866 -77.1038 224.102C-76.9002 224.338 -76.7983 224.647 -76.7983 225.029C-76.7983 225.615 -77.0183 226.067 -77.4583 226.384C-77.8902 226.701 -78.4728 226.86 -79.2062 226.86ZM-72.4305 226.86C-73.0336 226.86 -73.5632 226.734 -74.0195 226.482C-74.4759 226.221 -74.8303 225.859 -75.0829 225.395C-75.3355 224.932 -75.4618 224.395 -75.4618 223.785V223.638C-75.4618 223.02 -75.3355 222.479 -75.0829 222.015C-74.8303 221.552 -74.4799 221.194 -74.0317 220.941C-73.5836 220.681 -73.0702 220.551 -72.4916 220.551C-71.9294 220.551 -71.4324 220.673 -71.0004 220.917C-70.5686 221.153 -70.2304 221.494 -69.986 221.942C-69.7415 222.39 -69.6193 222.914 -69.6193 223.516V223.956H-74.4962C-74.4717 224.598 -74.2639 225.103 -73.8728 225.469C-73.4817 225.826 -72.9928 226.006 -72.4061 226.006C-71.8927 226.006 -71.4975 225.887 -71.2205 225.652C-70.9435 225.416 -70.7315 225.135 -70.5849 224.81L-69.7537 225.212C-69.8759 225.465 -70.0471 225.717 -70.2671 225.969C-70.479 226.221 -70.7601 226.433 -71.1104 226.604C-71.4527 226.774 -71.8927 226.86 -72.4305 226.86ZM-74.4839 223.162H-70.5971C-70.6297 222.609 -70.8212 222.178 -71.1716 221.869C-71.5138 221.56 -71.9538 221.405 -72.4916 221.405C-73.0376 221.405 -73.4858 221.56 -73.8361 221.869C-74.1865 222.178 -74.4025 222.609 -74.4839 223.162ZM-67.935 226.689V220.722H-66.9939V221.454H-66.8228C-66.7168 221.194 -66.5539 221.002 -66.3338 220.88C-66.1138 220.758 -65.8245 220.697 -65.466 220.697H-64.7571V221.576H-65.5271C-65.959 221.576 -66.3094 221.698 -66.5783 221.942C-66.839 222.178 -66.9694 222.548 -66.9694 223.053V226.689H-67.935ZM-61.1277 226.689C-61.4699 226.689 -61.7343 226.595 -61.9222 226.408C-62.1009 226.221 -62.1911 225.965 -62.1911 225.64V221.564H-63.9878V220.722H-62.1911V218.599H-61.2255V220.722H-59.2698V221.564H-61.2255V225.493C-61.2255 225.737 -61.1071 225.859 -60.871 225.859H-59.5387V226.689H-61.1277ZM-53.8185 226.689L-55.2119 218.147H-54.1851L-52.9751 226.03H-52.804L-51.2272 218.147H-49.3938L-47.8293 226.03H-47.6582L-46.4481 218.147H-45.4214L-46.8148 226.689H-48.6482L-50.2249 218.757H-50.3961L-51.9728 226.689H-53.8185ZM-42.2412 226.86C-42.6567 226.86 -43.0356 226.787 -43.3779 226.64C-43.7201 226.494 -43.989 226.282 -44.1846 226.006C-44.3802 225.729 -44.4779 225.392 -44.4779 224.993C-44.4779 224.586 -44.3802 224.252 -44.1846 223.992C-43.989 223.724 -43.7201 223.525 -43.3779 223.394C-43.0356 223.256 -42.6522 223.187 -42.2289 223.187H-40.2122V222.747C-40.2122 222.324 -40.3382 221.991 -40.5911 221.747C-40.8355 221.503 -41.2022 221.381 -41.6911 221.381C-42.1716 221.381 -42.5467 221.499 -42.8156 221.735C-43.0845 221.963 -43.2679 222.272 -43.3657 222.662L-44.2702 222.369C-44.1724 222.036 -44.0173 221.735 -43.8057 221.466C-43.5933 221.189 -43.3122 220.97 -42.9623 220.807C-42.6033 220.636 -42.1755 220.551 -41.6789 220.551C-40.9127 220.551 -40.3176 220.75 -39.8944 221.149C-39.4704 221.539 -39.2588 222.092 -39.2588 222.808V225.505C-39.2588 225.749 -39.1442 225.871 -38.9166 225.871H-38.3665V226.689H-39.2099C-39.4788 226.689 -39.6942 226.616 -39.8577 226.469C-40.0204 226.314 -40.1022 226.112 -40.1022 225.859V225.798H-40.2488C-40.3382 225.953 -40.4605 226.115 -40.6155 226.286C-40.7622 226.449 -40.9654 226.583 -41.2267 226.689C-41.4872 226.803 -41.8256 226.86 -42.2412 226.86ZM-42.1312 226.03C-41.5605 226.03 -41.0999 225.863 -40.75 225.53C-40.3909 225.188 -40.2122 224.712 -40.2122 224.102V223.968H-42.1923C-42.575 223.968 -42.8928 224.053 -43.1457 224.224C-43.3901 224.386 -43.5123 224.635 -43.5123 224.968C-43.5123 225.302 -43.3855 225.562 -43.1334 225.749C-42.8722 225.936 -42.5383 226.03 -42.1312 226.03ZM-37.0434 226.689V218.147H-36.0778V226.689H-37.0434ZM-34.0481 226.689V218.147H-33.0825V226.689H-34.0481ZM-28.314 226.86C-28.9168 226.86 -29.4462 226.734 -29.903 226.482C-30.3591 226.221 -30.7135 225.859 -30.9664 225.395C-31.2185 224.932 -31.3453 224.395 -31.3453 223.785V223.638C-31.3453 223.02 -31.2185 222.479 -30.9664 222.015C-30.7135 221.552 -30.3629 221.194 -29.9152 220.941C-29.4668 220.681 -28.9534 220.551 -28.3751 220.551C-27.8129 220.551 -27.3156 220.673 -26.884 220.917C-26.4516 221.153 -26.1139 221.494 -25.8695 221.942C-25.625 222.39 -25.5028 222.914 -25.5028 223.516V223.956H-30.3797C-30.3552 224.598 -30.1475 225.103 -29.7563 225.469C-29.3652 225.826 -28.8763 226.006 -28.2896 226.006C-27.7762 226.006 -27.3805 225.887 -27.104 225.652C-26.8267 225.416 -26.6151 225.135 -26.4684 224.81L-25.6372 225.212C-25.7595 225.465 -25.9306 225.717 -26.1506 225.969C-26.3622 226.221 -26.6433 226.433 -26.994 226.604C-27.3362 226.774 -27.7762 226.86 -28.314 226.86ZM-30.3675 223.162H-26.4806C-26.5127 222.609 -26.7044 222.178 -27.0551 221.869C-27.3973 221.56 -27.8373 221.405 -28.3751 221.405C-28.9206 221.405 -29.369 221.56 -29.7197 221.869C-30.0695 222.178 -30.2857 222.609 -30.3675 223.162ZM-21.8688 226.689C-22.211 226.689 -22.4761 226.595 -22.6633 226.408C-22.8428 226.221 -22.9322 225.965 -22.9322 225.64V221.564H-24.7289V220.722H-22.9322V218.599H-21.9666V220.722H-20.0109V221.564H-21.9666V225.493C-21.9666 225.737 -21.8482 225.859 -21.6121 225.859H-20.2798V226.689H-21.8688ZM-16.1714 226.689L-13.5313 218.147H-11.7223L-9.08221 226.689H-10.1456L-10.8056 224.529H-14.448L-15.1081 226.689H-16.1714ZM-14.1913 223.602H-11.0745L-12.5413 218.769H-12.7124L-14.1913 223.602ZM-5.23354 226.86C-5.7469 226.86 -6.21977 226.738 -6.65139 226.494C-7.08378 226.25 -7.42602 225.896 -7.67812 225.432C-7.93098 224.968 -8.05701 224.419 -8.05701 223.785V223.626C-8.05701 222.992 -7.93098 222.446 -7.67812 221.991C-7.42602 221.527 -7.0876 221.173 -6.66362 220.929C-6.232 220.677 -5.7553 220.551 -5.23354 220.551C-4.81797 220.551 -4.46809 220.608 -4.18239 220.722C-3.88905 220.828 -3.65298 220.966 -3.47346 221.137C-3.2947 221.299 -3.15567 221.475 -3.05789 221.661H-2.88677V218.147H-1.92117V226.689H-2.86233V225.701H-3.03345C-3.19693 226.002 -3.44901 226.27 -3.79125 226.506C-4.13349 226.742 -4.61476 226.86 -5.23354 226.86ZM-4.97687 226.006C-4.35809 226.006 -3.85695 225.81 -3.47346 225.42C-3.08233 225.021 -2.88677 224.468 -2.88677 223.76V223.65C-2.88677 222.943 -3.08233 222.394 -3.47346 222.003C-3.85695 221.604 -4.35809 221.405 -4.97687 221.405C-5.58801 221.405 -6.09373 221.604 -6.4925 222.003C-6.88363 222.394 -7.07919 222.943 -7.07919 223.65V223.76C-7.07919 224.468 -6.88363 225.021 -6.4925 225.42C-6.09373 225.81 -5.58801 226.006 -4.97687 226.006ZM2.6326 226.86C2.11924 226.86 1.64636 226.738 1.21474 226.494C0.782364 226.25 0.440132 225.896 0.188034 225.432C-0.064827 224.968 -0.190872 224.419 -0.190872 223.785V223.626C-0.190872 222.992 -0.064827 222.446 0.188034 221.991C0.440132 221.527 0.778542 221.173 1.20252 220.929C1.63414 220.677 2.11083 220.551 2.6326 220.551C3.04817 220.551 3.39804 220.608 3.68375 220.722C3.9771 220.828 4.21316 220.966 4.39268 221.137C4.57144 221.299 4.71046 221.475 4.80825 221.661H4.97937V218.147H5.94498V226.689H5.00382V225.701H4.8327C4.66921 226.002 4.41713 226.27 4.07489 226.506C3.73265 226.742 3.25137 226.86 2.6326 226.86ZM2.88927 226.006C3.50806 226.006 4.00919 225.81 4.39268 225.42C4.78381 225.021 4.97937 224.468 4.97937 223.76V223.65C4.97937 222.943 4.78381 222.394 4.39268 222.003C4.00919 221.604 3.50806 221.405 2.88927 221.405C2.27813 221.405 1.77241 221.604 1.37364 222.003C0.982506 222.394 0.786949 222.943 0.786949 223.65V223.76C0.786949 224.468 0.982506 225.021 1.37364 225.42C1.77241 225.81 2.27813 226.006 2.88927 226.006ZM7.96785 226.689V220.722H8.90901V221.454H9.08013C9.18632 221.194 9.34903 221.002 9.56904 220.88C9.78905 220.758 10.0786 220.697 10.4369 220.697H11.1458V221.576H10.3757C9.94413 221.576 9.59348 221.698 9.32458 221.942C9.06408 222.178 8.93346 222.548 8.93346 223.053V226.689H7.96785ZM15.0983 226.86C14.4956 226.86 13.9662 226.734 13.5094 226.482C13.0533 226.221 12.6988 225.859 12.446 225.395C12.1939 224.932 12.0671 224.395 12.0671 223.785V223.638C12.0671 223.02 12.1939 222.479 12.446 222.015C12.6988 221.552 13.0495 221.194 13.4971 220.941C13.9456 220.681 14.4589 220.551 15.0372 220.551C15.5995 220.551 16.0968 220.673 16.5284 220.917C16.9608 221.153 17.2984 221.494 17.5429 221.942C17.7873 222.39 17.9096 222.914 17.9096 223.516V223.956H13.0327C13.0571 224.598 13.2649 225.103 13.656 225.469C14.0472 225.826 14.5361 226.006 15.1228 226.006C15.6361 226.006 16.0318 225.887 16.3084 225.652C16.5857 225.416 16.7973 225.135 16.944 224.81L17.7751 225.212C17.6529 225.465 17.4818 225.717 17.2618 225.969C17.0502 226.221 16.769 226.433 16.4184 226.604C16.0761 226.774 15.6361 226.86 15.0983 226.86ZM13.0449 223.162H16.9318C16.8997 222.609 16.7079 222.178 16.3573 221.869C16.015 221.56 15.575 221.405 15.0372 221.405C14.4918 221.405 14.0434 221.56 13.6927 221.869C13.3428 222.178 13.1266 222.609 13.0449 223.162ZM22.0019 226.86C21.2602 226.86 20.633 226.689 20.1196 226.347C19.6147 226.006 19.3091 225.465 19.2029 224.724L20.1196 224.517C20.1845 224.907 20.3068 225.216 20.4863 225.444C20.6658 225.664 20.8858 225.823 21.1463 225.92C21.4152 226.009 21.7002 226.054 22.0019 226.054C22.4504 226.054 22.8048 225.965 23.0653 225.786C23.3258 225.607 23.4564 225.367 23.4564 225.066C23.4564 224.757 23.3304 224.541 23.0775 224.419C22.8331 224.289 22.4947 224.184 22.063 224.102L21.5619 224.017C21.1792 223.952 20.8285 223.85 20.5107 223.711C20.193 223.573 19.9401 223.386 19.7529 223.15C19.5658 222.914 19.4718 222.617 19.4718 222.259C19.4718 221.722 19.6796 221.304 20.0952 221.002C20.5107 220.701 21.0608 220.551 21.7452 220.551C22.4213 220.551 22.9675 220.706 23.3831 221.015C23.8071 221.316 24.0798 221.743 24.202 222.296L23.2975 222.528C23.2242 222.097 23.0493 221.796 22.772 221.625C22.4947 221.446 22.1524 221.356 21.7452 221.356C21.3381 221.356 21.0157 221.433 20.7796 221.588C20.5436 221.735 20.4252 221.954 20.4252 222.247C20.4252 222.532 20.5352 222.744 20.7552 222.882C20.9836 223.012 21.2846 223.11 21.6597 223.175L22.1608 223.26C22.5848 223.333 22.9637 223.435 23.2975 223.565C23.6398 223.687 23.9087 223.866 24.1042 224.102C24.3082 224.338 24.4098 224.647 24.4098 225.029C24.4098 225.615 24.1898 226.067 23.7498 226.384C23.3182 226.701 22.7353 226.86 22.0019 226.86ZM28.4479 226.86C27.7062 226.86 27.079 226.689 26.5656 226.347C26.0599 226.006 25.7543 225.465 25.6489 224.724L26.5656 224.517C26.6306 224.907 26.7528 225.216 26.9323 225.444C27.1111 225.664 27.3311 225.823 27.5923 225.92C27.8612 226.009 28.1462 226.054 28.4479 226.054C28.8956 226.054 29.2501 225.965 29.5113 225.786C29.7718 225.607 29.9024 225.367 29.9024 225.066C29.9024 224.757 29.7756 224.541 29.5235 224.419C29.2791 224.289 28.9407 224.184 28.509 224.102L28.0079 224.017C27.6244 223.952 27.2746 223.85 26.9568 223.711C26.639 223.573 26.3861 223.386 26.1989 223.15C26.011 222.914 25.9178 222.617 25.9178 222.259C25.9178 221.722 26.1256 221.304 26.5412 221.002C26.9567 220.701 27.5068 220.551 28.1913 220.551C28.8673 220.551 29.4135 220.706 29.8291 221.015C30.2523 221.316 30.5258 221.743 30.648 222.296L29.7436 222.528C29.6702 222.097 29.4945 221.796 29.218 221.625C28.9407 221.446 28.5984 221.356 28.1913 221.356C27.7833 221.356 27.4617 221.433 27.2256 221.588C26.9888 221.735 26.8712 221.954 26.8712 222.247C26.8712 222.532 26.9812 222.744 27.2012 222.882C27.4289 223.012 27.7306 223.11 28.1057 223.175L28.6068 223.26C29.03 223.333 29.409 223.435 29.7436 223.565C30.0858 223.687 30.3547 223.866 30.5503 224.102C30.7535 224.338 30.8558 224.647 30.8558 225.029C30.8558 225.615 30.6358 226.067 30.1958 226.384C29.7634 226.701 29.1813 226.86 28.4479 226.86Z" fill="#B4B4B4"/>
<path d="M172.738 209.147H116.971C114.44 209.147 112.388 211.196 112.388 213.723V259.484C112.388 262.011 114.44 264.06 116.971 264.06H172.738C175.269 264.06 177.321 262.011 177.321 259.484V213.723C177.321 211.196 175.269 209.147 172.738 209.147Z" fill="white"/>
<path d="M169.682 212.389H120.027C117.601 212.389 115.634 214.352 115.634 216.774V228.977C115.634 231.399 117.601 233.362 120.027 233.362H169.682C172.108 233.362 174.075 231.399 174.075 228.977V216.774C174.075 214.352 172.108 212.389 169.682 212.389Z" fill="#FEF8F1"/>
<path d="M169.682 212.389H120.027C117.601 212.389 115.634 214.352 115.634 216.774V228.977C115.634 231.399 117.601 233.362 120.027 233.362H169.682C172.108 233.362 174.075 231.399 174.075 228.977V216.774C174.075 214.352 172.108 212.389 169.682 212.389Z" stroke="#A4A4A4" strokeWidth="0.5"/>
<path d="M128.43 229.74C132.227 229.74 135.305 226.666 135.305 222.876C135.305 219.085 132.227 216.012 128.43 216.012C124.632 216.012 121.554 219.085 121.554 222.876C121.554 226.666 124.632 229.74 128.43 229.74Z" fill="#EDF0F4"/>
<path d="M128.411 218.757L128.356 218.943V224.324L128.411 224.379L130.913 222.902L128.411 218.757Z" fill="#343434"/>
<path d="M128.412 218.757L125.909 222.902L128.412 224.379V221.767V218.757Z" fill="#7A7A7A"/>
<path d="M128.411 224.852L128.38 224.889V226.807L128.411 226.897L130.915 223.376L128.411 224.852Z" fill="#3C3C3B"/>
<path d="M128.412 226.897V224.852L125.909 223.376L128.412 226.897Z" fill="#7A7A7A"/>
<path d="M128.412 224.379L130.913 222.902L128.412 221.767V224.379Z" fill="#141414"/>
<path d="M125.909 222.902L128.412 224.379V221.767L125.909 222.902Z" fill="#393939"/>
<path d="M139.257 227.452V218.91H144.757V220.374H140.87V222.412H144.415V223.876H140.87V225.987H144.83V227.452H139.257ZM148.005 227.452V220.374H145.512V218.91H152.112V220.374H149.619V227.452H148.005ZM153.211 227.452V218.91H154.824V222.436H158.002V218.91H159.615V227.452H158.002V223.901H154.824V227.452H153.211Z" fill="#0C0C4F"/>
<path d="M169.682 239.845H120.027C117.601 239.845 115.634 241.809 115.634 244.231V256.433C115.634 258.855 117.601 260.819 120.027 260.819H169.682C172.108 260.819 174.075 258.855 174.075 256.433V244.231C174.075 241.809 172.108 239.845 169.682 239.845Z" fill="#FEF8F1"/>
<path d="M169.682 239.845H120.027C117.601 239.845 115.634 241.809 115.634 244.231V256.433C115.634 258.855 117.601 260.819 120.027 260.819H169.682C172.108 260.819 174.075 258.855 174.075 256.433V244.231C174.075 241.809 172.108 239.845 169.682 239.845Z" stroke="#A4A4A4" strokeWidth="0.5"/>
<path d="M128.43 257.196C132.227 257.196 135.305 254.123 135.305 250.332C135.305 246.541 132.227 243.468 128.43 243.468C124.632 243.468 121.554 246.541 121.554 250.332C121.554 254.123 124.632 257.196 128.43 257.196Z" fill="#EDF0F4"/>
<path d="M128.411 246.213L128.356 246.399V251.78L128.411 251.835L130.913 250.359L128.411 246.213Z" fill="#343434"/>
<path d="M128.412 246.213L125.909 250.359L128.412 251.835V249.223V246.213Z" fill="#7A7A7A"/>
<path d="M128.411 252.308L128.38 252.345V254.263L128.411 254.353L130.915 250.832L128.411 252.308Z" fill="#3C3C3B"/>
<path d="M128.412 254.353V252.308L125.909 250.832L128.412 254.353Z" fill="#7A7A7A"/>
<path d="M128.412 251.835L130.913 250.359L128.412 249.223V251.835Z" fill="#141414"/>
<path d="M125.909 250.359L128.412 251.835V249.223L125.909 250.359Z" fill="#393939"/>
<path d="M142.186 255.079C141.526 255.079 140.943 254.96 140.438 254.725C139.932 254.489 139.537 254.151 139.253 253.712C138.967 253.273 138.825 252.744 138.825 252.126V251.784H140.414V252.126C140.414 252.638 140.573 253.025 140.89 253.285C141.208 253.537 141.64 253.663 142.186 253.663C142.74 253.663 143.152 253.553 143.42 253.334C143.697 253.114 143.836 252.833 143.836 252.492C143.836 252.256 143.767 252.065 143.628 251.918C143.498 251.772 143.302 251.654 143.042 251.564C142.789 251.467 142.479 251.377 142.113 251.296L141.832 251.235C141.245 251.104 140.739 250.942 140.316 250.747C139.9 250.543 139.578 250.279 139.35 249.954C139.13 249.628 139.02 249.205 139.02 248.684C139.02 248.164 139.142 247.72 139.387 247.354C139.639 246.98 139.99 246.695 140.438 246.5C140.894 246.297 141.428 246.195 142.039 246.195C142.65 246.195 143.192 246.301 143.665 246.512C144.145 246.716 144.521 247.025 144.789 247.44C145.066 247.846 145.205 248.359 145.205 248.977V249.343H143.616V248.977C143.616 248.652 143.55 248.392 143.42 248.196C143.298 247.993 143.119 247.846 142.883 247.757C142.646 247.659 142.365 247.611 142.039 247.611C141.55 247.611 141.188 247.704 140.951 247.891C140.723 248.07 140.609 248.318 140.609 248.636C140.609 248.847 140.662 249.026 140.768 249.173C140.882 249.319 141.049 249.441 141.269 249.539C141.489 249.636 141.77 249.722 142.113 249.795L142.394 249.856C143.005 249.986 143.534 250.153 143.983 250.356C144.439 250.56 144.793 250.828 145.046 251.162C145.298 251.495 145.425 251.922 145.425 252.443C145.425 252.964 145.291 253.423 145.022 253.822C144.76 254.212 144.386 254.521 143.897 254.749C143.416 254.969 142.846 255.079 142.186 255.079ZM148.333 254.908V247.83H145.84V246.366H152.44V247.83H149.947V254.908H148.333ZM153.539 254.908V246.366H157.255C157.793 246.366 158.261 246.46 158.661 246.647C159.06 246.833 159.37 247.098 159.59 247.44C159.81 247.781 159.919 248.184 159.919 248.648V248.794C159.919 249.307 159.798 249.722 159.553 250.039C159.309 250.356 159.007 250.588 158.649 250.735V250.954C158.974 250.97 159.227 251.085 159.406 251.296C159.585 251.499 159.675 251.772 159.675 252.113V254.908H158.062V252.345C158.062 252.15 158.008 251.991 157.903 251.869C157.805 251.747 157.638 251.686 157.402 251.686H155.153V254.908H153.539ZM155.153 250.222H157.084C157.467 250.222 157.764 250.121 157.976 249.917C158.196 249.706 158.306 249.429 158.306 249.087V248.965C158.306 248.623 158.2 248.351 157.989 248.148C157.776 247.936 157.475 247.83 157.084 247.83H155.153V250.222ZM161.262 254.908V246.366H162.875V249.758H163.095L165.87 246.366H167.936L164.367 250.576L168.058 254.908H165.931L163.095 251.442H162.875V254.908H161.262Z" fill="#0C0C4F"/>
<path d="M298.785 203.046H217.809C207.261 203.046 198.711 211.583 198.711 222.113C198.711 232.643 207.261 241.18 217.809 241.18H298.785C309.333 241.18 317.883 232.643 317.883 222.113C317.883 211.583 309.333 203.046 298.785 203.046Z" fill="#FF7300"/>
<path d="M221.115 226.86C220.455 226.86 219.872 226.742 219.367 226.506C218.861 226.27 218.466 225.932 218.181 225.493C217.896 225.054 217.753 224.525 217.753 223.907V223.565H219.342V223.907C219.342 224.419 219.501 224.806 219.819 225.066C220.137 225.318 220.568 225.444 221.115 225.444C221.669 225.444 222.08 225.334 222.349 225.115C222.626 224.895 222.765 224.614 222.765 224.273C222.765 224.037 222.695 223.846 222.557 223.699C222.426 223.553 222.231 223.435 221.97 223.345C221.717 223.248 221.408 223.158 221.041 223.077L220.76 223.016C220.174 222.885 219.668 222.723 219.245 222.528C218.829 222.324 218.507 222.06 218.279 221.735C218.059 221.409 217.949 220.986 217.949 220.465C217.949 219.945 218.071 219.501 218.316 219.135C218.568 218.761 218.918 218.476 219.367 218.281C219.823 218.078 220.357 217.976 220.968 217.976C221.579 217.976 222.121 218.082 222.594 218.293C223.074 218.497 223.449 218.806 223.718 219.221C223.995 219.627 224.134 220.14 224.134 220.758V221.124H222.545V220.758C222.545 220.433 222.479 220.173 222.349 219.977C222.227 219.774 222.047 219.627 221.811 219.538C221.575 219.44 221.293 219.392 220.968 219.392C220.479 219.392 220.116 219.485 219.88 219.672C219.652 219.852 219.538 220.099 219.538 220.417C219.538 220.628 219.591 220.807 219.697 220.954C219.811 221.1 219.978 221.222 220.198 221.32C220.418 221.417 220.699 221.503 221.041 221.576L221.322 221.637C221.934 221.767 222.463 221.934 222.911 222.137C223.367 222.341 223.722 222.609 223.975 222.943C224.227 223.276 224.354 223.703 224.354 224.224C224.354 224.745 224.219 225.204 223.95 225.603C223.689 225.993 223.315 226.302 222.826 226.53C222.345 226.75 221.775 226.86 221.115 226.86ZM228.368 226.86C227.765 226.86 227.231 226.734 226.767 226.481C226.311 226.221 225.952 225.859 225.691 225.395C225.439 224.923 225.312 224.37 225.312 223.736V223.589C225.312 222.955 225.439 222.406 225.691 221.942C225.944 221.47 226.299 221.108 226.755 220.856C227.211 220.596 227.741 220.465 228.344 220.465C228.939 220.465 229.456 220.6 229.896 220.868C230.336 221.128 230.678 221.494 230.923 221.966C231.167 222.43 231.289 222.971 231.289 223.589V224.114H226.877C226.893 224.529 227.048 224.867 227.341 225.127C227.635 225.387 227.993 225.517 228.417 225.517C228.849 225.517 229.166 225.424 229.37 225.237C229.574 225.05 229.729 224.842 229.835 224.614L231.094 225.273C230.98 225.485 230.813 225.716 230.593 225.969C230.381 226.213 230.095 226.424 229.737 226.603C229.379 226.774 228.922 226.86 228.368 226.86ZM226.889 222.967H229.725C229.692 222.617 229.55 222.336 229.297 222.125C229.053 221.914 228.731 221.808 228.331 221.808C227.916 221.808 227.586 221.914 227.341 222.125C227.097 222.336 226.946 222.617 226.889 222.967ZM232.66 226.689V220.636H234.176V221.43H234.396C234.493 221.218 234.677 221.018 234.946 220.832C235.214 220.636 235.622 220.539 236.168 220.539C236.641 220.539 237.052 220.649 237.402 220.868C237.761 221.079 238.038 221.377 238.233 221.759C238.429 222.133 238.527 222.573 238.527 223.077V226.689H236.987V223.199C236.987 222.744 236.873 222.402 236.645 222.174C236.425 221.946 236.107 221.832 235.691 221.832C235.219 221.832 234.852 221.991 234.591 222.308C234.331 222.617 234.2 223.052 234.2 223.614V226.689H232.66ZM242.637 226.86C242.155 226.86 241.703 226.742 241.28 226.506C240.864 226.262 240.53 225.908 240.278 225.444C240.025 224.981 239.899 224.419 239.899 223.76V223.565C239.899 222.906 240.025 222.345 240.278 221.881C240.53 221.417 240.864 221.067 241.28 220.832C241.696 220.588 242.148 220.465 242.637 220.465C243.003 220.465 243.309 220.51 243.553 220.6C243.806 220.681 244.01 220.787 244.165 220.917C244.319 221.047 244.437 221.185 244.519 221.332H244.739V218.147H246.279V226.689H244.764V225.957H244.544C244.404 226.185 244.189 226.392 243.896 226.579C243.61 226.766 243.191 226.86 242.637 226.86ZM243.101 225.517C243.573 225.517 243.969 225.367 244.287 225.066C244.605 224.757 244.764 224.309 244.764 223.724V223.602C244.764 223.016 244.605 222.573 244.287 222.271C243.977 221.963 243.582 221.808 243.101 221.808C242.628 221.808 242.233 221.963 241.916 222.271C241.598 222.573 241.439 223.016 241.439 223.602V223.724C241.439 224.309 241.598 224.757 241.916 225.066C242.233 225.367 242.628 225.517 243.101 225.517ZM251.041 226.689V218.147H254.756C255.294 218.147 255.763 218.241 256.162 218.428C256.562 218.614 256.871 218.879 257.091 219.221C257.311 219.562 257.421 219.965 257.421 220.429V220.575C257.421 221.088 257.299 221.503 257.054 221.82C256.81 222.137 256.509 222.369 256.15 222.516V222.735C256.476 222.751 256.729 222.866 256.908 223.077C257.087 223.281 257.177 223.553 257.177 223.894V226.689H255.563V224.126C255.563 223.931 255.51 223.772 255.404 223.65C255.306 223.528 255.14 223.467 254.903 223.467H252.654V226.689H251.041ZM252.654 222.003H254.585C254.969 222.003 255.266 221.902 255.478 221.698C255.698 221.487 255.808 221.21 255.808 220.868V220.746C255.808 220.404 255.702 220.132 255.49 219.929C255.278 219.717 254.976 219.611 254.585 219.611H252.654V222.003ZM261.575 226.86C260.972 226.86 260.439 226.734 259.974 226.481C259.517 226.221 259.159 225.859 258.898 225.395C258.646 224.923 258.52 224.37 258.52 223.736V223.589C258.52 222.955 258.646 222.406 258.898 221.942C259.151 221.47 259.505 221.108 259.962 220.856C260.418 220.596 260.947 220.465 261.551 220.465C262.145 220.465 262.663 220.6 263.103 220.868C263.543 221.128 263.885 221.494 264.13 221.966C264.374 222.43 264.496 222.971 264.496 223.589V224.114H260.084C260.1 224.529 260.255 224.867 260.549 225.127C260.842 225.387 261.2 225.517 261.624 225.517C262.056 225.517 262.374 225.424 262.578 225.237C262.781 225.05 262.936 224.842 263.042 224.614L264.301 225.273C264.186 225.485 264.02 225.716 263.8 225.969C263.587 226.213 263.302 226.424 262.944 226.603C262.585 226.774 262.129 226.86 261.575 226.86ZM260.096 222.967H262.932C262.899 222.617 262.756 222.336 262.504 222.125C262.26 221.914 261.937 221.808 261.539 221.808C261.123 221.808 260.793 221.914 260.549 222.125C260.304 222.336 260.153 222.617 260.096 222.967ZM270.414 229.129V225.993H270.194C270.112 226.131 269.994 226.27 269.839 226.408C269.684 226.539 269.481 226.644 269.228 226.726C268.984 226.815 268.678 226.86 268.312 226.86C267.823 226.86 267.37 226.742 266.955 226.506C266.539 226.262 266.205 225.908 265.953 225.444C265.7 224.981 265.574 224.419 265.574 223.76V223.565C265.574 222.906 265.7 222.345 265.953 221.881C266.205 221.417 266.539 221.067 266.955 220.832C267.379 220.588 267.831 220.465 268.312 220.465C268.865 220.465 269.286 220.559 269.571 220.746C269.864 220.925 270.08 221.133 270.218 221.368H270.438V220.636H271.954V229.129H270.414ZM268.776 225.517C269.257 225.517 269.652 225.367 269.962 225.066C270.279 224.757 270.438 224.309 270.438 223.724V223.602C270.438 223.016 270.279 222.573 269.962 222.271C269.644 221.963 269.249 221.808 268.776 221.808C268.303 221.808 267.908 221.963 267.59 222.271C267.273 222.573 267.114 223.016 267.114 223.602V223.724C267.114 224.309 267.273 224.757 267.59 225.066C267.908 225.367 268.303 225.517 268.776 225.517ZM275.971 226.787C275.499 226.787 275.084 226.681 274.725 226.469C274.375 226.25 274.101 225.948 273.906 225.566C273.71 225.184 273.612 224.745 273.612 224.248V220.636H275.153V224.126C275.153 224.582 275.262 224.923 275.482 225.151C275.711 225.379 276.033 225.493 276.448 225.493C276.921 225.493 277.288 225.338 277.548 225.029C277.809 224.712 277.939 224.273 277.939 223.711V220.636H279.479V226.689H277.964V225.896H277.744C277.646 226.099 277.463 226.298 277.194 226.494C276.925 226.689 276.518 226.787 275.971 226.787ZM283.956 226.86C283.352 226.86 282.819 226.734 282.355 226.481C281.898 226.221 281.54 225.859 281.279 225.395C281.026 224.923 280.9 224.37 280.9 223.736V223.589C280.9 222.955 281.026 222.406 281.279 221.942C281.531 221.47 281.886 221.108 282.343 220.856C282.799 220.596 283.328 220.465 283.932 220.465C284.526 220.465 285.044 220.6 285.484 220.868C285.924 221.128 286.266 221.494 286.511 221.966C286.755 222.43 286.877 222.971 286.877 223.589V224.114H282.465C282.481 224.529 282.636 224.867 282.929 225.127C283.223 225.387 283.581 225.517 284.005 225.517C284.436 225.517 284.754 225.424 284.958 225.237C285.161 225.05 285.317 224.842 285.423 224.614L286.682 225.273C286.567 225.485 286.401 225.716 286.181 225.969C285.968 226.213 285.683 226.424 285.325 226.603C284.966 226.774 284.51 226.86 283.956 226.86ZM282.477 222.967H285.313C285.28 222.617 285.137 222.336 284.885 222.125C284.64 221.914 284.318 221.808 283.919 221.808C283.504 221.808 283.174 221.914 282.929 222.125C282.685 222.336 282.534 222.617 282.477 222.967ZM290.766 226.86C289.975 226.86 289.327 226.689 288.822 226.347C288.317 226.006 288.012 225.517 287.905 224.883L289.323 224.517C289.381 224.801 289.474 225.026 289.604 225.188C289.743 225.35 289.91 225.469 290.106 225.542C290.31 225.607 290.53 225.639 290.766 225.639C291.124 225.639 291.389 225.578 291.56 225.456C291.731 225.326 291.817 225.167 291.817 224.981C291.817 224.794 291.735 224.651 291.572 224.553C291.41 224.447 291.148 224.362 290.79 224.297L290.448 224.236C290.024 224.155 289.637 224.045 289.287 223.907C288.936 223.76 288.655 223.561 288.443 223.309C288.232 223.056 288.126 222.731 288.126 222.333C288.126 221.731 288.345 221.271 288.785 220.954C289.226 220.628 289.804 220.465 290.521 220.465C291.197 220.465 291.759 220.616 292.208 220.917C292.656 221.218 292.95 221.613 293.088 222.101L291.658 222.54C291.593 222.231 291.459 222.011 291.255 221.881C291.059 221.751 290.815 221.686 290.521 221.686C290.228 221.686 290.004 221.738 289.849 221.844C289.694 221.942 289.617 222.08 289.617 222.259C289.617 222.455 289.698 222.601 289.861 222.699C290.024 222.788 290.244 222.857 290.521 222.906L290.863 222.967C291.319 223.049 291.731 223.158 292.098 223.297C292.473 223.427 292.766 223.618 292.978 223.87C293.198 224.114 293.308 224.447 293.308 224.871C293.308 225.505 293.076 225.997 292.611 226.347C292.155 226.689 291.539 226.86 290.766 226.86ZM296.86 226.689C296.461 226.689 296.135 226.567 295.882 226.323C295.638 226.07 295.516 225.737 295.516 225.322V221.905H294V220.636H295.516V218.757H297.056V220.636H298.718V221.905H297.056V225.054C297.056 225.298 297.17 225.42 297.398 225.42H298.571V226.689H296.86Z" fill="#FAFAFA"/>
<defs>
<linearGradient id="paint0_linear_2001_65" x1="292" y1="-199.5" x2="292" y2="529.594" gradientUnits="userSpaceOnUse">
<stop offset="0.570194" stop-color="#EAEAEA"/>
<stop offset="0.948431" stop-color="#FD9531"/>
</linearGradient>
</defs>
</svg>
