<svg width="96" height="96" viewBox="0 0 96 96" fill="none" xmlns="http://www.w3.org/2000/svg">
<path d="M79.59 31.41L58.59 10.41C58.1684 9.98792 57.5965 9.75053 57 9.75H21C19.6076 9.75 18.2723 10.3031 17.2877 11.2877C16.3031 12.2723 15.75 13.6076 15.75 15V81C15.75 82.3924 16.3031 83.7277 17.2877 84.7123C18.2723 85.6969 19.6076 86.25 21 86.25H75C76.3924 86.25 77.7277 85.6969 78.7123 84.7123C79.6969 83.7277 80.25 82.3924 80.25 81V33C80.2495 32.4035 80.0121 31.8316 79.59 31.41ZM59.25 17.43L72.57 30.75H59.25V17.43ZM75 81.75H21C20.8011 81.75 20.6103 81.671 20.4697 81.5303C20.329 81.3897 20.25 81.1989 20.25 81V15C20.25 14.8011 20.329 14.6103 20.4697 14.4697C20.6103 14.329 20.8011 14.25 21 14.25H54.75V33C54.75 33.5967 54.9871 34.169 55.409 34.591C55.831 35.0129 56.4033 35.25 57 35.25H75.75V81C75.75 81.1989 75.671 81.3897 75.5303 81.5303C75.3897 81.671 75.1989 81.75 75 81.75Z" fill="#848484" fill-opacity="0.5"/>
</svg>
