<svg width="28" height="28" viewBox="0 0 28 28" fill="none" xmlns="http://www.w3.org/2000/svg">
<g clip-path="url(#clip0_379_988)">
<path d="M16.3333 19.8333C16.6307 19.8337 16.9167 19.9475 17.1329 20.1517C17.3492 20.3558 17.4793 20.6348 17.4967 20.9316C17.5141 21.2285 17.4175 21.5208 17.2267 21.7488C17.0358 21.9768 16.7651 22.1234 16.4698 22.1585L16.3333 22.1667H11.6667C11.3693 22.1663 11.0833 22.0525 10.8671 21.8484C10.6508 21.6442 10.5207 21.3652 10.5033 21.0684C10.4859 20.7715 10.5825 20.4792 10.7733 20.2512C10.9642 20.0232 11.2349 19.8766 11.5302 19.8415L11.6667 19.8333H16.3333ZM19.8333 12.8333C20.1428 12.8333 20.4395 12.9563 20.6583 13.1751C20.8771 13.3938 21 13.6906 21 14C21 14.3094 20.8771 14.6062 20.6583 14.825C20.4395 15.0438 20.1428 15.1667 19.8333 15.1667H8.16667C7.85725 15.1667 7.5605 15.0438 7.34171 14.825C7.12292 14.6062 7 14.3094 7 14C7 13.6906 7.12292 13.3938 7.34171 13.1751C7.5605 12.9563 7.85725 12.8333 8.16667 12.8333H19.8333ZM23.3333 5.83334C23.6428 5.83334 23.9395 5.95626 24.1583 6.17505C24.3771 6.39385 24.5 6.69059 24.5 7.00001C24.5 7.30943 24.3771 7.60618 24.1583 7.82497C23.9395 8.04376 23.6428 8.16668 23.3333 8.16668H4.66667C4.35725 8.16668 4.0605 8.04376 3.84171 7.82497C3.62292 7.60618 3.5 7.30943 3.5 7.00001C3.5 6.69059 3.62292 6.39385 3.84171 6.17505C4.0605 5.95626 4.35725 5.83334 4.66667 5.83334H23.3333Z" fill="#141925"/>
</g>
<defs>
<clipPath id="clip0_379_988">
<rect width="28" height="28" fill="white"/>
</clipPath>
</defs>
</svg>
