<svg width="1448" height="944" viewBox="0 0 1448 944" fill="none" xmlns="http://www.w3.org/2000/svg">
<g clip-path="url(#clip0_187_50)">
<rect width="1448" height="944" rx="32" fill="url(#paint0_linear_187_50)"/>
<g filter="url(#filter0_bf_187_50)">
<path d="M183.453 4.50301L-321.33 -204.496C-324.397 -205.766 -327.913 -204.308 -329.183 -201.24L-566.248 371.713C-567.517 374.781 -566.06 378.298 -562.993 379.568L-58.2097 588.567C-55.1422 589.837 -51.6265 588.379 -50.3568 585.311L186.708 12.3584C187.978 9.29001 186.52 5.77304 183.453 4.50301Z" fill="#A3461E" fill-opacity="0.1"/>
<path d="M183.109 5.33638L-321.674 -203.662C-324.282 -204.742 -327.27 -203.503 -328.349 -200.895L-565.414 372.058C-566.493 374.666 -565.255 377.656 -562.647 378.735L-57.8645 587.734C-55.2572 588.813 -52.2688 587.574 -51.1896 584.966L185.875 12.0135C186.955 9.40534 185.716 6.41591 183.109 5.33638Z" fill="#A3461E" fill-opacity="0.1" stroke="url(#paint1_linear_187_50)" strokeWidth="2" strokeLinejoin="round"/>
</g>
<g filter="url(#filter1_bf_187_50)">
<path d="M303.887 282.118L-200.896 73.119C-203.964 71.849 -207.479 73.3069 -208.749 76.3753L-445.814 649.328C-447.084 652.396 -445.626 655.913 -442.559 657.183L62.2242 866.182C65.2916 867.452 68.8074 865.994 70.077 862.926L307.142 289.973C308.412 286.905 306.954 283.388 303.887 282.118Z" fill="#A3461E" fill-opacity="0.1"/>
<path d="M303.542 282.951L-201.241 73.9525C-203.848 72.873 -206.836 74.1122 -207.915 76.7204L-444.98 649.673C-446.06 652.281 -444.821 655.271 -442.214 656.35L62.5694 865.349C65.1767 866.428 68.1651 865.189 69.2442 862.581L306.309 289.628C307.388 287.02 306.15 284.031 303.542 282.951Z" fill="#A3461E" fill-opacity="0.1" stroke="url(#paint2_linear_187_50)" strokeWidth="2" strokeLinejoin="round"/>
</g>
<g filter="url(#filter2_bf_187_50)">
<path d="M355.983 418.093L-175.915 293.385C-179.147 292.627 -182.381 294.634 -183.139 297.867L-324.594 901.596C-325.351 904.83 -323.345 908.065 -320.113 908.823L211.785 1033.53C215.017 1034.29 218.251 1032.28 219.009 1029.05L360.464 425.319C361.221 422.086 359.215 418.851 355.983 418.093Z" fill="#A3461E" fill-opacity="0.1"/>
<path d="M355.777 418.971L-176.12 294.263C-178.868 293.619 -181.617 295.325 -182.261 298.073L-323.716 901.802C-324.36 904.55 -322.655 907.301 -319.907 907.945L211.991 1032.65C214.738 1033.3 217.487 1031.59 218.131 1028.84L359.586 425.114C360.23 422.365 358.525 419.615 355.777 418.971Z" fill="#A3461E" fill-opacity="0.1" stroke="url(#paint3_linear_187_50)" strokeWidth="2" strokeLinejoin="round"/>
</g>
<g filter="url(#filter3_bf_187_50)">
<path d="M523.499 508.432L-22.1338 481.192C-25.4494 481.027 -28.2714 483.581 -28.4368 486.898L-59.3353 1106.22C-59.5008 1109.53 -56.9471 1112.36 -53.6315 1112.52L492.002 1139.76C495.317 1139.93 498.139 1137.37 498.305 1134.06L529.203 514.738C529.369 511.421 526.815 508.598 523.499 508.432Z" fill="#A3461E" fill-opacity="0.1"/>
<path d="M523.454 509.338L-22.1788 482.097C-24.9971 481.956 -27.3958 484.128 -27.5364 486.947L-58.4349 1106.27C-58.5756 1109.09 -56.4049 1111.49 -53.5866 1111.63L492.047 1138.87C494.865 1139.01 497.263 1136.84 497.404 1134.02L528.303 514.697C528.443 511.878 526.273 509.478 523.454 509.338Z" fill="#A3461E" fill-opacity="0.1" stroke="url(#paint4_linear_187_50)" strokeWidth="2" strokeLinejoin="round"/>
</g>
<g filter="url(#filter4_bf_187_50)">
<path d="M636.632 512.103L103.912 633.25C100.675 633.986 98.6474 637.208 99.3833 640.446L236.799 1245.11C237.535 1248.35 240.755 1250.38 243.993 1249.64L776.712 1128.49C779.95 1127.76 781.977 1124.53 781.241 1121.3L643.826 516.634C643.09 513.395 639.869 511.367 636.632 512.103Z" fill="#A3461E" fill-opacity="0.1"/>
<path d="M636.835 512.983L104.115 634.129C101.363 634.755 99.6399 637.494 100.265 640.246L237.681 1244.91C238.306 1247.66 241.044 1249.39 243.796 1248.76L776.515 1127.61C779.267 1126.99 780.991 1124.25 780.365 1121.5L642.95 516.833C642.324 514.081 639.586 512.357 636.835 512.983Z" fill="#A3461E" fill-opacity="0.1" stroke="url(#paint5_linear_187_50)" strokeWidth="2" strokeLinejoin="round"/>
</g>
<g filter="url(#filter5_bf_187_50)">
<path d="M769.804 565.026L289.143 824.771C286.222 826.349 285.134 829.997 286.711 832.919L581.337 1378.49C582.915 1381.41 586.562 1382.5 589.483 1380.92L1070.14 1121.18C1073.06 1119.6 1074.15 1115.95 1072.58 1113.03L777.949 567.458C776.372 564.536 772.725 563.447 769.804 565.026Z" fill="#A3461E" fill-opacity="0.1"/>
<path d="M770.231 565.815L289.57 825.56C287.087 826.902 286.162 830.003 287.503 832.486L582.129 1378.06C583.47 1380.54 586.57 1381.47 589.053 1380.13L1069.71 1120.38C1072.2 1119.04 1073.12 1115.94 1071.78 1113.46L777.155 567.883C775.813 565.399 772.714 564.473 770.231 565.815Z" fill="#A3461E" fill-opacity="0.1" stroke="url(#paint6_linear_187_50)" strokeWidth="2" strokeLinejoin="round"/>
</g>
<g filter="url(#filter6_bf_187_50)">
<path d="M990.783 678.158L543.442 991.86C540.723 993.766 540.064 997.516 541.97 1000.23L897.799 1507.99C899.704 1510.71 903.453 1511.37 906.171 1509.46L1353.51 1195.76C1356.23 1193.85 1356.89 1190.1 1354.98 1187.38L999.155 679.63C997.249 676.91 993.501 676.251 990.783 678.158Z" fill="#A3461E" fill-opacity="0.1"/>
<path d="M991.301 678.898L543.96 992.6C541.649 994.22 541.089 997.407 542.709 999.719L898.537 1507.47C900.157 1509.78 903.343 1510.34 905.654 1508.72L1352.99 1195.02C1355.31 1193.4 1355.87 1190.21 1354.25 1187.9L998.417 680.149C996.797 677.838 993.611 677.278 991.301 678.898Z" fill="#A3461E" fill-opacity="0.1" stroke="url(#paint7_linear_187_50)" strokeWidth="2" strokeLinejoin="round"/>
</g>
<g filter="url(#filter7_bf_187_50)">
<path d="M1232.22 758.409L804.996 1099.01C802.4 1101.08 801.973 1104.87 804.042 1107.46L1190.39 1592.39C1192.46 1594.98 1196.24 1595.41 1198.83 1593.34L1626.06 1252.74C1628.66 1250.67 1629.08 1246.88 1627.01 1244.29L1240.67 759.364C1238.6 756.767 1234.82 756.34 1232.22 758.409Z" fill="#A3461E" fill-opacity="0.1"/>
<path d="M1232.78 759.116L805.553 1099.72C803.347 1101.48 802.984 1104.7 804.742 1106.9L1191.09 1591.83C1192.85 1594.03 1196.06 1594.4 1198.27 1592.64L1625.49 1252.03C1627.7 1250.27 1628.06 1247.06 1626.3 1244.85L1239.96 759.927C1238.2 757.72 1234.99 757.356 1232.78 759.116Z" fill="#A3461E" fill-opacity="0.1" stroke="url(#paint8_linear_187_50)" strokeWidth="2" strokeLinejoin="round"/>
</g>
<g style="mix-blend-mode:soft-light">
<ellipse cx="337" cy="535.982" rx="360" ry="377.6" fill="url(#paint9_radial_187_50)" fill-opacity="0.5"/>
</g>
</g>
<defs>
<filter id="filter0_bf_187_50" x="-571.804" y="-210.053" width="764.07" height="804.177" filterUnits="userSpaceOnUse" color-interpolation-filters="sRGB">
<feFlood flood-opacity="0" result="BackgroundImageFix"/>
<feGaussianBlur in="BackgroundImageFix" stdDeviation="2.5"/>
<feComposite in2="SourceAlpha" operator="in" result="effect1_backgroundBlur_187_50"/>
<feBlend mode="normal" in="SourceGraphic" in2="effect1_backgroundBlur_187_50" result="shape"/>
<feGaussianBlur stdDeviation="0.75" result="effect2_foregroundBlur_187_50"/>
</filter>
<filter id="filter1_bf_187_50" x="-451.37" y="67.5624" width="764.07" height="804.177" filterUnits="userSpaceOnUse" color-interpolation-filters="sRGB">
<feFlood flood-opacity="0" result="BackgroundImageFix"/>
<feGaussianBlur in="BackgroundImageFix" stdDeviation="2.5"/>
<feComposite in2="SourceAlpha" operator="in" result="effect1_backgroundBlur_187_50"/>
<feBlend mode="normal" in="SourceGraphic" in2="effect1_backgroundBlur_187_50" result="shape"/>
<feGaussianBlur stdDeviation="0.75" result="effect2_foregroundBlur_187_50"/>
</filter>
<filter id="filter2_bf_187_50" x="-329.852" y="288.127" width="695.574" height="750.662" filterUnits="userSpaceOnUse" color-interpolation-filters="sRGB">
<feFlood flood-opacity="0" result="BackgroundImageFix"/>
<feGaussianBlur in="BackgroundImageFix" stdDeviation="2.5"/>
<feComposite in2="SourceAlpha" operator="in" result="effect1_backgroundBlur_187_50"/>
<feBlend mode="normal" in="SourceGraphic" in2="effect1_backgroundBlur_187_50" result="shape"/>
<feGaussianBlur stdDeviation="0.75" result="effect2_foregroundBlur_187_50"/>
</filter>
<filter id="filter3_bf_187_50" x="-64.4414" y="476.091" width="598.75" height="668.782" filterUnits="userSpaceOnUse" color-interpolation-filters="sRGB">
<feFlood flood-opacity="0" result="BackgroundImageFix"/>
<feGaussianBlur in="BackgroundImageFix" stdDeviation="2.5"/>
<feComposite in2="SourceAlpha" operator="in" result="effect1_backgroundBlur_187_50"/>
<feBlend mode="normal" in="SourceGraphic" in2="effect1_backgroundBlur_187_50" result="shape"/>
<feGaussianBlur stdDeviation="0.75" result="effect2_foregroundBlur_187_50"/>
</filter>
<filter id="filter4_bf_187_50" x="94.137" y="506.854" width="692.356" height="748.034" filterUnits="userSpaceOnUse" color-interpolation-filters="sRGB">
<feFlood flood-opacity="0" result="BackgroundImageFix"/>
<feGaussianBlur in="BackgroundImageFix" stdDeviation="2.5"/>
<feComposite in2="SourceAlpha" operator="in" result="effect1_backgroundBlur_187_50"/>
<feBlend mode="normal" in="SourceGraphic" in2="effect1_backgroundBlur_187_50" result="shape"/>
<feGaussianBlur stdDeviation="0.75" result="effect2_foregroundBlur_187_50"/>
</filter>
<filter id="filter5_bf_187_50" x="280.888" y="559.199" width="797.507" height="827.542" filterUnits="userSpaceOnUse" color-interpolation-filters="sRGB">
<feFlood flood-opacity="0" result="BackgroundImageFix"/>
<feGaussianBlur in="BackgroundImageFix" stdDeviation="2.5"/>
<feComposite in2="SourceAlpha" operator="in" result="effect1_backgroundBlur_187_50"/>
<feBlend mode="normal" in="SourceGraphic" in2="effect1_backgroundBlur_187_50" result="shape"/>
<feGaussianBlur stdDeviation="0.75" result="effect2_foregroundBlur_187_50"/>
</filter>
<filter id="filter6_bf_187_50" x="535.783" y="671.971" width="825.389" height="843.679" filterUnits="userSpaceOnUse" color-interpolation-filters="sRGB">
<feFlood flood-opacity="0" result="BackgroundImageFix"/>
<feGaussianBlur in="BackgroundImageFix" stdDeviation="2.5"/>
<feComposite in2="SourceAlpha" operator="in" result="effect1_backgroundBlur_187_50"/>
<feBlend mode="normal" in="SourceGraphic" in2="effect1_backgroundBlur_187_50" result="shape"/>
<feGaussianBlur stdDeviation="0.75" result="effect2_foregroundBlur_187_50"/>
</filter>
<filter id="filter7_bf_187_50" x="797.628" y="752.001" width="835.79" height="847.751" filterUnits="userSpaceOnUse" color-interpolation-filters="sRGB">
<feFlood flood-opacity="0" result="BackgroundImageFix"/>
<feGaussianBlur in="BackgroundImageFix" stdDeviation="2.5"/>
<feComposite in2="SourceAlpha" operator="in" result="effect1_backgroundBlur_187_50"/>
<feBlend mode="normal" in="SourceGraphic" in2="effect1_backgroundBlur_187_50" result="shape"/>
<feGaussianBlur stdDeviation="0.75" result="effect2_foregroundBlur_187_50"/>
</filter>
<linearGradient id="paint0_linear_187_50" x1="724" y1="-244.916" x2="724" y2="912.533" gradientUnits="userSpaceOnUse">
<stop offset="0.137208" stop-color="#FF8D4E"/>
<stop offset="0.535398" stop-color="#FF6734"/>
</linearGradient>
<linearGradient id="paint1_linear_187_50" x1="-489.133" y1="-145.087" x2="-28.3276" y2="511.165" gradientUnits="userSpaceOnUse">
<stop stop-color="#FD9531"/>
<stop offset="0.103106" stop-color="#141925"/>
<stop offset="0.325326" stop-color="#FAFAFA"/>
<stop offset="0.452008" stop-color="#E88DFF" stop-opacity="0.2"/>
<stop offset="0.6" stop-color="#FAFAFA" stop-opacity="0.3"/>
<stop offset="0.735349" stop-color="#FD9332"/>
<stop offset="0.850356" stop-color="#FAFAFA"/>
<stop offset="1" stop-color="#1F2833"/>
</linearGradient>
<linearGradient id="paint2_linear_187_50" x1="-466.488" y1="691.101" x2="189.833" y2="230.556" gradientUnits="userSpaceOnUse">
<stop stop-color="#FF6734"/>
<stop offset="0.103106" stop-color="#141925"/>
<stop offset="0.325326" stop-color="#FAFAFA"/>
<stop offset="0.452008" stop-color="#E88DFF" stop-opacity="0.2"/>
<stop offset="0.6" stop-color="#FAFAFA" stop-opacity="0.3"/>
<stop offset="0.735349" stop-color="#FD9332"/>
<stop offset="0.850356" stop-color="#FAFAFA"/>
<stop offset="1" stop-color="#1F2833"/>
</linearGradient>
<linearGradient id="paint3_linear_187_50" x1="-332.124" y1="379.172" x2="228.589" y2="952.356" gradientUnits="userSpaceOnUse">
<stop stop-color="#FAFAFA"/>
<stop offset="0.142857" stop-color="#FF6734"/>
<stop offset="0.285714" stop-color="#FAFAFA" stop-opacity="0.3"/>
<stop offset="0.428571" stop-color="#1F2833"/>
<stop offset="0.571429" stop-color="#E88DFF" stop-opacity="0.2"/>
<stop offset="0.714286" stop-color="#FAFAFA"/>
<stop offset="0.857143" stop-color="#141925"/>
<stop offset="1" stop-color="#FD9531"/>
</linearGradient>
<linearGradient id="paint4_linear_187_50" x1="-160.617" y1="593.752" x2="493.775" y2="1057.04" gradientUnits="userSpaceOnUse">
<stop stop-color="#1F2833"/>
<stop offset="0.149644" stop-color="#FAFAFA"/>
<stop offset="0.264651" stop-color="#FD9332"/>
<stop offset="0.4" stop-color="#FAFAFA" stop-opacity="0.3"/>
<stop offset="0.547992" stop-color="#E88DFF" stop-opacity="0.2"/>
<stop offset="0.674674" stop-color="#FAFAFA"/>
<stop offset="0.896894" stop-color="#141925"/>
<stop offset="1" stop-color="#FF6734"/>
</linearGradient>
<linearGradient id="paint5_linear_187_50" x1="755.85" y1="1048.9" x2="0.738017" y2="779.497" gradientUnits="userSpaceOnUse">
<stop stop-color="#1F2833"/>
<stop offset="0.149644" stop-color="#FAFAFA"/>
<stop offset="0.264651" stop-color="#FF6734"/>
<stop offset="0.4" stop-color="#FAFAFA" stop-opacity="0.3"/>
<stop offset="0.547992" stop-color="#E88DFF" stop-opacity="0.2"/>
<stop offset="0.674674" stop-color="#FAFAFA"/>
<stop offset="0.896894" stop-color="#141925"/>
<stop offset="1" stop-color="#FD9531"/>
</linearGradient>
<linearGradient id="paint6_linear_187_50" x1="229.033" y1="993.53" x2="1028.71" y2="1050.42" gradientUnits="userSpaceOnUse">
<stop stop-color="#FD9531"/>
<stop offset="0.103106" stop-color="#141925"/>
<stop offset="0.325326" stop-color="#FAFAFA"/>
<stop offset="0.452008" stop-color="#E88DFF" stop-opacity="0.2"/>
<stop offset="0.6" stop-color="#FAFAFA" stop-opacity="0.3"/>
<stop offset="0.735349" stop-color="#FF6734"/>
<stop offset="0.850356" stop-color="#FAFAFA"/>
<stop offset="1" stop-color="#1F2833"/>
</linearGradient>
<linearGradient id="paint7_linear_187_50" x1="1304.22" y1="1130.46" x2="503.336" y2="1166.57" gradientUnits="userSpaceOnUse">
<stop stop-color="#FD9531"/>
<stop offset="0.103106" stop-color="#141925"/>
<stop offset="0.325326" stop-color="#FAFAFA"/>
<stop offset="0.452008" stop-color="#E88DFF" stop-opacity="0.2"/>
<stop offset="0.6" stop-color="#FAFAFA" stop-opacity="0.3"/>
<stop offset="0.735349" stop-color="#FF6734"/>
<stop offset="0.850356" stop-color="#FAFAFA"/>
<stop offset="1" stop-color="#1F2833"/>
</linearGradient>
<linearGradient id="paint8_linear_187_50" x1="1131.68" y1="834.582" x2="1217" y2="1631.99" gradientUnits="userSpaceOnUse">
<stop stop-color="#1F2833"/>
<stop offset="0.149644" stop-color="#FAFAFA"/>
<stop offset="0.264651" stop-color="#FF6734"/>
<stop offset="0.4" stop-color="#FAFAFA" stop-opacity="0.3"/>
<stop offset="0.547992" stop-color="#E88DFF" stop-opacity="0.2"/>
<stop offset="0.674674" stop-color="#FAFAFA"/>
<stop offset="0.896894" stop-color="#141925"/>
<stop offset="1" stop-color="#FD9531"/>
</linearGradient>
<radialGradient id="paint9_radial_187_50" cx="0" cy="0" r="1" gradientUnits="userSpaceOnUse" gradientTransform="translate(337 503.397) rotate(90) scale(818.453 780.305)">
<stop offset="0.17295" stop-color="#FFBD73" stop-opacity="0.6"/>
<stop offset="0.403685" stop-color="#FD9928" stop-opacity="0.1"/>
</radialGradient>
<clipPath id="clip0_187_50">
<rect width="1448" height="944" rx="32" fill="white"/>
</clipPath>
</defs>
</svg>
