<svg width="30" height="30" viewBox="0 0 30 30" fill="none" xmlns="http://www.w3.org/2000/svg">
<path fillRule="evenodd" clipRule="evenodd" d="M0.000488281 15C0.000488281 23.2843 6.71612 30 15.0005 30C23.2848 30 30.0009 23.2843 30.0009 15C30.0009 6.71564 23.2848 0 15.0005 0C6.71612 0 0.000488281 6.71564 0.000488281 15Z" fill="#0C0C4F"/>
<path fillRule="evenodd" clipRule="evenodd" d="M8.38555 11.4663L8.75583 10.3223C8.83109 10.0896 9.01472 9.90855 9.24825 9.83716L10.3978 9.48365C10.5569 9.43506 10.5582 9.21057 10.4004 9.15938L9.256 8.7891C9.02376 8.71383 8.8427 8.5302 8.77088 8.29667L8.41779 7.14711C8.3692 6.98843 8.14471 6.9867 8.09352 7.14496L7.72324 8.28893C7.64798 8.52116 7.46435 8.70223 7.23082 8.77404L6.08125 9.12713C5.92213 9.17616 5.92041 9.40021 6.07867 9.45141L7.22307 9.82168C7.45531 9.89695 7.63638 10.081 7.70819 10.3145L8.06128 11.4637C8.10987 11.6228 8.33436 11.6245 8.38555 11.4663Z" fill="#FAFAFA"/>
<path fillRule="evenodd" clipRule="evenodd" d="M26.5552 10.8003C26.0814 10.2704 25.3417 9.97199 24.6226 9.84963C23.8978 9.7321 23.1378 9.74302 22.4223 9.87014C20.9745 10.115 19.6592 10.7145 18.512 11.4541C17.9163 11.817 17.4083 12.237 16.8819 12.6647C16.6283 12.881 16.3971 13.1113 16.1563 13.3384L15.4984 13.9931C14.7834 14.7404 14.0788 15.421 13.397 15.9852C12.7124 16.5468 12.0724 16.9733 11.4416 17.2712C10.8113 17.5705 10.1369 17.7466 9.25775 17.7748C8.38637 17.8055 7.35542 17.6483 6.25265 17.3887C5.14397 17.1302 3.97972 16.7619 2.67871 16.4449C3.13267 17.7043 3.81626 18.8172 4.69392 19.8346C5.58188 20.8343 6.69068 21.7455 8.11506 22.3445C9.51887 22.9571 11.283 23.1769 12.9325 22.8452C14.5864 22.527 16.0378 21.7616 17.211 20.8766C18.3872 19.9823 19.3387 18.9638 20.141 17.9049C20.3624 17.6123 20.4795 17.4486 20.6398 17.2199L21.0827 16.5638C21.3905 16.158 21.6708 15.6959 21.9755 15.2938C22.5729 14.4516 23.1617 13.6105 23.846 12.8355C24.1904 12.4424 24.5537 12.0665 24.9824 11.7052C25.1964 11.5288 25.4273 11.3562 25.6833 11.2008C25.943 11.0331 26.2174 10.9018 26.5552 10.8003Z" fill="url(#paint0_linear_379_1258)"/>
<path fillRule="evenodd" clipRule="evenodd" d="M26.5552 10.8003C26.0461 9.51561 25.0996 8.43419 23.8293 7.6362C22.5664 6.84696 20.8127 6.44417 19.075 6.78752C18.2164 6.95355 17.3846 7.27323 16.6547 7.69895C15.928 8.12296 15.2769 8.63339 14.7132 9.18097C14.4318 9.45568 14.1764 9.74224 13.9226 10.0304L13.265 10.869L12.2491 12.2188C10.9541 13.9554 9.55958 15.9907 7.27104 16.5938C5.02436 17.1858 4.04994 16.6615 2.67871 16.4449C2.92944 17.0922 3.24 17.7208 3.66105 18.2739C4.07424 18.8381 4.56228 19.3681 5.16905 19.8223C5.47568 20.0404 5.79942 20.2557 6.15899 20.4384C6.51691 20.6148 6.90289 20.7701 7.31488 20.8871C8.13438 21.1117 9.05701 21.1903 9.95032 21.0696C10.8441 20.9503 11.6983 20.667 12.445 20.2909C13.1972 19.9181 13.8525 19.4645 14.4376 18.9855C15.6007 18.0197 16.5054 16.9524 17.2696 15.8737C17.6539 15.3343 18.0029 14.7847 18.3256 14.2351L18.7054 13.5806C18.8215 13.3893 18.9389 13.1969 19.0583 13.0176C19.5394 12.2974 20.0101 11.7199 20.5819 11.2865C21.1456 10.8418 21.9307 10.5133 22.9798 10.437C24.0245 10.3597 25.2306 10.5024 26.5552 10.8003Z" fill="#FAFAFA"/>
<path fillRule="evenodd" clipRule="evenodd" d="M20.9028 21.4744C20.9028 22.4181 21.6682 23.1833 22.6117 23.1833C23.5554 23.1833 24.3197 22.4181 24.3197 21.4744C24.3197 20.5309 23.5554 19.7655 22.6117 19.7655C21.6682 19.7655 20.9028 20.5309 20.9028 21.4744Z" fill="url(#paint1_linear_379_1258)"/>
<defs>
<linearGradient id="paint0_linear_379_1258" x1="26.4276" y1="10.3495" x2="-12.5925" y2="30.6508" gradientUnits="userSpaceOnUse">
<stop stop-color="#EC796B"/>
<stop offset="1" stop-color="#D672EF"/>
</linearGradient>
<linearGradient id="paint1_linear_379_1258" x1="24.3185" y1="20.2757" x2="18.0913" y2="20.8594" gradientUnits="userSpaceOnUse">
<stop stop-color="#EC796B"/>
<stop offset="1" stop-color="#D672EF"/>
</linearGradient>
</defs>
</svg>
