<svg width="40" height="40" viewBox="0 0 40 40" fill="none" xmlns="http://www.w3.org/2000/svg">
<path fillRule="evenodd" clipRule="evenodd" d="M0 20C0 31.0457 8.95418 40 20 40C31.0457 40 40.0005 31.0457 40.0005 20C40.0005 8.95419 31.0457 0 20 0C8.95418 0 0 8.95419 0 20Z" fill="#0C0C4F"/>
<path fillRule="evenodd" clipRule="evenodd" d="M11.1781 15.2882L11.6718 13.7628C11.7722 13.4526 12.017 13.2112 12.3284 13.116L13.8612 12.6447C14.0733 12.5799 14.075 12.2806 13.8646 12.2123L12.3387 11.7186C12.0291 11.6183 11.7877 11.3734 11.6919 11.062L11.2211 9.52929C11.1563 9.31772 10.857 9.31542 10.7888 9.52643L10.2951 11.0517C10.1947 11.3614 9.94986 11.6028 9.63849 11.6985L8.10573 12.1693C7.89358 12.2347 7.89127 12.5334 8.10229 12.6017L9.62816 13.0954C9.93781 13.1957 10.1792 13.4412 10.275 13.7525L10.7458 15.2847C10.8106 15.4969 11.1099 15.4992 11.1781 15.2882Z" fill="#FAFAFA"/>
<path fillRule="evenodd" clipRule="evenodd" d="M35.4056 14.4004C34.7739 13.6938 33.7876 13.296 32.8288 13.1328C31.8625 12.9761 30.8491 12.9907 29.8951 13.1602C27.9647 13.4867 26.211 14.286 24.6814 15.2721C23.8871 15.756 23.2097 16.316 22.508 16.8863C22.1698 17.1747 21.8615 17.4818 21.5405 17.7846L20.6632 18.6574C19.71 19.6538 18.7704 20.5614 17.8613 21.3136C16.9486 22.0624 16.0952 22.6311 15.2542 23.0282C14.4138 23.4274 13.5145 23.6622 12.3424 23.6998C11.1805 23.7407 9.80592 23.531 8.33557 23.1849C6.85732 22.8403 5.305 22.3492 3.57031 21.9265C4.17559 23.6057 5.08704 25.0896 6.25726 26.4461C7.4412 27.779 8.9196 28.994 10.8188 29.7927C12.6905 30.6094 15.0427 30.9026 17.2421 30.4603C19.4473 30.036 21.3824 29.0155 22.9467 27.8355C24.5149 26.643 25.7837 25.285 26.8533 23.8732C27.1485 23.4831 27.3047 23.2648 27.5184 22.9599L28.109 22.0851C28.5194 21.544 28.8931 20.9279 29.2994 20.3917C30.0959 19.2689 30.881 18.1473 31.7934 17.114C32.2526 16.5899 32.7369 16.0887 33.3086 15.6069C33.5939 15.3717 33.9018 15.1416 34.243 14.9343C34.5894 14.7107 34.9552 14.5357 35.4056 14.4004Z" fill="url(#paint0_linear_664_13367)"/>
<path fillRule="evenodd" clipRule="evenodd" d="M35.4056 14.4002C34.7268 12.6873 33.4648 11.2454 31.7711 10.1815C30.0873 9.12913 27.749 8.59209 25.432 9.04989C24.2872 9.27126 23.1781 9.69749 22.2049 10.2651C21.2361 10.8305 20.3679 11.511 19.6163 12.2412C19.2411 12.6074 18.9006 12.9895 18.5622 13.3738L17.6853 14.4918L16.3309 16.2915C14.6042 18.6071 12.7448 21.3208 9.69341 22.1249C6.69785 22.9143 5.39862 22.2152 3.57031 21.9264C3.90462 22.7895 4.3187 23.6276 4.8801 24.365C5.43102 25.1173 6.08174 25.824 6.89077 26.4295C7.29961 26.7204 7.73126 27.0075 8.21068 27.2511C8.68791 27.4863 9.20254 27.6934 9.75187 27.8493C10.8445 28.1488 12.0747 28.2536 13.2658 28.0926C14.4574 27.9336 15.5964 27.5559 16.592 27.0544C17.595 26.5574 18.4687 25.9526 19.2488 25.3138C20.7996 24.0261 22.0058 22.6031 23.0248 21.1647C23.5373 20.4456 24.0025 19.7129 24.4328 18.9799L24.9392 18.1074C25.094 17.8523 25.2506 17.5957 25.4097 17.3566C26.0513 16.3964 26.6789 15.6264 27.4412 15.0485C28.1928 14.4556 29.2397 14.0176 30.6384 13.9158C32.0314 13.8128 33.6395 14.0031 35.4056 14.4002Z" fill="#FAFAFA"/>
<path fillRule="evenodd" clipRule="evenodd" d="M27.8682 28.6325C27.8682 29.8908 28.8887 30.911 30.1467 30.911C31.4049 30.911 32.4239 29.8908 32.4239 28.6325C32.4239 27.3745 31.4049 26.354 30.1467 26.354C28.8887 26.354 27.8682 27.3745 27.8682 28.6325Z" fill="url(#paint1_linear_664_13367)"/>
<defs>
<linearGradient id="paint0_linear_664_13367" x1="35.2355" y1="13.7994" x2="-16.7913" y2="40.8678" gradientUnits="userSpaceOnUse">
<stop stop-color="#EC796B"/>
<stop offset="1" stop-color="#D672EF"/>
</linearGradient>
<linearGradient id="paint1_linear_664_13367" x1="32.4224" y1="27.0343" x2="24.1195" y2="27.8125" gradientUnits="userSpaceOnUse">
<stop stop-color="#EC796B"/>
<stop offset="1" stop-color="#D672EF"/>
</linearGradient>
</defs>
</svg>
