<svg width="14" height="14" viewBox="0 0 14 14" fill="none" xmlns="http://www.w3.org/2000/svg">
<path fill-rule="evenodd" clip-rule="evenodd" d="M10.4188 0.64301C10.2809 0.422647 10.0777 0.250765 9.83751 0.15129C9.59733 0.051814 9.33212 0.029694 9.07878 0.0880096L7.28078 0.50101C7.09652 0.543361 6.90505 0.543361 6.72079 0.50101L4.92278 0.0880096C4.66945 0.029694 4.40424 0.051814 4.16406 0.15129C3.92388 0.250765 3.7207 0.422647 3.58278 0.64301L2.60279 2.20701C2.50279 2.36701 2.36778 2.50201 2.20778 2.60301L0.643785 3.58301C0.423803 3.7208 0.252173 3.92366 0.152719 4.16342C0.0532649 4.40319 0.0309197 4.66797 0.0887852 4.92101L0.501785 6.72101C0.543984 6.90495 0.543984 7.09607 0.501785 7.28001L0.0887852 9.07901C0.0306948 9.3322 0.0529275 9.5972 0.152392 9.83717C0.251857 10.0771 0.423613 10.2802 0.643785 10.418L2.20778 11.398C2.36778 11.498 2.50279 11.633 2.60379 11.793L3.58379 13.357C3.86579 13.808 4.40379 14.031 4.92278 13.912L6.72079 13.499C6.90505 13.4567 7.09652 13.4567 7.28078 13.499L9.07979 13.912C9.33297 13.9701 9.59797 13.9479 9.83794 13.8484C10.0779 13.7489 10.2809 13.5772 10.4188 13.357L11.3988 11.793C11.4988 11.633 11.6338 11.498 11.7938 11.398L13.3588 10.418C13.579 10.28 13.7506 10.0767 13.8499 9.83655C13.9492 9.59638 13.9712 9.33124 13.9128 9.07801L13.5008 7.28001C13.4584 7.09575 13.4584 6.90427 13.5008 6.72001L13.9138 4.92101C13.972 4.66792 13.9499 4.403 13.8506 4.16304C13.7513 3.92308 13.5798 3.72 13.3598 3.58201L11.7948 2.60201C11.635 2.50183 11.5 2.36679 11.3998 2.20701L10.4188 0.64301ZM9.91578 4.77001C9.97764 4.65628 9.99296 4.52299 9.95853 4.39818C9.92411 4.27338 9.84262 4.16679 9.7312 4.10085C9.61979 4.03491 9.48715 4.01476 9.36117 4.04463C9.2352 4.0745 9.12573 4.15207 9.05579 4.26101L6.44078 8.68701L4.86178 7.17501C4.81494 7.12691 4.75889 7.08874 4.69698 7.06277C4.63506 7.0368 4.56855 7.02357 4.50141 7.02387C4.43427 7.02416 4.36788 7.03797 4.30619 7.06448C4.24451 7.09098 4.18879 7.12964 4.14237 7.17815C4.09595 7.22665 4.05977 7.28401 4.03599 7.3468C4.01222 7.40959 4.00133 7.47652 4.00398 7.54361C4.00663 7.6107 4.02277 7.67657 4.05143 7.73728C4.08009 7.798 4.12068 7.85232 4.17078 7.89701L6.20479 9.84601C6.25922 9.89806 6.32472 9.93715 6.39638 9.96034C6.46804 9.98353 6.54402 9.99023 6.61863 9.97994C6.69324 9.96965 6.76457 9.94264 6.82728 9.90092C6.88999 9.8592 6.94246 9.80385 6.98078 9.73901L9.91578 4.77001Z" fill="#10A41F"/>
</svg>
