<svg width="321" height="114" viewBox="0 0 321 114" fill="none" xmlns="http://www.w3.org/2000/svg">
<g clip-path="url(#clip0_326_542)">
<g clip-path="url(#clip1_326_542)">
<path d="M387.914 0H0.0854492V220H387.914V0Z" fill="#EAEAEA"/>
<path d="M387.6 0H0.0854492V23.2571H387.6V0Z" fill="#FAFAFA"/>
<path d="M39.4542 16.4309C39.1147 16.4309 38.8152 16.3701 38.5553 16.2486C38.2954 16.127 38.0924 15.9531 37.9456 15.7269C37.7988 15.5006 37.7256 15.2282 37.7256 14.9097V14.7337H38.5427V14.9097C38.5427 15.1737 38.6244 15.3728 38.7879 15.5069C38.9513 15.6368 39.1735 15.7017 39.4542 15.7017C39.7392 15.7017 39.9507 15.6451 40.089 15.532C40.2314 15.4189 40.3027 15.2743 40.3027 15.0983C40.3027 14.9768 40.2672 14.8783 40.1959 14.8029C40.1289 14.7274 40.0284 14.6667 39.8942 14.6206C39.7644 14.5703 39.605 14.5242 39.4164 14.4823L39.2719 14.4509C38.9702 14.3838 38.7102 14.3 38.4924 14.1994C38.2787 14.0947 38.1131 13.9585 37.9959 13.7909C37.8827 13.6232 37.8262 13.4053 37.8262 13.1371C37.8262 12.869 37.889 12.6406 38.0147 12.452C38.1445 12.2592 38.3249 12.1126 38.5553 12.012C38.7901 11.9072 39.0644 11.8549 39.3787 11.8549C39.693 11.8549 39.9718 11.9093 40.2147 12.0183C40.4621 12.123 40.6547 12.2823 40.793 12.496C40.9354 12.7055 41.0067 12.9695 41.0067 13.288V13.4766H40.1896V13.288C40.1896 13.1204 40.156 12.9863 40.089 12.8857C40.0262 12.781 39.9341 12.7055 39.8124 12.6594C39.6908 12.6091 39.5462 12.584 39.3787 12.584C39.1273 12.584 38.9409 12.6322 38.8193 12.7286C38.7021 12.8208 38.6433 12.9486 38.6433 13.112C38.6433 13.221 38.6706 13.3131 38.725 13.3886C38.7838 13.464 38.8696 13.5269 38.9827 13.5771C39.0959 13.6274 39.2404 13.6714 39.4164 13.7091L39.561 13.7406C39.8753 13.8076 40.1478 13.8935 40.3782 13.9983C40.6129 14.103 40.7952 14.2413 40.925 14.4131C41.0548 14.585 41.1199 14.805 41.1199 15.0731C41.1199 15.3413 41.0507 15.5781 40.9124 15.7834C40.7782 15.9846 40.5856 16.1438 40.3342 16.2611C40.0868 16.3743 39.7936 16.4309 39.4542 16.4309ZM42.9581 16.3429C42.7529 16.3429 42.5851 16.28 42.4553 16.1543C42.3296 16.0244 42.2667 15.8526 42.2667 15.6389V13.8789H41.4873V13.2251H42.2667V12.2571H43.0587V13.2251H43.9136V13.8789H43.0587V15.5006C43.0587 15.6263 43.1175 15.6891 43.2347 15.6891H43.8381V16.3429H42.9581ZM45.5984 16.4309C45.3762 16.4309 45.1773 16.3931 45.0013 16.3177C44.8253 16.2381 44.6848 16.125 44.5802 15.9783C44.4796 15.8274 44.4293 15.6451 44.4293 15.4314C44.4293 15.2177 44.4796 15.0396 44.5802 14.8971C44.6848 14.7505 44.8275 14.6415 45.0076 14.5703C45.1921 14.4949 45.4014 14.4571 45.6362 14.4571H46.491V14.2811C46.491 14.1345 46.4448 14.015 46.3527 13.9229C46.2606 13.8265 46.1139 13.7783 45.9127 13.7783C45.7157 13.7783 45.5692 13.8244 45.4727 13.9166C45.3762 14.0046 45.3134 14.1198 45.2842 14.2623L44.555 14.0171C44.6053 13.8579 44.6848 13.7133 44.7939 13.5834C44.907 13.4493 45.0557 13.3425 45.2402 13.2629C45.4287 13.179 45.6572 13.1371 45.9253 13.1371C46.3361 13.1371 46.6607 13.2398 46.8996 13.4451C47.1384 13.6505 47.2579 13.948 47.2579 14.3377V15.5006C47.2579 15.6263 47.3166 15.6891 47.4339 15.6891H47.6853V16.3429H47.1573C47.0024 16.3429 46.8744 16.3051 46.7739 16.2297C46.6733 16.1543 46.623 16.0537 46.623 15.928V15.9217H46.5036C46.4869 15.972 46.4492 16.039 46.3904 16.1229C46.3317 16.2025 46.2396 16.2737 46.1139 16.3366C45.9882 16.3994 45.8162 16.4309 45.5984 16.4309ZM45.7367 15.7897C45.9589 15.7897 46.139 15.729 46.2773 15.6074C46.4197 15.4817 46.491 15.3162 46.491 15.1109V15.048H45.6927C45.546 15.048 45.4309 15.0794 45.347 15.1423C45.2631 15.2051 45.2213 15.2931 45.2213 15.4063C45.2213 15.5194 45.2653 15.6116 45.3533 15.6829C45.4413 15.7541 45.5692 15.7897 45.7367 15.7897ZM48.2642 16.3429V13.2251H49.0436V13.5771H49.1568C49.203 13.4514 49.2784 13.3592 49.3831 13.3006C49.4921 13.2419 49.6178 13.2126 49.7602 13.2126H50.1374V13.9166H49.7476C49.5465 13.9166 49.3812 13.971 49.2511 14.08C49.1213 14.1848 49.0562 14.3482 49.0562 14.5703V16.3429H48.2642ZM50.7565 16.3429V11.9429H51.5485V14.3754H51.6616L52.6925 13.2251H53.7234L52.2839 14.7337L53.7736 16.3429H52.7554L51.6616 15.1046H51.5485V16.3429H50.7565ZM54.3045 16.3429V13.2251H55.0839V13.6337H55.197C55.2473 13.5248 55.3416 13.4221 55.4799 13.3257C55.6182 13.2251 55.8278 13.1749 56.1085 13.1749C56.3517 13.1749 56.5632 13.2314 56.7433 13.3446C56.9278 13.4535 57.0702 13.6065 57.1708 13.8034C57.2713 13.9962 57.3216 14.2225 57.3216 14.4823V16.3429H56.5296V14.5451C56.5296 14.3105 56.4712 14.1345 56.3536 14.0171C56.2405 13.8998 56.077 13.8411 55.8633 13.8411C55.6204 13.8411 55.4318 13.9229 55.2976 14.0863C55.1637 14.2455 55.0965 14.4697 55.0965 14.7589V16.3429H54.3045ZM59.5983 16.4309C59.2884 16.4309 59.0137 16.3659 58.7749 16.236C58.5404 16.1019 58.3559 15.9154 58.2217 15.6766C58.0919 15.4335 58.0269 15.1486 58.0269 14.8217V14.7463C58.0269 14.4194 58.0919 14.1366 58.2217 13.8977C58.3518 13.6547 58.5341 13.4682 58.7686 13.3383C59.0034 13.2042 59.2758 13.1371 59.5857 13.1371C59.8918 13.1371 60.1577 13.2063 60.384 13.3446C60.6103 13.4787 60.7863 13.6672 60.912 13.9103C61.0377 14.1491 61.1006 14.4278 61.1006 14.7463V15.0166H58.8314C58.8399 15.2303 58.9194 15.4042 59.0703 15.5383C59.2212 15.6724 59.4056 15.7394 59.6234 15.7394C59.8456 15.7394 60.0091 15.6912 60.1137 15.5949C60.2187 15.4985 60.2982 15.3916 60.3526 15.2743L61 15.6137C60.9416 15.7227 60.8554 15.8421 60.7423 15.972C60.6336 16.0977 60.4868 16.2067 60.3023 16.2989C60.1181 16.3869 59.8834 16.4309 59.5983 16.4309ZM58.8377 14.4257H60.296C60.2794 14.2455 60.2061 14.101 60.076 13.992C59.9503 13.883 59.785 13.8286 59.5794 13.8286C59.3657 13.8286 59.196 13.883 59.0703 13.992C58.9446 14.101 58.8673 14.2455 58.8377 14.4257ZM62.8955 16.3429C62.6902 16.3429 62.5227 16.28 62.3926 16.1543C62.2669 16.0244 62.204 15.8526 62.204 15.6389V13.8789H61.4246V13.2251H62.204V12.2571H62.996V13.2251H63.8509V13.8789H62.996V15.5006C62.996 15.6263 63.0548 15.6891 63.172 15.6891H63.7755V16.3429H62.8955ZM64.4326 15.0983V14.3817H66.2932V15.0983H64.4326ZM68.6607 16.4309C68.3213 16.4309 68.0215 16.3701 67.7619 16.2486C67.502 16.127 67.2986 15.9531 67.1522 15.7269C67.0054 15.5006 66.9322 15.2282 66.9322 14.9097V14.7337H67.7493V14.9097C67.7493 15.1737 67.831 15.3728 67.9944 15.5069C68.1579 15.6368 68.3798 15.7017 68.6607 15.7017C68.9455 15.7017 69.1573 15.6451 69.2956 15.532C69.438 15.4189 69.5093 15.2743 69.5093 15.0983C69.5093 14.9768 69.4735 14.8783 69.4024 14.8029C69.3352 14.7274 69.2346 14.6667 69.1007 14.6206C68.9706 14.5703 68.8116 14.5242 68.623 14.4823L68.4784 14.4509C68.1767 14.3838 67.9168 14.3 67.699 14.1994C67.4853 14.0947 67.3197 13.9585 67.2024 13.7909C67.0893 13.6232 67.0327 13.4053 67.0327 13.1371C67.0327 12.869 67.0956 12.6406 67.2213 12.452C67.3511 12.2592 67.5312 12.1126 67.7619 12.012C67.9963 11.9072 68.271 11.8549 68.5853 11.8549C68.8996 11.8549 69.178 11.9093 69.4213 12.0183C69.6683 12.123 69.8613 12.2823 69.9996 12.496C70.142 12.7055 70.2133 12.9695 70.2133 13.288V13.4766H69.3962V13.288C69.3962 13.1204 69.3625 12.9863 69.2956 12.8857C69.2327 12.781 69.1403 12.7055 69.019 12.6594C68.8974 12.6091 68.7528 12.584 68.5853 12.584C68.3339 12.584 68.1472 12.6322 68.0259 12.7286C67.9083 12.8208 67.8499 12.9486 67.8499 13.112C67.8499 13.221 67.8769 13.3131 67.9316 13.3886C67.99 13.464 68.0762 13.5269 68.1893 13.5771C68.3024 13.6274 68.447 13.6714 68.623 13.7091L68.7676 13.7406C69.0819 13.8076 69.354 13.8935 69.5847 13.9983C69.8192 14.103 70.0015 14.2413 70.1316 14.4131C70.2614 14.585 70.3264 14.805 70.3264 15.0731C70.3264 15.3413 70.2573 15.5781 70.119 15.7834C69.9848 15.9846 69.7922 16.1438 69.5407 16.2611C69.2934 16.3743 69.0002 16.4309 68.6607 16.4309ZM72.435 16.4309C72.1333 16.4309 71.8586 16.368 71.6116 16.2423C71.3683 16.1166 71.1756 15.9343 71.0333 15.6954C70.8906 15.4566 70.8196 15.1674 70.8196 14.828V14.74C70.8196 14.4006 70.8906 14.1114 71.0333 13.8726C71.1756 13.6337 71.3683 13.4514 71.6116 13.3257C71.8586 13.2 72.1333 13.1371 72.435 13.1371C72.7323 13.1371 72.9881 13.1895 73.2018 13.2943C73.4156 13.399 73.5872 13.5436 73.7173 13.728C73.8512 13.9082 73.9392 14.1135 73.9813 14.344L73.2144 14.5074C73.1974 14.3817 73.1597 14.2686 73.1013 14.168C73.0425 14.0674 72.9586 13.9878 72.8498 13.9291C72.7449 13.8705 72.6129 13.8411 72.4538 13.8411C72.2945 13.8411 72.1499 13.8768 72.0201 13.948C71.8944 14.015 71.7938 14.1177 71.7184 14.256C71.6471 14.3901 71.6116 14.5556 71.6116 14.7526V14.8154C71.6116 15.0124 71.6471 15.18 71.7184 15.3183C71.7938 15.4524 71.8944 15.555 72.0201 15.6263C72.1499 15.6933 72.2945 15.7269 72.4538 15.7269C72.6927 15.7269 72.8728 15.6661 72.9944 15.5446C73.1201 15.4189 73.1996 15.2554 73.2333 15.0543L74.0001 15.2366C73.9454 15.4587 73.8512 15.6619 73.7173 15.8463C73.5872 16.0265 73.4156 16.169 73.2018 16.2737C72.9881 16.3785 72.7323 16.4309 72.435 16.4309ZM75.6212 16.4309C75.3993 16.4309 75.2001 16.3931 75.0241 16.3177C74.8481 16.2381 74.7079 16.125 74.6029 15.9783C74.5024 15.8274 74.4521 15.6451 74.4521 15.4314C74.4521 15.2177 74.5024 15.0396 74.6029 14.8971C74.7079 14.7505 74.8503 14.6415 75.0304 14.5703C75.2148 14.4949 75.4245 14.4571 75.6589 14.4571H76.5138V14.2811C76.5138 14.1345 76.4679 14.015 76.3755 13.9229C76.2834 13.8265 76.1366 13.7783 75.9355 13.7783C75.7388 13.7783 75.592 13.8244 75.4955 13.9166C75.3993 14.0046 75.3365 14.1198 75.3069 14.2623L74.5778 14.0171C74.6281 13.8579 74.7079 13.7133 74.8166 13.5834C74.9298 13.4493 75.0788 13.3425 75.2629 13.2629C75.4515 13.179 75.68 13.1371 75.9481 13.1371C76.3588 13.1371 76.6835 13.2398 76.9224 13.4451C77.1612 13.6505 77.2806 13.948 77.2806 14.3377V15.5006C77.2806 15.6263 77.3394 15.6891 77.4566 15.6891H77.7081V16.3429H77.1801C77.0251 16.3429 76.8972 16.3051 76.7966 16.2297C76.6961 16.1543 76.6458 16.0537 76.6458 15.928V15.9217H76.5264C76.5097 15.972 76.472 16.039 76.4132 16.1229C76.3548 16.2025 76.2624 16.2737 76.1366 16.3366C76.0109 16.3994 75.8393 16.4309 75.6212 16.4309ZM75.7595 15.7897C75.9817 15.7897 76.1618 15.729 76.3001 15.6074C76.4428 15.4817 76.5138 15.3162 76.5138 15.1109V15.048H75.7155C75.569 15.048 75.4537 15.0794 75.3698 15.1423C75.2862 15.2051 75.2441 15.2931 75.2441 15.4063C75.2441 15.5194 75.2881 15.6116 75.3761 15.6829C75.4641 15.7541 75.592 15.7897 75.7595 15.7897ZM78.5755 16.3429V13.8789H77.7835V13.2251H78.5755V12.6469C78.5755 12.4331 78.6384 12.2634 78.7641 12.1377C78.8942 12.0078 79.0617 11.9429 79.2669 11.9429H80.0841V12.5966H79.5435C79.4263 12.5966 79.3675 12.6594 79.3675 12.7851V13.2251H79.9961V13.8789H79.3675V16.3429H78.5755ZM80.6246 16.3429V13.8789H79.9961V13.2251H80.6246V12.6469C80.6246 12.4331 80.6875 12.2634 80.8132 12.1377C80.9433 12.0078 81.1108 11.9429 81.3161 11.9429H82.1332V12.5966H81.5926C81.4754 12.5966 81.4166 12.6594 81.4166 12.7851V13.2251H82.2338V13.8789H81.4166V16.3429H80.6246ZM84.2273 16.4309C83.9171 16.4309 83.6383 16.368 83.3913 16.2423C83.144 16.1166 82.9491 15.9343 82.8067 15.6954C82.664 15.4566 82.593 15.1695 82.593 14.8343V14.7337C82.593 14.3985 82.664 14.1114 82.8067 13.8726C82.9491 13.6337 83.144 13.4514 83.3913 13.3257C83.6383 13.2 83.9171 13.1371 84.2273 13.1371C84.5372 13.1371 84.816 13.2 85.0633 13.3257C85.3103 13.4514 85.5052 13.6337 85.6479 13.8726C85.7902 14.1114 85.8616 14.3985 85.8616 14.7337V14.8343C85.8616 15.1695 85.7902 15.4566 85.6479 15.6954C85.5052 15.9343 85.3103 16.1166 85.0633 16.2423C84.816 16.368 84.5372 16.4309 84.2273 16.4309ZM84.2273 15.7269C84.4702 15.7269 84.6714 15.6493 84.8307 15.4943C84.9898 15.335 85.0696 15.1088 85.0696 14.8154V14.7526C85.0696 14.4592 84.9898 14.235 84.8307 14.08C84.6755 13.9208 84.4743 13.8411 84.2273 13.8411C83.984 13.8411 83.7829 13.9208 83.6239 14.08C83.4645 14.235 83.385 14.4592 83.385 14.7526V14.8154C83.385 15.1088 83.4645 15.335 83.6239 15.4943C83.7829 15.6493 83.984 15.7269 84.2273 15.7269ZM86.5926 16.3429V11.9429H87.3846V16.3429H86.5926ZM89.5192 16.4309C89.2719 16.4309 89.0393 16.3701 88.8215 16.2486C88.6078 16.1229 88.4359 15.9406 88.3061 15.7017C88.1763 15.4629 88.1112 15.1737 88.1112 14.8343V14.7337C88.1112 14.3943 88.1763 14.1051 88.3061 13.8663C88.4359 13.6274 88.6078 13.4472 88.8215 13.3257C89.0352 13.2 89.2678 13.1371 89.5192 13.1371C89.7078 13.1371 89.865 13.1602 89.9907 13.2063C90.1205 13.2482 90.2254 13.3027 90.305 13.3697C90.3845 13.4368 90.4454 13.508 90.4872 13.5834H90.6004V11.9429H91.3924V16.3429H90.6129V15.9657H90.4998C90.4285 16.083 90.3175 16.1899 90.1667 16.2863C90.0199 16.3827 89.8043 16.4309 89.5192 16.4309ZM89.7581 15.7394C90.001 15.7394 90.2044 15.6619 90.3678 15.5069C90.5312 15.3476 90.6129 15.1171 90.6129 14.8154V14.7526C90.6129 14.4509 90.5312 14.2225 90.3678 14.0674C90.2085 13.9082 90.0054 13.8286 89.7581 13.8286C89.5151 13.8286 89.3118 13.9082 89.1484 14.0674C88.9849 14.2225 88.9032 14.4509 88.9032 14.7526V14.8154C88.9032 15.1171 88.9849 15.3476 89.1484 15.5069C89.3118 15.6619 89.5151 15.7394 89.7581 15.7394Z" fill="#0C0C4F"/>
<path d="M40.981 46.6551C40.438 46.6551 39.9587 46.558 39.5429 46.3634C39.1274 46.1689 38.8021 45.8908 38.5673 45.5287C38.3329 45.1666 38.2153 44.7307 38.2153 44.2213V43.9397H39.5228V44.2213C39.5228 44.6437 39.6535 44.962 39.915 45.1767C40.1765 45.3844 40.5319 45.4885 40.981 45.4885C41.4371 45.4885 41.7756 45.398 41.9968 45.2169C42.225 45.0359 42.3388 44.8046 42.3388 44.523C42.3388 44.3284 42.2819 44.171 42.1678 44.0503C42.0606 43.9296 41.8997 43.8325 41.685 43.7586C41.4773 43.6782 41.2224 43.6043 40.9207 43.5374L40.6894 43.4871C40.2066 43.3799 39.7912 43.2457 39.4423 43.0848C39.1004 42.9173 38.8357 42.6992 38.6478 42.4311C38.4668 42.163 38.3762 41.8142 38.3762 41.3852C38.3762 40.9562 38.4768 40.5906 38.678 40.2889C38.886 39.9806 39.1742 39.7458 39.5429 39.5849C39.9184 39.4174 40.3575 39.3335 40.8604 39.3335C41.3632 39.3335 41.8092 39.4206 42.198 39.595C42.5936 39.7625 42.902 40.0174 43.1232 40.3593C43.3514 40.6947 43.4652 41.1171 43.4652 41.6265V41.9282H42.1577V41.6265C42.1577 41.3584 42.1043 41.1438 41.9968 40.9829C41.8962 40.8154 41.7488 40.6947 41.5543 40.6208C41.3601 40.5404 41.1288 40.5001 40.8604 40.5001C40.4581 40.5001 40.1598 40.5771 39.9653 40.7314C39.7776 40.8788 39.6837 41.0834 39.6837 41.3449C39.6837 41.5194 39.7274 41.6668 39.8144 41.7874C39.9084 41.9081 40.0457 42.0087 40.2268 42.0892C40.4078 42.1696 40.6391 42.24 40.9207 42.3004L41.152 42.3506C41.6549 42.4578 42.0908 42.5955 42.4594 42.763C42.835 42.9305 43.1267 43.1518 43.3344 43.4268C43.5425 43.7018 43.6462 44.0538 43.6462 44.4828C43.6462 44.9118 43.5356 45.2908 43.3143 45.6192C43.1 45.941 42.7913 46.1959 42.389 46.3836C41.9937 46.5646 41.5241 46.6551 40.981 46.6551ZM46.5876 46.5143C46.2588 46.5143 45.9908 46.4137 45.783 46.2126C45.5819 46.0048 45.4813 45.7298 45.4813 45.3879V42.5719H44.2342V41.526H45.4813V39.9772H46.7485V41.526H48.1163V42.5719H46.7485V45.1666C46.7485 45.3678 46.8422 45.4684 47.0301 45.4684H47.9956V46.5143H46.5876ZM50.8119 46.6551C50.4568 46.6551 50.1381 46.5947 49.8565 46.4741C49.5749 46.3468 49.3505 46.1658 49.1826 45.931C49.0217 45.6896 48.9413 45.398 48.9413 45.056C48.9413 44.7141 49.0217 44.429 49.1826 44.2012C49.3505 43.9664 49.5783 43.7923 49.8665 43.6782C50.1616 43.5575 50.497 43.4972 50.8722 43.4972H52.24V43.2156C52.24 42.9808 52.1665 42.7897 52.0188 42.6423C51.8714 42.488 51.6366 42.411 51.3148 42.411C50.9998 42.411 50.7651 42.4848 50.6108 42.6322C50.4568 42.773 50.3562 42.9575 50.309 43.1854L49.1424 42.7932C49.2229 42.5383 49.3505 42.307 49.5246 42.0992C49.7056 41.8846 49.9438 41.7136 50.2386 41.5863C50.5404 41.4521 50.9059 41.3852 51.3349 41.3852C51.992 41.3852 52.5116 41.5495 52.8937 41.878C53.2759 42.2064 53.467 42.6825 53.467 43.3061V45.1666C53.467 45.3678 53.561 45.4684 53.7486 45.4684H54.1509V46.5143H53.3061C53.0581 46.5143 52.8535 46.454 52.6926 46.3333C52.5317 46.2126 52.4512 46.0517 52.4512 45.8505V45.8405H52.2601C52.2334 45.9209 52.1731 46.0281 52.0791 46.1623C51.9854 46.2896 51.8377 46.4037 51.6366 46.5042C51.4354 46.6048 51.1608 46.6551 50.8119 46.6551ZM51.0332 45.6293C51.3886 45.6293 51.6768 45.5322 51.8981 45.3376C52.1262 45.1365 52.24 44.8715 52.24 44.5431V44.4425H50.9628C50.7283 44.4425 50.5438 44.4928 50.4096 44.5934C50.2757 44.694 50.2085 44.8348 50.2085 45.0158C50.2085 45.1968 50.2789 45.3442 50.4197 45.4583C50.5605 45.5724 50.7651 45.6293 51.0332 45.6293ZM55.0774 46.5143V41.526H56.3245V42.0892H56.5055C56.5794 41.888 56.7 41.7406 56.8676 41.6466C57.042 41.5527 57.2431 41.5058 57.471 41.5058H58.0744V42.6322H57.4509C57.129 42.6322 56.8644 42.7193 56.6564 42.8937C56.4486 43.0612 56.3446 43.3227 56.3446 43.6782V46.5143H55.0774ZM59.065 46.5143V39.4743H60.3322V43.3664H60.5133L62.1626 41.526H63.812L61.5089 43.9397L63.8925 46.5143H62.2632L60.5133 44.533H60.3322V46.5143H59.065ZM64.7417 46.5143V41.526H65.9888V42.1797H66.1698C66.2502 42.0052 66.4011 41.8412 66.6224 41.6869C66.8436 41.526 67.179 41.4455 67.6281 41.4455C68.0172 41.4455 68.3556 41.536 68.6438 41.717C68.939 41.8915 69.1668 42.136 69.3277 42.4512C69.4886 42.7595 69.5691 43.1216 69.5691 43.5374V46.5143H68.3019V43.638C68.3019 43.2624 68.2082 42.9808 68.0203 42.7932C67.8393 42.6055 67.5778 42.5116 67.2358 42.5116C66.8471 42.5116 66.5454 42.6423 66.3307 42.9038C66.1164 43.1587 66.0089 43.5173 66.0089 43.9799V46.5143H64.7417ZM73.212 46.6551C72.7157 46.6551 72.2767 46.5511 71.8945 46.3433C71.5189 46.1287 71.2241 45.8304 71.0095 45.4482C70.8017 45.0595 70.6977 44.6034 70.6977 44.0805V43.9598C70.6977 43.4368 70.8017 42.9842 71.0095 42.6021C71.2172 42.2133 71.5089 41.9147 71.8844 41.707C72.26 41.4923 72.6956 41.3852 73.1919 41.3852C73.6812 41.3852 74.1071 41.4958 74.4691 41.717C74.8312 41.9317 75.1128 42.2334 75.3139 42.6222C75.5151 43.0044 75.6156 43.4503 75.6156 43.9598V44.3922H71.985C71.9985 44.7342 72.1258 45.0123 72.3672 45.227C72.6086 45.4416 72.9037 45.5488 73.2522 45.5488C73.6077 45.5488 73.8692 45.4718 74.0367 45.3175C74.2042 45.1632 74.3318 44.9922 74.4188 44.8046L75.4547 45.3477C75.3608 45.5221 75.2234 45.7132 75.0424 45.9209C74.868 46.1221 74.6335 46.2965 74.3384 46.4439C74.0433 46.5847 73.668 46.6551 73.212 46.6551ZM71.9951 43.4469H74.3283C74.3016 43.1587 74.1841 42.9274 73.9763 42.7529C73.7752 42.5785 73.5102 42.4914 73.1818 42.4914C72.8399 42.4914 72.5683 42.5785 72.3672 42.7529C72.166 42.9274 72.0419 43.1587 71.9951 43.4469ZM78.4876 46.5143C78.1588 46.5143 77.8908 46.4137 77.683 46.2126C77.4819 46.0048 77.3813 45.7298 77.3813 45.3879V42.5719H76.1342V41.526H77.3813V39.9772H78.6485V41.526H80.0163V42.5719H78.6485V45.1666C78.6485 45.3678 78.7422 45.4684 78.9301 45.4684H79.8956V46.5143H78.4876ZM80.9466 44.523V43.3765H83.9235V44.523H80.9466ZM87.6512 46.6551C87.1685 46.6551 86.7294 46.5545 86.3337 46.3534C85.945 46.1522 85.6363 45.8606 85.4085 45.4784C85.1806 45.0962 85.0665 44.6336 85.0665 44.0905V43.9497C85.0665 43.4066 85.1806 42.944 85.4085 42.5618C85.6363 42.1797 85.945 41.888 86.3337 41.6869C86.7294 41.4857 87.1685 41.3852 87.6512 41.3852C88.1274 41.3852 88.5362 41.4691 88.8782 41.6366C89.2201 41.8041 89.4951 42.0354 89.7029 42.3305C89.9175 42.6187 90.0583 42.9475 90.1253 43.3161L88.8983 43.5776C88.8716 43.3765 88.8112 43.1954 88.7173 43.0345C88.6233 42.8736 88.4894 42.7463 88.315 42.6524C88.1475 42.5584 87.9363 42.5116 87.6814 42.5116C87.4265 42.5116 87.1952 42.5684 86.9874 42.6825C86.7863 42.7897 86.6254 42.9541 86.5047 43.1753C86.3906 43.39 86.3337 43.6546 86.3337 43.9698V44.0704C86.3337 44.3856 86.3906 44.6537 86.5047 44.875C86.6254 45.0896 86.7863 45.2537 86.9874 45.3678C87.1952 45.475 87.4265 45.5287 87.6814 45.5287C88.0636 45.5287 88.3518 45.4316 88.5463 45.237C88.7474 45.0359 88.8747 44.7744 88.9285 44.4526L90.1554 44.7442C90.0684 45.0997 89.9175 45.4247 89.7029 45.7198C89.4951 46.008 89.2201 46.2362 88.8782 46.4037C88.5362 46.5712 88.1274 46.6551 87.6512 46.6551ZM91.7439 48.5257V47.4194H94.4593C94.6469 47.4194 94.7409 47.3189 94.7409 47.1177V45.8606H94.5598C94.5061 45.9747 94.4225 46.0884 94.3084 46.2025C94.1943 46.3166 94.0403 46.4103 93.8458 46.4841C93.6512 46.558 93.4033 46.5948 93.1016 46.5948C92.7128 46.5948 92.3708 46.5077 92.0757 46.3333C91.7875 46.1522 91.5628 45.9043 91.4019 45.589C91.241 45.2738 91.1605 44.9118 91.1605 44.5029V41.526H92.4277V44.4023C92.4277 44.7779 92.5182 45.0595 92.6993 45.2471C92.8869 45.4347 93.1518 45.5287 93.4938 45.5287C93.8826 45.5287 94.1843 45.4014 94.3989 45.1465C94.6136 44.885 94.7208 44.523 94.7208 44.0604V41.526H95.988V47.3993C95.988 47.7413 95.8874 48.0128 95.6862 48.214C95.4851 48.4217 95.217 48.5257 94.8817 48.5257H91.7439ZM97.3982 46.5143V39.4743H98.6654V46.5143H97.3982ZM102.443 46.6551C101.947 46.6551 101.501 46.5545 101.105 46.3534C100.71 46.1522 100.398 45.8606 100.17 45.4784C99.942 45.0962 99.8282 44.6371 99.8282 44.1006V43.9397C99.8282 43.4032 99.942 42.944 100.17 42.5618C100.398 42.1797 100.71 41.888 101.105 41.6869C101.501 41.4857 101.947 41.3852 102.443 41.3852C102.939 41.3852 103.385 41.4857 103.781 41.6869C104.176 41.888 104.488 42.1797 104.716 42.5618C104.944 42.944 105.058 43.4032 105.058 43.9397V44.1006C105.058 44.6371 104.944 45.0962 104.716 45.4784C104.488 45.8606 104.176 46.1522 103.781 46.3534C103.385 46.5545 102.939 46.6551 102.443 46.6551ZM102.443 45.5287C102.832 45.5287 103.154 45.4046 103.409 45.1566C103.663 44.9017 103.791 44.5396 103.791 44.0704V43.9698C103.791 43.5006 103.663 43.1417 103.409 42.8937C103.16 42.6388 102.838 42.5116 102.443 42.5116C102.054 42.5116 101.732 42.6388 101.478 42.8937C101.223 43.1417 101.095 43.5006 101.095 43.9698V44.0704C101.095 44.5396 101.223 44.9017 101.478 45.1566C101.732 45.4046 102.054 45.5287 102.443 45.5287ZM106.227 48.5257V41.526H107.474V42.1294H107.656C107.77 41.9348 107.947 41.7639 108.189 41.6165C108.43 41.4622 108.775 41.3852 109.224 41.3852C109.627 41.3852 109.999 41.4857 110.341 41.6869C110.683 41.8814 110.958 42.1696 111.165 42.5518C111.374 42.934 111.477 43.3966 111.477 43.9397V44.1006C111.477 44.6437 111.374 45.1063 111.165 45.4885C110.958 45.8706 110.683 46.1623 110.341 46.3634C109.999 46.558 109.627 46.6551 109.224 46.6551C108.923 46.6551 108.668 46.6183 108.46 46.5445C108.259 46.4775 108.095 46.3902 107.967 46.283C107.847 46.1689 107.749 46.0551 107.676 45.941H107.495V48.5257H106.227ZM108.842 45.5488C109.238 45.5488 109.563 45.4247 109.818 45.1767C110.079 44.9218 110.21 44.5532 110.21 44.0704V43.9698C110.21 43.4871 110.079 43.1216 109.818 42.8736C109.556 42.6187 109.231 42.4914 108.842 42.4914C108.453 42.4914 108.128 42.6187 107.867 42.8736C107.605 43.1216 107.474 43.4871 107.474 43.9698V44.0704C107.474 44.5532 107.605 44.9218 107.867 45.1767C108.128 45.4247 108.453 45.5488 108.842 45.5488ZM114.914 46.6551C114.418 46.6551 113.979 46.5511 113.596 46.3433C113.221 46.1287 112.926 45.8304 112.711 45.4482C112.503 45.0595 112.4 44.6034 112.4 44.0805V43.9598C112.4 43.4368 112.503 42.9842 112.711 42.6021C112.919 42.2133 113.211 41.9147 113.586 41.707C113.962 41.4923 114.398 41.3852 114.894 41.3852C115.383 41.3852 115.809 41.4958 116.171 41.717C116.533 41.9317 116.815 42.2334 117.016 42.6222C117.217 43.0044 117.318 43.4503 117.318 43.9598V44.3922H113.687C113.7 44.7342 113.828 45.0123 114.069 45.227C114.311 45.4416 114.605 45.5488 114.954 45.5488C115.309 45.5488 115.571 45.4718 115.739 45.3175C115.906 45.1632 116.033 44.9922 116.121 44.8046L117.157 45.3477C117.063 45.5221 116.925 45.7132 116.744 45.9209C116.57 46.1221 116.335 46.2965 116.04 46.4439C115.745 46.5847 115.37 46.6551 114.914 46.6551ZM113.697 43.4469H116.03C116.003 43.1587 115.886 42.9274 115.678 42.7529C115.477 42.5785 115.212 42.4914 114.884 42.4914C114.542 42.4914 114.27 42.5785 114.069 42.7529C113.868 42.9274 113.744 43.1587 113.697 43.4469ZM120.457 46.6551C120.061 46.6551 119.689 46.558 119.34 46.3634C118.998 46.1623 118.724 45.8706 118.516 45.4885C118.308 45.1063 118.204 44.6437 118.204 44.1006V43.9397C118.204 43.3966 118.308 42.934 118.516 42.5518C118.724 42.1696 118.998 41.8814 119.34 41.6869C119.682 41.4857 120.054 41.3852 120.457 41.3852C120.758 41.3852 121.01 41.4219 121.211 41.4958C121.419 41.5627 121.587 41.6501 121.714 41.7573C121.841 41.8644 121.939 41.9785 122.005 42.0992H122.187V39.4743H123.454V46.5143H122.207V45.9109H122.026C121.912 46.0985 121.734 46.2695 121.493 46.4238C121.258 46.5781 120.913 46.6551 120.457 46.6551ZM120.839 45.5488C121.228 45.5488 121.553 45.4247 121.814 45.1767C122.076 44.9218 122.207 44.5532 122.207 44.0704V43.9698C122.207 43.4871 122.076 43.1216 121.814 42.8736C121.56 42.6187 121.235 42.4914 120.839 42.4914C120.45 42.4914 120.125 42.6187 119.863 42.8736C119.602 43.1216 119.471 43.4871 119.471 43.9698V44.0704C119.471 44.5532 119.602 44.9218 119.863 45.1767C120.125 45.4247 120.45 45.5488 120.839 45.5488ZM124.859 46.5143V41.526H126.126V46.5143H124.859ZM125.492 40.9426C125.264 40.9426 125.07 40.8688 124.909 40.7214C124.755 40.574 124.678 40.3794 124.678 40.1381C124.678 39.8967 124.755 39.7022 124.909 39.5548C125.07 39.4074 125.264 39.3335 125.492 39.3335C125.727 39.3335 125.921 39.4074 126.076 39.5548C126.23 39.7022 126.307 39.8967 126.307 40.1381C126.307 40.3794 126.23 40.574 126.076 40.7214C125.921 40.8688 125.727 40.9426 125.492 40.9426ZM129.079 46.6551C128.724 46.6551 128.405 46.5947 128.124 46.4741C127.842 46.3468 127.617 46.1658 127.45 45.931C127.289 45.6896 127.208 45.398 127.208 45.056C127.208 44.7141 127.289 44.429 127.45 44.2012C127.617 43.9664 127.845 43.7923 128.134 43.6782C128.429 43.5575 128.764 43.4972 129.139 43.4972H130.507V43.2156C130.507 42.9808 130.433 42.7897 130.286 42.6423C130.138 42.488 129.904 42.411 129.582 42.411C129.267 42.411 129.032 42.4848 128.878 42.6322C128.724 42.773 128.623 42.9575 128.576 43.1854L127.41 42.7932C127.49 42.5383 127.617 42.307 127.792 42.0992C127.973 41.8846 128.211 41.7136 128.506 41.5863C128.808 41.4521 129.173 41.3852 129.602 41.3852C130.259 41.3852 130.779 41.5495 131.161 41.878C131.543 42.2064 131.734 42.6825 131.734 43.3061V45.1666C131.734 45.3678 131.828 45.4684 132.016 45.4684H132.418V46.5143H131.573C131.325 46.5143 131.121 46.454 130.96 46.3333C130.799 46.2126 130.718 46.0517 130.718 45.8505V45.8405H130.527C130.5 45.9209 130.44 46.0281 130.346 46.1623C130.252 46.2896 130.105 46.4037 129.904 46.5042C129.703 46.6048 129.428 46.6551 129.079 46.6551ZM129.3 45.6293C129.656 45.6293 129.944 45.5322 130.165 45.3376C130.393 45.1365 130.507 44.8715 130.507 44.5431V44.4425H129.23C128.995 44.4425 128.811 44.4928 128.677 44.5934C128.543 44.694 128.476 44.8348 128.476 45.0158C128.476 45.1968 128.546 45.3442 128.687 45.4583C128.828 45.5724 129.032 45.6293 129.3 45.6293Z" fill="#0C0C4F"/>
<path d="M345.171 56.8857H42.8284C40.0512 56.8857 37.7998 59.1371 37.7998 61.9143V188.886C37.7998 191.663 40.0512 193.914 42.8284 193.914H345.171C347.948 193.914 350.2 191.663 350.2 188.886V61.9143C350.2 59.1371 347.948 56.8857 345.171 56.8857Z" fill="#FAFAFA"/>
<path d="M199.028 64.5857H49.4283C47.4321 64.5857 45.814 66.2039 45.814 68.2V74.4857C45.814 76.4818 47.4321 78.1 49.4283 78.1H199.028C201.024 78.1 202.643 76.4818 202.643 74.4857V68.2C202.643 66.2039 201.024 64.5857 199.028 64.5857Z" fill="#EAEAEA"/>
<path d="M199.028 64.5857H49.4283C47.4321 64.5857 45.814 66.2039 45.814 68.2V74.4857C45.814 76.4818 47.4321 78.1 49.4283 78.1H199.028C201.024 78.1 202.643 76.4818 202.643 74.4857V68.2C202.643 66.2039 201.024 64.5857 199.028 64.5857Z" stroke="#D4D4D4" strokeLinecap="round" strokeLinejoin="round"/>
<path d="M58.6996 73.7L57.5622 72.5626M57.5622 72.5626C57.7568 72.3681 57.9111 72.1371 58.0164 71.8828C58.1217 71.6285 58.176 71.3561 58.176 71.0811C58.176 70.8057 58.1217 70.5333 58.0164 70.279C57.9111 70.0247 57.7568 69.7941 57.5622 69.5992C57.3677 69.4047 57.1367 69.2503 56.8824 69.1451C56.6282 69.0398 56.3557 68.9857 56.0807 68.9857C55.8054 68.9857 55.5329 69.0398 55.279 69.1451C55.0247 69.2503 54.7937 69.4047 54.5992 69.5992C54.206 69.9924 53.9854 70.5251 53.9854 71.0811C53.9854 71.6367 54.206 72.1694 54.5992 72.5626C54.992 72.9555 55.525 73.1761 56.0807 73.1761C56.6364 73.1761 57.1694 72.9555 57.5622 72.5626Z" stroke="#7A7A7A" strokeWidth="1.5" strokeLinecap="round" strokeLinejoin="round"/>
<path d="M63.5738 73.299C63.3189 73.299 63.091 73.2537 62.8899 73.1632C62.6888 73.0727 62.5294 72.9369 62.4122 72.7559C62.2981 72.5714 62.2412 72.342 62.2412 72.067V71.9614H62.6586V72.067C62.6586 72.3586 62.7441 72.5764 62.915 72.7207C63.086 72.8615 63.3057 72.9319 63.5738 72.9319C63.8488 72.9319 64.0581 72.87 64.2024 72.7458C64.3466 72.6217 64.4186 72.4658 64.4186 72.2782C64.4186 72.1474 64.385 72.0434 64.318 71.9664C64.2542 71.8894 64.1637 71.8272 64.0465 71.7804C63.9292 71.7301 63.7916 71.6864 63.6341 71.6496L63.3726 71.5842C63.168 71.5305 62.987 71.4651 62.8296 71.3881C62.6721 71.3111 62.548 71.2106 62.4574 71.0864C62.3704 70.9591 62.3267 70.7963 62.3267 70.5986C62.3267 70.401 62.3754 70.23 62.4725 70.0857C62.5731 69.9415 62.7123 69.8308 62.8899 69.7538C63.0709 69.6768 63.2787 69.6382 63.5134 69.6382C63.7514 69.6382 63.9644 69.68 64.1521 69.7639C64.3432 69.8444 64.4924 69.965 64.5996 70.126C64.7102 70.2834 64.7656 70.483 64.7656 70.7244V70.9356H64.3482V70.7244C64.3482 70.5534 64.3114 70.416 64.2376 70.312C64.1672 70.208 64.0682 70.131 63.9409 70.0807C63.8167 70.0304 63.6744 70.0053 63.5134 70.0053C63.2821 70.0053 63.0961 70.0571 62.9553 70.1612C62.8145 70.2617 62.7441 70.406 62.7441 70.5936C62.7441 70.7178 62.7742 70.8183 62.8346 70.8953C62.8949 70.9723 62.9804 71.0361 63.091 71.0864C63.2017 71.1332 63.334 71.1754 63.4883 71.2121L63.7498 71.2775C63.9544 71.3212 64.137 71.3815 64.2979 71.4585C64.4623 71.5324 64.593 71.6345 64.6901 71.7653C64.7872 71.8926 64.836 72.0604 64.836 72.2681C64.836 72.4759 64.7841 72.6569 64.6801 72.8112C64.576 72.9655 64.4286 73.0862 64.2376 73.1733C64.0499 73.2572 63.8287 73.299 63.5738 73.299ZM66.6277 73.299C66.3794 73.299 66.1616 73.2471 65.974 73.1431C65.786 73.0359 65.6402 72.8866 65.5365 72.6956C65.4325 72.5045 65.3806 72.2832 65.3806 72.0318V71.9714C65.3806 71.7166 65.4325 71.4937 65.5365 71.3026C65.6402 71.1116 65.7845 70.9642 65.969 70.8601C66.1531 70.753 66.3643 70.6992 66.6026 70.6992C66.8339 70.6992 67.0382 70.7495 67.216 70.8501C67.3936 70.9472 67.5328 71.088 67.6334 71.2725C67.734 71.457 67.7843 71.6732 67.7843 71.9212V72.1022H65.7779C65.7879 72.3671 65.8734 72.5749 66.0343 72.7257C66.1952 72.8731 66.3964 72.947 66.6378 72.947C66.849 72.947 67.0114 72.8983 67.1255 72.8012C67.2393 72.704 67.3267 72.5884 67.387 72.4542L67.729 72.6201C67.6787 72.7242 67.6083 72.8279 67.5178 72.9319C67.4304 73.0359 67.3147 73.123 67.1708 73.1934C67.03 73.2638 66.849 73.299 66.6277 73.299ZM65.7829 71.7753H67.382C67.3685 71.5475 67.2896 71.3696 67.1456 71.2423C67.0048 71.115 66.8238 71.0512 66.6026 71.0512C66.3778 71.0512 66.1933 71.115 66.0494 71.2423C65.9051 71.3696 65.8162 71.5475 65.7829 71.7753ZM69.2312 73.299C69.0603 73.299 68.9044 73.2688 68.7636 73.2085C68.6228 73.1481 68.5121 73.0611 68.4317 72.947C68.3512 72.8329 68.311 72.694 68.311 72.5296C68.311 72.3621 68.3512 72.2244 68.4317 72.1173C68.5121 72.0066 68.6228 71.9246 68.7636 71.8709C68.9044 71.814 69.0621 71.7854 69.2363 71.7854H70.066V71.6044C70.066 71.4299 70.0141 71.2926 69.9101 71.192C69.8095 71.0914 69.6587 71.0412 69.4575 71.0412C69.2598 71.0412 69.1055 71.0899 68.9949 71.187C68.8843 71.281 68.8088 71.4082 68.7686 71.5692L68.3965 71.4485C68.4367 71.3111 68.5005 71.187 68.5876 71.0764C68.675 70.9623 68.7906 70.8718 68.9346 70.8048C69.0823 70.7344 69.2583 70.6992 69.4625 70.6992C69.7778 70.6992 70.0226 70.7812 70.1967 70.9456C70.3711 71.1065 70.4582 71.3344 70.4582 71.6295V72.7408C70.4582 72.8414 70.5053 72.8917 70.599 72.8917H70.8253V73.2286H70.4783C70.3677 73.2286 70.2791 73.1984 70.2118 73.1381C70.1449 73.0743 70.1112 72.9907 70.1112 72.8866V72.8615H70.0509C70.0141 72.9253 69.9638 72.9922 69.9 73.0626C69.8397 73.1296 69.7561 73.1849 69.6486 73.2286C69.5414 73.2754 69.4022 73.299 69.2312 73.299ZM69.2765 72.957C69.5113 72.957 69.7008 72.8882 69.8447 72.7509C69.9924 72.6101 70.066 72.414 70.066 72.1625V72.1072H69.2514C69.0939 72.1072 68.9632 72.1424 68.8591 72.2128C68.7586 72.2798 68.7083 72.3822 68.7083 72.5196C68.7083 72.6569 68.7604 72.7644 68.8642 72.8414C68.9716 72.9184 69.109 72.957 69.2765 72.957ZM71.3693 73.2286V70.7696H71.7565V71.0713H71.8269C71.8706 70.9642 71.9376 70.8853 72.0281 70.835C72.1186 70.7847 72.2377 70.7596 72.3851 70.7596H72.6768V71.1216H72.36C72.1824 71.1216 72.0381 71.1719 71.9275 71.2725C71.8203 71.3696 71.7666 71.5223 71.7666 71.7301V73.2286H71.3693ZM74.3079 73.299C74.07 73.299 73.8553 73.2487 73.6642 73.1481C73.4766 73.0441 73.3273 72.8967 73.2167 72.7056C73.1095 72.5145 73.0558 72.2882 73.0558 72.0268V71.9714C73.0558 71.7065 73.1095 71.4802 73.2167 71.2926C73.3273 71.1015 73.4766 70.9557 73.6642 70.8551C73.8553 70.7511 74.07 70.6992 74.3079 70.6992C74.5427 70.6992 74.7422 70.7429 74.9063 70.83C75.0741 70.917 75.2049 71.0327 75.2985 71.1769C75.3959 71.3212 75.4579 71.4752 75.4846 71.6396L75.0974 71.72C75.0807 71.5993 75.0405 71.4887 74.9767 71.3881C74.9163 71.2876 74.8309 71.2071 74.7202 71.1468C74.6096 71.0864 74.4738 71.0562 74.3129 71.0562C74.1489 71.0562 74.0012 71.093 73.8704 71.1669C73.7431 71.2407 73.641 71.3463 73.5637 71.4837C73.4901 71.621 73.453 71.7854 73.453 71.9765V72.0217C73.453 72.2128 73.4901 72.3772 73.5637 72.5145C73.641 72.6519 73.7431 72.7575 73.8704 72.8313C74.0012 72.9052 74.1489 72.942 74.3129 72.942C74.5577 72.942 74.7438 72.8782 74.8711 72.7509C75.0018 72.6236 75.0823 72.4658 75.1125 72.2782L75.5047 72.3637C75.4679 72.5246 75.401 72.677 75.3036 72.8213C75.2064 72.9655 75.0741 73.0812 74.9063 73.1682C74.7422 73.2553 74.5427 73.299 74.3079 73.299ZM76.182 73.2286V69.7086H76.5792V71.1618H76.6496C76.6833 71.088 76.7336 71.0195 76.8005 70.9557C76.8709 70.8887 76.9598 70.8334 77.067 70.7897C77.1776 70.746 77.3169 70.7244 77.4844 70.7244C77.6689 70.7244 77.8329 70.7646 77.9772 70.845C78.1246 70.922 78.2421 71.0361 78.3292 71.187C78.4162 71.3344 78.4599 71.5189 78.4599 71.7401V73.2286H78.0627V71.7703C78.0627 71.5255 78.0007 71.3479 77.8766 71.2373C77.7559 71.1266 77.5916 71.0713 77.3838 71.0713C77.1459 71.0713 76.9514 71.1483 76.8005 71.3026C76.6531 71.457 76.5792 71.6864 76.5792 71.9916V73.2286H76.182ZM80.5424 73.2286V69.7086H80.9648V71.2423H81.0352L82.5236 69.7086H83.0868L81.3721 71.4485L83.1472 73.2286H82.5689L81.0352 71.6647H80.9648V73.2286H80.5424ZM84.6498 73.299C84.4018 73.299 84.184 73.2471 83.9961 73.1431C83.8084 73.0359 83.6626 72.8866 83.5586 72.6956C83.4549 72.5045 83.4027 72.2832 83.4027 72.0318V71.9714C83.4027 71.7166 83.4549 71.4937 83.5586 71.3026C83.6626 71.1116 83.8069 70.9642 83.991 70.8601C84.1755 70.753 84.3867 70.6992 84.6246 70.6992C84.856 70.6992 85.0605 70.7495 85.2381 70.8501C85.416 70.9472 85.5549 71.088 85.6555 71.2725C85.7561 71.457 85.8063 71.6732 85.8063 71.9212V72.1022H83.8C83.81 72.3671 83.8955 72.5749 84.0564 72.7257C84.2173 72.8731 84.4185 72.947 84.6598 72.947C84.871 72.947 85.0338 72.8983 85.1476 72.8012C85.2617 72.704 85.3488 72.5884 85.4091 72.4542L85.751 72.6201C85.7007 72.7242 85.6303 72.8279 85.5398 72.9319C85.4528 73.0359 85.3371 73.123 85.1929 73.1934C85.0521 73.2638 84.871 73.299 84.6498 73.299ZM83.805 71.7753H85.4041C85.3909 71.5475 85.312 71.3696 85.1677 71.2423C85.0269 71.115 84.8459 71.0512 84.6246 71.0512C84.4002 71.0512 84.2157 71.115 84.0715 71.2423C83.9275 71.3696 83.8386 71.5475 83.805 71.7753ZM86.796 74.2343V73.8823H88.204C88.3012 73.8823 88.3499 73.832 88.3499 73.7314V72.8364H88.2795C88.2458 72.9068 88.194 72.9772 88.1236 73.0476C88.0566 73.1145 87.9677 73.1698 87.8571 73.2135C87.7464 73.2537 87.6072 73.2738 87.4397 73.2738C87.2621 73.2738 87.0978 73.2352 86.9469 73.1582C86.7995 73.0812 86.6819 72.9671 86.5949 72.8162C86.511 72.6654 86.4692 72.4809 86.4692 72.2631V70.7696H86.8664V72.2329C86.8664 72.4743 86.9268 72.6503 87.0475 72.7609C87.1716 72.8716 87.3375 72.9269 87.5453 72.9269C87.7801 72.9269 87.9727 72.8499 88.1236 72.6956C88.2744 72.5412 88.3499 72.3118 88.3499 72.0066V70.7696H88.7471V73.8018C88.7471 73.936 88.7085 74.0416 88.6315 74.1186C88.5576 74.1956 88.4489 74.2343 88.3046 74.2343H86.796ZM89.9204 73.2286L89.4275 70.7696H89.8298L90.2372 72.9621H90.3076L90.8456 70.7696H91.5043L92.0424 72.9621H92.1128L92.5201 70.7696H92.9224L92.4296 73.2286H91.7507L91.2077 71.0361H91.1423L90.5992 73.2286H89.9204ZM94.6925 73.299C94.4445 73.299 94.2248 73.2471 94.0337 73.1431C93.8461 73.0391 93.6984 72.8932 93.5912 72.7056C93.4872 72.5145 93.4353 72.2898 93.4353 72.0318V71.9664C93.4353 71.7115 93.4872 71.4887 93.5912 71.2976C93.6984 71.1065 93.8461 70.9591 94.0337 70.8551C94.2248 70.7511 94.4445 70.6992 94.6925 70.6992C94.9404 70.6992 95.1585 70.7511 95.3462 70.8551C95.5373 70.9591 95.6847 71.1065 95.7887 71.2976C95.8959 71.4887 95.9496 71.7115 95.9496 71.9664V72.0318C95.9496 72.2898 95.8959 72.5145 95.7887 72.7056C95.6847 72.8932 95.5373 73.0391 95.3462 73.1431C95.1585 73.2471 94.9404 73.299 94.6925 73.299ZM94.6925 72.942C94.9539 72.942 95.1617 72.8599 95.316 72.6956C95.4735 72.528 95.5523 72.3033 95.5523 72.0217V71.9765C95.5523 71.6949 95.4735 71.472 95.316 71.3077C95.1617 71.1402 94.9539 71.0562 94.6925 71.0562C94.4344 71.0562 94.2264 71.1402 94.0689 71.3077C93.9115 71.472 93.8326 71.6949 93.8326 71.9765V72.0217C93.8326 72.3033 93.9115 72.528 94.0689 72.6956C94.2264 72.8599 94.4344 72.942 94.6925 72.942ZM96.6646 73.2286V70.7696H97.0518V71.0713H97.1222C97.1656 70.9642 97.2328 70.8853 97.3233 70.835C97.4139 70.7847 97.5327 70.7596 97.6804 70.7596H97.972V71.1216H97.6552C97.4773 71.1216 97.3334 71.1719 97.2228 71.2725C97.1153 71.3696 97.0619 71.5223 97.0619 71.7301V73.2286H96.6646ZM99.5127 73.299C99.3015 73.299 99.1069 73.2487 98.9293 73.1481C98.7515 73.0476 98.6107 72.9017 98.5069 72.7106C98.4029 72.5196 98.3511 72.2933 98.3511 72.0318V71.9664C98.3511 71.7049 98.4029 71.4802 98.5069 71.2926C98.6107 71.1015 98.7499 70.9557 98.9243 70.8551C99.1019 70.7511 99.298 70.6992 99.5127 70.6992C99.6836 70.6992 99.8276 70.7228 99.9451 70.7696C100.066 70.8133 100.163 70.8702 100.237 70.9406C100.31 71.0075 100.368 71.0798 100.408 71.1568H100.478V69.7086H100.875V73.2286H100.488V72.8213H100.418C100.351 72.9454 100.247 73.056 100.106 73.1532C99.9652 73.2503 99.7672 73.299 99.5127 73.299ZM99.6183 72.947C99.8728 72.947 100.079 72.8665 100.237 72.7056C100.398 72.5412 100.478 72.3134 100.478 72.0217V71.9765C100.478 71.6848 100.398 71.4585 100.237 71.2976C100.079 71.1332 99.8728 71.0512 99.6183 71.0512C99.3668 71.0512 99.1588 71.1332 98.9947 71.2976C98.8338 71.4585 98.7533 71.6848 98.7533 71.9765V72.0217C98.7533 72.3134 98.8338 72.5412 98.9947 72.7056C99.1588 72.8665 99.3668 72.947 99.6183 72.947Z" fill="#7A7A7A"/>
<path d="M45.3428 90.8286C45.3428 88.0513 47.594 85.8 50.3713 85.8H337.629C340.407 85.8 342.657 88.0513 342.657 90.8286V99.6286H45.3428V90.8286Z" fill="#EAEAEA"/>
<path d="M55.8022 94.6V91.08H56.6219L57.8489 94.3334H57.9142V91.08H58.3316V94.6H57.512L56.29 91.3414H56.2196V94.6H55.8022ZM59.9109 94.6704C59.7399 94.6704 59.584 94.6402 59.4432 94.5798C59.3024 94.5195 59.1918 94.4324 59.1114 94.3184C59.0309 94.2043 58.9907 94.0654 58.9907 93.901C58.9907 93.7335 59.0309 93.5958 59.1114 93.4886C59.1918 93.378 59.3024 93.296 59.4432 93.2422C59.584 93.1854 59.7415 93.1568 59.9159 93.1568H60.7456V92.9757C60.7456 92.8013 60.6938 92.664 60.5898 92.5634C60.4892 92.4628 60.3383 92.4125 60.1372 92.4125C59.9395 92.4125 59.7852 92.4612 59.6746 92.5584C59.5639 92.6523 59.4885 92.7796 59.4483 92.9405L59.0762 92.8198C59.1164 92.6825 59.1802 92.5584 59.2672 92.4477C59.3543 92.3336 59.47 92.2431 59.6142 92.1762C59.7616 92.1058 59.9376 92.0706 60.1422 92.0706C60.4574 92.0706 60.702 92.1526 60.8764 92.317C61.0508 92.4779 61.1379 92.7058 61.1379 93.0009V94.1122C61.1379 94.2128 61.1847 94.263 61.2787 94.263H61.505V94.6H61.158C61.0474 94.6 60.9584 94.5698 60.8915 94.5094C60.8245 94.4456 60.7909 94.362 60.7909 94.258V94.2329H60.7306C60.6938 94.2967 60.6435 94.3636 60.5797 94.434C60.5194 94.501 60.4354 94.5563 60.3283 94.6C60.2211 94.6468 60.0819 94.6704 59.9109 94.6704ZM59.9562 94.3284C60.1909 94.3284 60.3801 94.2596 60.5244 94.1222C60.6718 93.9814 60.7456 93.7853 60.7456 93.5339V93.4786H59.931C59.7736 93.4786 59.6428 93.5138 59.5388 93.5842C59.4382 93.6511 59.3879 93.7536 59.3879 93.8909C59.3879 94.0283 59.4398 94.1358 59.5438 94.2128C59.651 94.2898 59.7886 94.3284 59.9562 94.3284ZM62.049 94.6V92.141H62.4362V92.4477H62.5066C62.5534 92.3607 62.6307 92.2802 62.7379 92.2064C62.8451 92.1325 62.9959 92.0957 63.1905 92.0957C63.3816 92.0957 63.5359 92.1375 63.6531 92.2214C63.7738 92.3054 63.8608 92.4075 63.9146 92.5282H63.985C64.0419 92.4075 64.1274 92.3054 64.2414 92.2214C64.3587 92.1375 64.5215 92.0957 64.7292 92.0957C64.8936 92.0957 65.0375 92.1294 65.1617 92.1963C65.2858 92.2632 65.3829 92.3607 65.4533 92.488C65.5272 92.6121 65.564 92.7611 65.564 92.9355V94.6H65.1667V92.9707C65.1667 92.8063 65.118 92.6775 65.0209 92.5835C64.9269 92.4864 64.7946 92.4377 64.6236 92.4377C64.4426 92.4377 64.2933 92.4964 64.1761 92.6137C64.062 92.7309 64.0051 92.9003 64.0051 93.1216V94.6H63.6078V92.9707C63.6078 92.8063 63.5591 92.6775 63.462 92.5835C63.368 92.4864 63.2357 92.4377 63.0648 92.4377C62.8837 92.4377 62.7344 92.4964 62.6172 92.6137C62.5031 92.7309 62.4462 92.9003 62.4462 93.1216V94.6H62.049ZM67.5018 94.6704C67.2536 94.6704 67.0358 94.6185 66.8481 94.5145C66.6602 94.4073 66.5144 94.258 66.4106 94.0669C66.3066 93.8758 66.2548 93.6546 66.2548 93.4032V93.3428C66.2548 93.0879 66.3066 92.8651 66.4106 92.674C66.5144 92.4829 66.6586 92.3355 66.8431 92.2315C67.0273 92.1243 67.2385 92.0706 67.4767 92.0706C67.708 92.0706 67.9123 92.1209 68.0902 92.2214C68.2678 92.3186 68.407 92.4594 68.5076 92.6438C68.6081 92.8283 68.6584 93.0446 68.6584 93.2925V93.4736H66.652C66.6621 93.7385 66.7476 93.9462 66.9085 94.0971C67.0694 94.2445 67.2705 94.3184 67.5119 94.3184C67.7231 94.3184 67.8856 94.2696 67.9997 94.1725C68.1134 94.0754 68.2008 93.9598 68.2612 93.8256L68.6031 93.9915C68.5528 94.0955 68.4824 94.1992 68.3919 94.3033C68.3045 94.4073 68.1889 94.4944 68.0449 94.5648C67.9041 94.6352 67.7231 94.6704 67.5018 94.6704ZM66.657 93.1467H68.2561C68.2426 92.9188 68.1637 92.741 68.0198 92.6137C67.879 92.4864 67.698 92.4226 67.4767 92.4226C67.252 92.4226 67.0675 92.4864 66.9236 92.6137C66.7793 92.741 66.6904 92.9188 66.657 93.1467Z" fill="#7A7A7A"/>
<path d="M71.1143 92.0858L71.9525 91.2476M71.9525 91.2476L72.7903 92.0858M71.9525 91.2476V94.1811M74.8857 93.3429L74.0475 94.1811M74.0475 94.1811L73.2096 93.3429M74.0475 94.1811V91.2476" stroke="#7A7A7A" strokeWidth="1.25" strokeLinecap="round" strokeLinejoin="round"/>
<path d="M132.322 94.6V94.2228H132.815V91.4571H132.322V91.08H133.695C134.157 91.08 134.514 91.1972 134.766 91.432C135.021 91.6667 135.148 92.0269 135.148 92.5131V93.1668C135.148 93.6562 135.021 94.0182 134.766 94.253C134.514 94.4843 134.157 94.6 133.695 94.6H132.322ZM133.237 94.2178H133.695C134.037 94.2178 134.295 94.1339 134.469 93.9664C134.643 93.7988 134.73 93.5389 134.73 93.1869V92.498C134.73 92.1394 134.643 91.8779 134.469 91.7136C134.295 91.5492 134.037 91.4672 133.695 91.4672H133.237V94.2178ZM136.963 94.6704C136.715 94.6704 136.498 94.6185 136.31 94.5145C136.122 94.4073 135.976 94.258 135.872 94.0669C135.769 93.8758 135.716 93.6546 135.716 93.4032V93.3428C135.716 93.0879 135.769 92.8651 135.872 92.674C135.976 92.4829 136.121 92.3355 136.305 92.2315C136.489 92.1243 136.7 92.0706 136.938 92.0706C137.17 92.0706 137.374 92.1209 137.552 92.2214C137.73 92.3186 137.869 92.4594 137.969 92.6438C138.07 92.8283 138.12 93.0446 138.12 93.2925V93.4736H136.114C136.124 93.7385 136.209 93.9462 136.37 94.0971C136.531 94.2445 136.732 94.3184 136.974 94.3184C137.185 94.3184 137.348 94.2697 137.461 94.1725C137.575 94.0754 137.662 93.9598 137.723 93.8256L138.065 93.9915C138.014 94.0955 137.944 94.1992 137.854 94.3033C137.766 94.4073 137.651 94.4944 137.507 94.5648C137.366 94.6352 137.185 94.6704 136.963 94.6704ZM136.119 93.1467H137.718C137.705 92.9188 137.626 92.741 137.481 92.6137C137.341 92.4864 137.16 92.4226 136.938 92.4226C136.714 92.4226 136.529 92.4864 136.385 92.6137C136.241 92.741 136.152 92.9188 136.119 93.1467ZM139.804 94.6704C139.498 94.6704 139.24 94.6 139.029 94.4592C138.822 94.3184 138.696 94.0955 138.652 93.7904L139.029 93.7049C139.056 93.8658 139.106 93.9931 139.18 94.087C139.254 94.1776 139.344 94.2429 139.452 94.2832C139.562 94.3199 139.68 94.3385 139.804 94.3385C139.988 94.3385 140.134 94.3017 140.241 94.2278C140.348 94.154 140.402 94.0553 140.402 93.9312C140.402 93.8039 140.35 93.7149 140.246 93.6646C140.146 93.6109 140.006 93.5675 139.829 93.5339L139.623 93.4987C139.465 93.472 139.321 93.4299 139.19 93.373C139.059 93.3161 138.955 93.2388 138.878 93.1417C138.801 93.0446 138.763 92.922 138.763 92.7746C138.763 92.5533 138.848 92.3808 139.019 92.2566C139.19 92.1325 139.416 92.0706 139.698 92.0706C139.976 92.0706 140.201 92.1344 140.372 92.2617C140.546 92.3858 140.659 92.5618 140.709 92.7897L140.337 92.8852C140.307 92.7076 140.235 92.5835 140.12 92.5131C140.006 92.4392 139.866 92.4025 139.698 92.4025C139.531 92.4025 139.398 92.4342 139.301 92.498C139.204 92.5584 139.155 92.6489 139.155 92.7696C139.155 92.8868 139.2 92.9742 139.291 93.031C139.385 93.0848 139.509 93.125 139.663 93.1517L139.869 93.1869C140.043 93.2171 140.199 93.2589 140.337 93.3126C140.477 93.3629 140.588 93.4368 140.669 93.5339C140.752 93.631 140.794 93.7586 140.794 93.9161C140.794 94.1574 140.704 94.3435 140.523 94.4742C140.345 94.605 140.105 94.6704 139.804 94.6704ZM142.596 94.6704C142.358 94.6704 142.144 94.6201 141.953 94.5195C141.765 94.4155 141.616 94.2681 141.505 94.077C141.398 93.8859 141.344 93.6596 141.344 93.3981V93.3428C141.344 93.0779 141.398 92.8516 141.505 92.664C141.616 92.4729 141.765 92.327 141.953 92.2265C142.144 92.1224 142.358 92.0706 142.596 92.0706C142.831 92.0706 143.03 92.1143 143.195 92.2013C143.362 92.2884 143.493 92.404 143.587 92.5483C143.684 92.6926 143.746 92.8466 143.773 93.0109L143.386 93.0914C143.369 92.9707 143.329 92.8601 143.265 92.7595C143.205 92.6589 143.119 92.5785 143.009 92.5181C142.898 92.4578 142.762 92.4276 142.601 92.4276C142.437 92.4276 142.29 92.4644 142.159 92.5382C142.031 92.6121 141.929 92.7177 141.852 92.855C141.778 92.9924 141.742 93.1568 141.742 93.3478V93.3931C141.742 93.5842 141.778 93.7486 141.852 93.8859C141.929 94.0232 142.031 94.1288 142.159 94.2027C142.29 94.2766 142.437 94.3133 142.601 94.3133C142.846 94.3133 143.032 94.2495 143.16 94.1222C143.29 93.995 143.371 93.8372 143.401 93.6496L143.793 93.735C143.756 93.896 143.689 94.0484 143.592 94.1926C143.495 94.3369 143.362 94.4526 143.195 94.5396C143.03 94.6267 142.831 94.6704 142.596 94.6704ZM144.47 94.6V92.141H144.857V92.4427H144.928C144.971 92.3355 145.038 92.2566 145.129 92.2064C145.219 92.1561 145.339 92.1309 145.486 92.1309H145.778V92.493H145.461C145.283 92.493 145.139 92.5433 145.028 92.6438C144.921 92.741 144.867 92.8937 144.867 93.1014V94.6H144.47ZM146.366 94.6V92.141H146.763V94.6H146.366ZM146.567 91.7588C146.48 91.7588 146.406 91.7302 146.346 91.6733C146.289 91.6164 146.26 91.5442 146.26 91.4571C146.26 91.3666 146.289 91.2927 146.346 91.2358C146.406 91.179 146.48 91.1504 146.567 91.1504C146.654 91.1504 146.726 91.179 146.783 91.2358C146.84 91.2927 146.868 91.3666 146.868 91.4571C146.868 91.5442 146.84 91.6164 146.783 91.6733C146.726 91.7302 146.654 91.7588 146.567 91.7588ZM147.598 95.6057V92.141H147.985V92.5483H148.056C148.12 92.4242 148.222 92.3135 148.363 92.2164C148.507 92.1193 148.706 92.0706 148.961 92.0706C149.172 92.0706 149.365 92.1224 149.539 92.2265C149.717 92.327 149.858 92.4713 149.962 92.6589C150.069 92.8466 150.123 93.0728 150.123 93.3378V93.4032C150.123 93.6646 150.071 93.8909 149.967 94.082C149.863 94.2731 149.722 94.4189 149.544 94.5195C149.37 94.6201 149.176 94.6704 148.961 94.6704C148.79 94.6704 148.644 94.6468 148.524 94.6C148.406 94.5563 148.311 94.4994 148.237 94.429C148.163 94.3586 148.106 94.2866 148.066 94.2128H147.996V95.6057H147.598ZM148.855 94.3184C149.11 94.3184 149.316 94.2379 149.474 94.077C149.635 93.9126 149.715 93.6848 149.715 93.3931V93.3478C149.715 93.0562 149.635 92.8299 149.474 92.669C149.316 92.5046 149.11 92.4226 148.855 92.4226C148.604 92.4226 148.396 92.5046 148.232 92.669C148.071 92.8299 147.99 93.0562 147.99 93.3478V93.3931C147.99 93.6848 148.071 93.9126 148.232 94.077C148.396 94.2379 148.604 94.3184 148.855 94.3184ZM151.637 94.6C151.496 94.6 151.387 94.5613 151.31 94.4843C151.236 94.4073 151.199 94.3017 151.199 94.1675V92.488H150.46V92.141H151.199V91.266H151.596V92.141H152.401V92.488H151.596V94.1072C151.596 94.2077 151.645 94.258 151.742 94.258H152.29V94.6H151.637ZM153.044 94.6V92.141H153.441V94.6H153.044ZM153.245 91.7588C153.158 91.7588 153.084 91.7302 153.024 91.6733C152.967 91.6164 152.939 91.5442 152.939 91.4571C152.939 91.3666 152.967 91.2927 153.024 91.2358C153.084 91.179 153.158 91.1504 153.245 91.1504C153.333 91.1504 153.405 91.179 153.462 91.2358C153.519 91.2927 153.547 91.3666 153.547 91.4571C153.547 91.5442 153.519 91.6164 153.462 91.6733C153.405 91.7302 153.333 91.7588 153.245 91.7588ZM155.413 94.6704C155.165 94.6704 154.946 94.6185 154.755 94.5145C154.567 94.4104 154.42 94.2646 154.312 94.077C154.208 93.8859 154.156 93.6612 154.156 93.4032V93.3378C154.156 93.0829 154.208 92.8601 154.312 92.669C154.42 92.4779 154.567 92.3305 154.755 92.2265C154.946 92.1224 155.165 92.0706 155.413 92.0706C155.662 92.0706 155.879 92.1224 156.067 92.2265C156.258 92.3305 156.406 92.4779 156.51 92.669C156.617 92.8601 156.67 93.0829 156.67 93.3378V93.4032C156.67 93.6612 156.617 93.8859 156.51 94.077C156.406 94.2646 156.258 94.4104 156.067 94.5145C155.879 94.6185 155.662 94.6704 155.413 94.6704ZM155.413 94.3133C155.675 94.3133 155.883 94.2313 156.037 94.0669C156.195 93.8994 156.273 93.6747 156.273 93.3931V93.3478C156.273 93.0662 156.195 92.8434 156.037 92.679C155.883 92.5115 155.675 92.4276 155.413 92.4276C155.155 92.4276 154.948 92.5115 154.79 92.679C154.632 92.8434 154.553 93.0662 154.553 93.3478V93.3931C154.553 93.6747 154.632 93.8994 154.79 94.0669C154.948 94.2313 155.155 94.3133 155.413 94.3133ZM157.385 94.6V92.141H157.773V92.5584H157.843C157.897 92.4411 157.987 92.3355 158.115 92.2416C158.245 92.1444 158.436 92.0957 158.688 92.0957C158.872 92.0957 159.036 92.1344 159.181 92.2114C159.328 92.2884 159.446 92.4025 159.533 92.5533C159.62 92.7042 159.663 92.8902 159.663 93.1115V94.6H159.266V93.1417C159.266 92.8968 159.204 92.7193 159.08 92.6086C158.959 92.498 158.795 92.4427 158.587 92.4427C158.349 92.4427 158.155 92.5197 158.004 92.674C157.857 92.8283 157.783 93.0578 157.783 93.3629V94.6H157.385Z" fill="#7A7A7A"/>
<path d="M230.773 94.6703C230.519 94.6703 230.291 94.6251 230.09 94.5346C229.888 94.444 229.729 94.3083 229.612 94.1272C229.498 93.9428 229.441 93.7133 229.441 93.4383V93.3327H229.858V93.4383C229.858 93.73 229.944 93.9478 230.115 94.092C230.286 94.2328 230.505 94.3032 230.773 94.3032C231.048 94.3032 231.258 94.2413 231.402 94.1172C231.546 93.993 231.618 93.8372 231.618 93.6495C231.618 93.5188 231.585 93.4148 231.518 93.3378C231.454 93.2608 231.363 93.1985 231.246 93.1517C231.129 93.1014 230.991 93.0577 230.834 93.021L230.572 92.9556C230.368 92.9018 230.187 92.8365 230.029 92.7595C229.872 92.6825 229.748 92.5819 229.657 92.4578C229.57 92.3305 229.526 92.1677 229.526 91.97C229.526 91.7723 229.575 91.6013 229.672 91.4571C229.773 91.3128 229.912 91.2022 230.09 91.1252C230.271 91.0482 230.478 91.0095 230.713 91.0095C230.951 91.0095 231.164 91.0513 231.352 91.1352C231.543 91.2157 231.692 91.3364 231.799 91.4973C231.91 91.6548 231.965 91.8543 231.965 92.0957V92.3069H231.548V92.0957C231.548 91.9247 231.511 91.7874 231.437 91.6834C231.367 91.5793 231.268 91.5023 231.141 91.452C231.016 91.4018 230.874 91.3766 230.713 91.3766C230.482 91.3766 230.296 91.4285 230.155 91.5325C230.014 91.6331 229.944 91.7773 229.944 91.965C229.944 92.0891 229.974 92.1897 230.034 92.2667C230.095 92.3437 230.18 92.4075 230.291 92.4578C230.401 92.5046 230.534 92.5467 230.688 92.5835L230.949 92.6488C231.154 92.6925 231.337 92.7529 231.498 92.8299C231.662 92.9037 231.793 93.0059 231.89 93.1366C231.987 93.2639 232.036 93.4317 232.036 93.6395C232.036 93.8472 231.984 94.0282 231.88 94.1826C231.776 94.3369 231.628 94.4576 231.437 94.5446C231.25 94.6285 231.028 94.6703 230.773 94.6703ZM233.606 94.5999C233.465 94.5999 233.356 94.5613 233.279 94.4843C233.205 94.4073 233.169 94.3017 233.169 94.1675V92.4879H232.429V92.141H233.169V91.266H233.566V92.141H234.37V92.4879H233.566V94.1071C233.566 94.2077 233.614 94.258 233.712 94.258H234.26V94.5999H233.606ZM235.753 94.6703C235.582 94.6703 235.426 94.6402 235.286 94.5798C235.145 94.5195 235.034 94.4324 234.954 94.3183C234.873 94.2042 234.833 94.0653 234.833 93.901C234.833 93.7334 234.873 93.5958 234.954 93.4886C235.034 93.378 235.145 93.296 235.286 93.2422C235.426 93.1853 235.584 93.1567 235.758 93.1567H236.588V92.9757C236.588 92.8013 236.536 92.6639 236.432 92.5634C236.332 92.4628 236.181 92.4125 235.98 92.4125C235.782 92.4125 235.628 92.4612 235.517 92.5583C235.406 92.6523 235.331 92.7796 235.291 92.9405L234.919 92.8198C234.959 92.6825 235.023 92.5583 235.11 92.4477C235.197 92.3336 235.312 92.2431 235.457 92.1762C235.604 92.1058 235.78 92.0706 235.985 92.0706C236.3 92.0706 236.544 92.1526 236.719 92.317C236.893 92.4779 236.98 92.7057 236.98 93.0008V94.1122C236.98 94.2127 237.027 94.263 237.121 94.263H237.347V94.5999H237C236.89 94.5999 236.801 94.5698 236.734 94.5094C236.667 94.4456 236.633 94.362 236.633 94.258V94.2328H236.573C236.536 94.2966 236.486 94.3636 236.422 94.434C236.362 94.5009 236.278 94.5562 236.171 94.5999C236.064 94.6468 235.924 94.6703 235.753 94.6703ZM235.799 94.3284C236.033 94.3284 236.223 94.2596 236.367 94.1222C236.514 93.9814 236.588 93.7853 236.588 93.5339V93.4786H235.773C235.616 93.4786 235.485 93.5138 235.381 93.5842C235.281 93.6511 235.23 93.7535 235.23 93.8909C235.23 94.0282 235.282 94.1357 235.386 94.2127C235.493 94.2897 235.631 94.3284 235.799 94.3284ZM238.635 94.5999C238.494 94.5999 238.385 94.5613 238.308 94.4843C238.234 94.4073 238.197 94.3017 238.197 94.1675V92.4879H237.458V92.141H238.197V91.266H238.594V92.141H239.399V92.4879H238.594V94.1071C238.594 94.2077 238.643 94.258 238.74 94.258H239.288V94.5999H238.635ZM240.983 94.6452C240.805 94.6452 240.641 94.6065 240.49 94.5295C240.343 94.4525 240.225 94.3384 240.138 94.1876C240.054 94.0333 240.012 93.8472 240.012 93.6294V92.141H240.409V93.5992C240.409 93.8441 240.47 94.0216 240.591 94.1323C240.715 94.2429 240.881 94.2982 241.088 94.2982C241.323 94.2982 241.516 94.2212 241.667 94.0669C241.817 93.9126 241.893 93.6832 241.893 93.378V92.141H242.29V94.5999H241.903V94.1826H241.833C241.779 94.2998 241.687 94.4073 241.556 94.5044C241.425 94.5984 241.234 94.6452 240.983 94.6452ZM244.112 94.6703C243.807 94.6703 243.549 94.5999 243.338 94.4591C243.13 94.3183 243.004 94.0955 242.961 93.7903L243.338 93.7048C243.364 93.8658 243.415 93.993 243.489 94.087C243.562 94.1775 243.653 94.2429 243.76 94.2831C243.871 94.3199 243.988 94.3384 244.112 94.3384C244.296 94.3384 244.442 94.3017 244.55 94.2278C244.657 94.154 244.71 94.0553 244.71 93.9311C244.71 93.8038 244.658 93.7149 244.555 93.6646C244.454 93.6109 244.315 93.5675 244.137 93.5339L243.931 93.4987C243.773 93.472 243.629 93.4298 243.499 93.373C243.368 93.3161 243.264 93.2387 243.187 93.1416C243.11 93.0445 243.071 92.9219 243.071 92.7745C243.071 92.5533 243.157 92.3808 243.328 92.2566C243.499 92.1325 243.725 92.0706 244.006 92.0706C244.285 92.0706 244.509 92.1344 244.68 92.2616C244.854 92.3858 244.967 92.5618 245.017 92.7896L244.645 92.8852C244.615 92.7076 244.543 92.5835 244.429 92.5131C244.315 92.4392 244.174 92.4024 244.006 92.4024C243.839 92.4024 243.706 92.4342 243.609 92.498C243.512 92.5583 243.463 92.6488 243.463 92.7695C243.463 92.8868 243.509 92.9741 243.599 93.031C243.693 93.0848 243.817 93.125 243.971 93.1517L244.177 93.1869C244.352 93.2171 244.507 93.2589 244.645 93.3126C244.786 93.3629 244.897 93.4368 244.977 93.5339C245.061 93.631 245.103 93.7586 245.103 93.916C245.103 94.1574 245.012 94.3435 244.831 94.4742C244.653 94.605 244.414 94.6703 244.112 94.6703Z" fill="#7A7A7A"/>
<path d="M247.428 92.0858L248.266 91.2476M248.266 91.2476L249.104 92.0858M248.266 91.2476V94.1811M251.2 93.3429L250.361 94.1811M250.361 94.1811L249.524 93.3429M250.361 94.1811V91.2476" stroke="#7A7A7A" strokeWidth="1.25" strokeLinecap="round" strokeLinejoin="round"/>
<path d="M291.217 94.6704C290.956 94.6704 290.728 94.6235 290.533 94.5296C290.339 94.4356 290.188 94.2967 290.081 94.1122C289.974 93.9246 289.92 93.6948 289.92 93.4233V91.08H290.337V93.4283C290.337 93.7165 290.414 93.9327 290.569 94.077C290.723 94.2212 290.939 94.2932 291.217 94.2932C291.495 94.2932 291.712 94.2212 291.866 94.077C292.02 93.9327 292.097 93.7165 292.097 93.4283V91.08H292.52V93.4233C292.52 93.6948 292.466 93.9246 292.359 94.1122C292.252 94.2967 292.099 94.4356 291.901 94.5296C291.707 94.6235 291.479 94.6704 291.217 94.6704ZM293.294 94.6V91.08H294.717C294.935 91.08 295.126 91.1186 295.29 91.1956C295.458 91.2695 295.589 91.3766 295.683 91.5174C295.777 91.6548 295.823 91.8207 295.823 92.0153V92.0706C295.823 92.3019 295.768 92.4845 295.658 92.6187C295.547 92.7529 295.416 92.8434 295.265 92.8902V92.9606C295.386 92.9641 295.485 93.0043 295.562 93.0813C295.642 93.1552 295.683 93.2674 295.683 93.4182V94.6H295.265V93.4685C295.265 93.368 295.237 93.291 295.18 93.2372C295.126 93.1835 295.044 93.1568 294.933 93.1568H293.716V94.6H293.294ZM293.716 92.7746H294.677C294.908 92.7746 295.086 92.7193 295.21 92.6086C295.338 92.4946 295.401 92.3371 295.401 92.136V92.1008C295.401 91.8996 295.339 91.7437 295.215 91.6331C295.091 91.519 294.912 91.4621 294.677 91.4621H293.716V92.7746ZM296.466 94.6V91.08H296.889V94.2178H298.669V94.6H296.466Z" fill="#7A7A7A"/>
<path d="M342.028 100.414H45.9709C45.7106 100.414 45.4995 100.625 45.4995 100.886V113.457C45.4995 113.718 45.7106 113.929 45.9709 113.929H342.028C342.288 113.929 342.499 113.718 342.499 113.457V100.886C342.499 100.625 342.288 100.414 342.028 100.414Z" fill="#EAEAEA"/>
<path d="M342.028 100.414H45.9709C45.7106 100.414 45.4995 100.625 45.4995 100.886V113.457C45.4995 113.718 45.7106 113.929 45.9709 113.929H342.028C342.288 113.929 342.499 113.718 342.499 113.457V100.886C342.499 100.625 342.288 100.414 342.028 100.414Z" stroke="#D4D4D4" strokeLinecap="round" strokeLinejoin="round"/>
<path d="M102.228 105.914H57.5999C56.9056 105.914 56.3428 106.477 56.3428 107.171C56.3428 107.866 56.9056 108.429 57.5999 108.429H102.228C102.923 108.429 103.486 107.866 103.486 107.171C103.486 106.477 102.923 105.914 102.228 105.914Z" fill="#BABABA"/>
<path d="M204.686 105.914H130.828C130.134 105.914 129.571 106.477 129.571 107.171C129.571 107.866 130.134 108.429 130.828 108.429H204.686C205.38 108.429 205.943 107.866 205.943 107.171C205.943 106.477 205.38 105.914 204.686 105.914Z" fill="#BABABA"/>
<path d="M255.914 105.914H229.514C228.82 105.914 228.257 106.477 228.257 107.171C228.257 107.866 228.82 108.429 229.514 108.429H255.914C256.608 108.429 257.171 107.866 257.171 107.171C257.171 106.477 256.608 105.914 255.914 105.914Z" fill="#BABABA"/>
<path d="M325.685 105.914H288.285C287.591 105.914 287.028 106.477 287.028 107.171C287.028 107.866 287.591 108.429 288.285 108.429H325.685C326.38 108.429 326.943 107.866 326.943 107.171C326.943 106.477 326.38 105.914 325.685 105.914Z" fill="#BABABA"/>
<path d="M241.771 64.5857H211.6C209.604 64.5857 207.985 66.0664 207.985 67.8929V74.7948C207.985 76.6213 209.604 78.1019 211.6 78.1019H241.771C243.767 78.1019 245.385 76.6213 245.385 74.7948V67.8929C245.385 66.0664 243.767 64.5857 241.771 64.5857Z" fill="#EAEAEA"/>
<path d="M241.771 64.5857H211.6C209.604 64.5857 207.985 66.0664 207.985 67.8929V74.7948C207.985 76.6213 209.604 78.1019 211.6 78.1019H241.771C243.767 78.1019 245.385 76.6213 245.385 74.7948V67.8929C245.385 66.0664 243.767 64.5857 241.771 64.5857Z" stroke="#D4D4D4" strokeLinecap="round" strokeLinejoin="round"/>
<path d="M218.2 69.7714C218.117 69.7714 218.036 69.8044 217.978 69.8635C217.919 69.9223 217.886 70.0024 217.886 70.0857C217.886 70.169 217.919 70.2491 217.978 70.3079C218.036 70.367 218.117 70.4 218.2 70.4C218.283 70.4 218.363 70.367 218.422 70.3079C218.481 70.2491 218.514 70.169 218.514 70.0857C218.514 70.0024 218.481 69.9223 218.422 69.8635C218.363 69.8044 218.283 69.7714 218.2 69.7714ZM217.31 69.7714C217.375 69.5872 217.496 69.4279 217.655 69.3154C217.814 69.2026 218.005 69.1422 218.2 69.1422C218.395 69.1422 218.585 69.2026 218.744 69.3154C218.904 69.4279 219.024 69.5872 219.089 69.7714H221.343C221.426 69.7714 221.506 69.8044 221.565 69.8635C221.624 69.9223 221.657 70.0024 221.657 70.0857C221.657 70.169 221.624 70.2491 221.565 70.3079C221.506 70.367 221.426 70.4 221.343 70.4H219.089C219.024 70.5842 218.904 70.7435 218.744 70.856C218.585 70.9688 218.395 71.0292 218.2 71.0292C218.005 71.0292 217.814 70.9688 217.655 70.856C217.496 70.7435 217.375 70.5842 217.31 70.4H216.943C216.859 70.4 216.779 70.367 216.721 70.3079C216.661 70.2491 216.628 70.169 216.628 70.0857C216.628 70.0024 216.661 69.9223 216.721 69.8635C216.779 69.8044 216.859 69.7714 216.943 69.7714H217.31ZM220.086 71.6571C220.002 71.6571 219.922 71.6901 219.863 71.7492C219.804 71.808 219.771 71.8881 219.771 71.9714C219.771 72.0547 219.804 72.1348 219.863 72.1936C219.922 72.2527 220.002 72.2857 220.086 72.2857C220.169 72.2857 220.249 72.2527 220.308 72.1936C220.367 72.1348 220.4 72.0547 220.4 71.9714C220.4 71.8881 220.367 71.808 220.308 71.7492C220.249 71.6901 220.169 71.6571 220.086 71.6571ZM219.196 71.6571C219.261 71.473 219.382 71.3136 219.541 71.2011C219.7 71.0883 219.89 71.0279 220.086 71.0279C220.281 71.0279 220.471 71.0883 220.63 71.2011C220.79 71.3136 220.91 71.473 220.975 71.6571H221.343C221.426 71.6571 221.506 71.6901 221.565 71.7492C221.624 71.808 221.657 71.8881 221.657 71.9714C221.657 72.0547 221.624 72.1348 221.565 72.1936C221.506 72.2527 221.426 72.2857 221.343 72.2857H220.975C220.91 72.4699 220.79 72.6292 220.63 72.7417C220.471 72.8546 220.281 72.9149 220.086 72.9149C219.89 72.9149 219.7 72.8546 219.541 72.7417C219.382 72.6292 219.261 72.4699 219.196 72.2857H216.943C216.859 72.2857 216.779 72.2527 216.721 72.1936C216.661 72.1348 216.628 72.0547 216.628 71.9714C216.628 71.8881 216.661 71.808 216.721 71.7492C216.779 71.6901 216.859 71.6571 216.943 71.6571H219.196ZM218.2 73.5428C218.117 73.5428 218.036 73.5758 217.978 73.6349C217.919 73.6937 217.886 73.7738 217.886 73.8571C217.886 73.9404 217.919 74.0206 217.978 74.0793C218.036 74.1384 218.117 74.1714 218.2 74.1714C218.283 74.1714 218.363 74.1384 218.422 74.0793C218.481 74.0206 218.514 73.9404 218.514 73.8571C218.514 73.7738 218.481 73.6937 218.422 73.6349C218.363 73.5758 218.283 73.5428 218.2 73.5428ZM217.31 73.5428C217.375 73.3587 217.496 73.1993 217.655 73.0868C217.814 72.974 218.005 72.9136 218.2 72.9136C218.395 72.9136 218.585 72.974 218.744 73.0868C218.904 73.1993 219.024 73.3587 219.089 73.5428H221.343C221.426 73.5428 221.506 73.5758 221.565 73.6349C221.624 73.6937 221.657 73.7738 221.657 73.8571C221.657 73.9404 221.624 74.0206 221.565 74.0793C221.506 74.1384 221.426 74.1714 221.343 74.1714H219.089C219.024 74.3556 218.904 74.5149 218.744 74.6274C218.585 74.7403 218.395 74.8006 218.2 74.8006C218.005 74.8006 217.814 74.7403 217.655 74.6274C217.496 74.5149 217.375 74.3556 217.31 74.1714H216.943C216.859 74.1714 216.779 74.1384 216.721 74.0793C216.661 74.0206 216.628 73.9404 216.628 73.8571C216.628 73.7738 216.661 73.6937 216.721 73.6349C216.779 73.5758 216.859 73.5428 216.943 73.5428H217.31Z" fill="#7A7A7A"/>
<path d="M225.831 73.8572V70.3372H227.958V70.7193H226.253V71.901H227.822V72.2832H226.253V73.8572H225.831ZM228.561 73.8572V71.3982H228.959V73.8572H228.561ZM228.763 71.016C228.675 71.016 228.602 70.9874 228.541 70.9305C228.484 70.8736 228.456 70.8014 228.456 70.7143C228.456 70.6238 228.484 70.5499 228.541 70.493C228.602 70.4362 228.675 70.4076 228.763 70.4076C228.85 70.4076 228.922 70.4362 228.979 70.493C229.036 70.5499 229.064 70.6238 229.064 70.7143C229.064 70.8014 229.036 70.8736 228.979 70.9305C228.922 70.9874 228.85 71.016 228.763 71.016ZM229.794 73.8572V70.3372H230.191V73.8572H229.794ZM231.931 73.8572C231.791 73.8572 231.682 73.8185 231.605 73.7415C231.531 73.6645 231.494 73.5589 231.494 73.4247V71.7452H230.755V71.3982H231.494V70.5232H231.891V71.3982H232.696V71.7452H231.891V73.3644C231.891 73.4649 231.94 73.5152 232.037 73.5152H232.585V73.8572H231.931ZM234.378 73.9276C234.129 73.9276 233.911 73.8757 233.724 73.7717C233.536 73.6645 233.39 73.5152 233.286 73.3241C233.182 73.133 233.13 72.9118 233.13 72.6604V72.6C233.13 72.3451 233.182 72.1223 233.286 71.9312C233.39 71.7401 233.534 71.5927 233.719 71.4887C233.903 71.3815 234.114 71.3278 234.352 71.3278C234.584 71.3278 234.788 71.3781 234.966 71.4786C235.143 71.5758 235.283 71.7166 235.383 71.901C235.484 72.0855 235.534 72.3018 235.534 72.5497V72.7308H233.528C233.538 72.9957 233.623 73.2034 233.784 73.3543C233.945 73.5017 234.146 73.5756 234.388 73.5756C234.599 73.5756 234.761 73.5268 234.875 73.4297C234.989 73.3326 235.077 73.217 235.137 73.0828L235.479 73.2487C235.429 73.3527 235.358 73.4564 235.268 73.5605C235.18 73.6645 235.065 73.7516 234.921 73.822C234.78 73.8924 234.599 73.9276 234.378 73.9276ZM233.533 72.4039H235.132C235.118 72.176 235.039 71.9982 234.895 71.8709C234.755 71.7436 234.574 71.6798 234.352 71.6798C234.128 71.6798 233.943 71.7436 233.799 71.8709C233.655 71.9982 233.566 72.176 233.533 72.4039ZM236.227 73.8572V71.3982H236.614V71.6999H236.684C236.728 71.5927 236.795 71.5138 236.886 71.4636C236.976 71.4133 237.095 71.3881 237.243 71.3881H237.534V71.7502H237.217C237.04 71.7502 236.896 71.8005 236.785 71.901C236.678 71.9982 236.624 72.1509 236.624 72.3586V73.8572H236.227Z" fill="#7A7A7A"/>
</g>
<rect width="369.246" height="220" transform="translate(0.0854492)" fill="url(#paint0_linear_326_542)"/>
</g>
<defs>
<linearGradient id="paint0_linear_326_542" x1="184.381" y1="-162.5" x2="184.381" y2="186.5" gradientUnits="userSpaceOnUse">
<stop offset="0.430376" stop-color="#FFFBF5" stop-opacity="0"/>
<stop offset="0.9" stop-color="#FFEFEA"/>
</linearGradient>
<clipPath id="clip0_326_542">
<rect x="0.0854492" width="387.829" height="220" rx="20" fill="white"/>
</clipPath>
<clipPath id="clip1_326_542">
<rect width="387.829" height="220" fill="white" transform="translate(0.0854492)"/>
</clipPath>
</defs>
</svg>
